<?xml version="1.0" encoding="UTF-8" standalone="no"?>
<!-- Created with Inkscape (http://www.inkscape.org/) -->

<svg
   xmlns:dc="http://purl.org/dc/elements/1.1/"
   xmlns:cc="http://creativecommons.org/ns#"
   xmlns:rdf="http://www.w3.org/1999/02/22-rdf-syntax-ns#"
   xmlns:svg="http://www.w3.org/2000/svg"
   xmlns="http://www.w3.org/2000/svg"
   version="1.1"
   width="195.50101"
   height="25.077999"
   viewBox="216.89 107.058 195.50102 25.078"
   id="Layer_1"
   xml:space="preserve"><metadata
     id="metadata53"><rdf:RDF><cc:Work
         rdf:about=""><dc:format>image/svg+xml</dc:format><dc:type
           rdf:resource="http://purl.org/dc/dcmitype/StillImage" /><dc:title></dc:title></cc:Work></rdf:RDF></metadata><defs
     id="defs51" /><g
     transform="translate(0.001,-1.0720194e-7)"
     id="g4604"><path
       d="m 407.39001,107.058 h -0.589 -6.133 -0.278 -0.589 -6.133 -6.278 -0.589 -5.801 -0.332 -0.278 -0.589 -6.133 -0.278 -0.589 -6.133 -4.873 -0.208 -0.587 -0.61 -0.589 -6.133 -0.278 -0.589 -6.133 -4.873 -7.795 -11.61001 -0.589 -6.133 -0.278 -0.589 -0.006 -6.127 H 296 243.397 l -2.056,2.545 c -0.19,0.235 -0.477,0.372 -0.778,0.372 h -7.757 c -0.303,0 -0.588,-0.137 -0.778,-0.372 l -2.056,-2.545 h -8.083 c -2.762,0 -5,2.238 -5,5 v 12.167 c 0,2.763 2.238,4.999 5,4.999 h 8.088 l 2.051,2.539 c 0.19,0.236 0.477,0.373 0.778,0.373 h 7.757 c 0.303,0 0.588,-0.137 0.778,-0.373 l 2.051,-2.539 h 52.606 12.668 6.127 0.006 0.589 0.278 6.133 0.589 11.61001 7.795 4.873 6.133 0.589 0.278 6.133 0.589 0.61 0.589 0.208 4.873 6.133 0.589 0.278 6.133 0.589 0.278 0.332 5.801 0.589 6.278 6.133 0.589 0.278 6.133 0.589 c 2.762,0 5,-2.236 5,-4.999 v -12.167 c 0,-2.762 -2.239,-5 -5,-5 z"
       id="path4331-2"
       style="fill:#2ca5e2;fill-opacity:1" /><g
       id="g4587"><rect
         width="107.66193"
         height="14.779"
         x="247.17386"
         y="110.622"
         id="rect47"
         style="fill:#ffffff" /><g
         id="g4248"><path
           d="m 241.27686,121.828 -1.644,-2.459 -0.504,0.576 v 1.883 h -1.703 v -8.995 h 1.703 v 5.121 l 1.632,-1.991 h 1.87 l -2.003,2.291 2.472,3.574 h -1.823 z"
           id="path21"
           style="fill:#ffffff" /><path
           d="m 230.03762,121.708 c -0.72,0 -1.211,-0.384 -1.475,-0.995 -0.336,0.563 -1.043,1.115 -2.087,1.115 -1.295,0 -1.955,-0.84 -1.955,-1.715 0,-0.972 0.792,-1.919 2.423,-1.919 0.492,0 0.971,0.06 1.415,0.144 v -0.191 c 0,-0.575 -0.396,-0.959 -1.043,-0.959 -0.456,0 -0.828,0.204 -1.067,0.588 l -1.175,-0.876 c 0,0 0.672,-1.199 2.327,-1.199 1.631,0 2.626,0.973 2.626,2.375 v 1.763 c 0,0.217 0.145,0.349 0.36,0.349 h 0.239 v 1.522 l -0.588,-0.002 0,0 z m -1.679,-2.327 c -0.313,-0.061 -0.695,-0.119 -0.923,-0.119 -0.685,0 -1.211,0.228 -1.211,0.707 0,0.323 0.24,0.54 0.684,0.54 0.706,0 1.234,-0.493 1.45,-1.128 z"
           id="path3126"
           style="fill:#ffffff" /><path
           d="m 232.39092,119.739 c 0.406,0.468 1.056,0.659 1.619,0.659 0.358,0 0.623,-0.144 0.623,-0.359 0,-0.3 -0.301,-0.442 -0.792,-0.588 -0.91,-0.264 -2.038,-0.768 -2.038,-1.955 0,-1.127 1.091,-1.763 2.074,-1.763 0.888,0 1.512,0.3 2.039,0.852 l -0.936,1.009 c -0.252,-0.276 -0.721,-0.528 -1.068,-0.528 -0.312,0 -0.539,0.145 -0.539,0.372 0,0.288 0.336,0.432 0.863,0.588 0.888,0.264 2.027,0.815 2.027,1.931 0,1.104 -0.947,1.871 -2.269,1.871 -1.055,0 -1.918,-0.3 -2.555,-0.982 l 0.952,-1.107 z"
           id="path3132"
           style="fill:#ffffff" /></g><g
         transform="translate(50.47262,0)"
         id="g4304"><g
           id="g4237"><path
             d="m 316.61594,121.89854 h -1.679 v -5.853 h 1.679 v 0.396 c 0,0.097 -0.012,0.24 -0.034,0.408 0.383,-0.552 0.971,-0.948 1.773,-0.948 1.212,0 2.123,0.948 2.123,2.52 v 3.479 h -1.689 v -3.382 c 0,-0.814 -0.518,-1.234 -1.08,-1.234 -0.504,0 -1.067,0.406 -1.093,1.188 v 3.426 l 0,0 z"
             id="path3138"
             style="fill:#ffffff" /><path
             d="m 325.97594,121.78054 v -0.768 c -0.468,0.552 -1.092,0.888 -1.775,0.888 -1.643,0 -2.529,-1.486 -2.529,-3.069 0,-1.561 0.923,-3.034 2.542,-3.034 0.647,0 1.248,0.238 1.703,0.72 v -3.729 h 1.68 v 8.994 l -1.621,-0.002 0,0 z m -0.036,-2.939 c 0,-0.899 -0.516,-1.547 -1.296,-1.547 -0.875,0 -1.307,0.694 -1.307,1.559 0,0.853 0.442,1.561 1.307,1.561 0.767,-0.001 1.296,-0.769 1.296,-1.573 z"
             id="path3140"
             style="fill:#ffffff" /><path
             d="m 313.3167,121.78054 c -0.72,0 -1.211,-0.384 -1.475,-0.995 -0.336,0.563 -1.043,1.115 -2.087,1.115 -1.295,0 -1.955,-0.84 -1.955,-1.715 0,-0.972 0.792,-1.919 2.423,-1.919 0.492,0 0.971,0.06 1.415,0.144 v -0.191 c 0,-0.575 -0.396,-0.959 -1.043,-0.959 -0.456,0 -0.828,0.204 -1.067,0.588 l -1.175,-0.876 c 0,0 0.672,-1.199 2.327,-1.199 1.631,0 2.626,0.973 2.626,2.375 v 1.763 c 0,0.217 0.145,0.349 0.36,0.349 h 0.239 v 1.522 l -0.588,-0.002 0,0 z m -1.679,-2.327 c -0.313,-0.061 -0.695,-0.119 -0.923,-0.119 -0.685,0 -1.211,0.228 -1.211,0.707 0,0.323 0.24,0.54 0.684,0.54 0.706,0 1.234,-0.493 1.45,-1.128 z"
             id="path3126-7"
             style="fill:#ffffff" /></g><g
           id="g4242"><path
             d="m 341.91638,116.04654 -2.016,5.854 h -1.906 l -0.875,-2.734 c -0.061,-0.168 -0.12,-0.479 -0.133,-0.54 l -0.144,0.54 -0.899,2.734 h -1.906 c -0.66,-1.943 -1.319,-3.897 -1.968,-5.854 h 1.812 l 0.911,3.227 c 0.084,0.324 0.168,0.708 0.191,0.78 0.013,-0.062 0.097,-0.433 0.204,-0.78 l 0.947,-3.227 h 1.703 l 0.923,3.227 c 0.096,0.349 0.168,0.744 0.18,0.792 0.013,-0.048 0.108,-0.433 0.217,-0.792 l 0.936,-3.227 h 1.823 z"
             id="path3067-5"
             style="fill:#ffffff" /><path
             d="m 347.57038,121.78054 c -0.72,0 -1.211,-0.384 -1.475,-0.995 -0.336,0.563 -1.043,1.115 -2.087,1.115 -1.295,0 -1.955,-0.84 -1.955,-1.715 0,-0.973 0.792,-1.919 2.423,-1.919 0.492,0 0.971,0.06 1.415,0.144 v -0.192 c 0,-0.574 -0.396,-0.959 -1.043,-0.959 -0.456,0 -0.828,0.204 -1.067,0.588 l -1.175,-0.876 c 0,0 0.671,-1.198 2.327,-1.198 1.631,0 2.626,0.972 2.626,2.375 v 1.763 c 0,0.216 0.145,0.348 0.36,0.348 h 0.24 v 1.523 l -0.589,-0.002 0,0 z m -1.679,-2.327 c -0.312,-0.06 -0.696,-0.119 -0.923,-0.119 -0.684,0 -1.211,0.229 -1.211,0.707 0,0.324 0.24,0.54 0.684,0.54 0.706,-0.001 1.234,-0.493 1.45,-1.128 z"
             id="path3069-3"
             style="fill:#ffffff" /><path
             d="m 350.10438,113.13254 c 0.601,0 1.104,0.505 1.104,1.104 0,0.599 -0.504,1.104 -1.104,1.104 -0.6,0 -1.104,-0.504 -1.104,-1.104 0,-0.6 0.504,-1.104 1.104,-1.104 z m -0.875,8.768 v -5.854 h 1.715 v 5.854 h -1.715 z"
             id="path3071-5"
             style="fill:#ffffff" /><path
             d="m 353.03238,116.04654 v -2.087 h 1.679 v 2.087 h 0.828 v 1.56 h -0.828 v 4.294 h -1.679 v -4.294 h -0.815 v -1.56 h 0.815 z"
             id="path3073-6"
             style="fill:#ffffff" /></g></g></g></g></svg>