<?xml version="1.0" encoding="UTF-8" standalone="no"?>
<!-- Created with Inkscape (http://www.inkscape.org/) -->

<svg
   xmlns:dc="http://purl.org/dc/elements/1.1/"
   xmlns:cc="http://creativecommons.org/ns#"
   xmlns:rdf="http://www.w3.org/1999/02/22-rdf-syntax-ns#"
   xmlns:svg="http://www.w3.org/2000/svg"
   xmlns="http://www.w3.org/2000/svg"
   version="1.1"
   width="73.500999"
   height="25.077999"
   id="svg21884">
  <defs
     id="defs3" />
  <metadata
     id="metadata4">
    <rdf:RDF>
      <cc:Work
         rdf:about="">
        <dc:format>image/svg+xml</dc:format>
        <dc:type
           rdf:resource="http://purl.org/dc/dcmitype/StillImage" />
        <dc:title></dc:title>
      </cc:Work>
    </rdf:RDF>
  </metadata>
  <g
     transform="translate(0,-1027.2842)"
     id="layer1">
    <path
       d="m 235.16909,60.038453 h 67.607 2.5 6.89101 0.276 v -0.026 c 2.63099,-0.146 4.724,-2.307 4.724,-4.974 v -12.167 c 0,-2.667 -2.09301,-4.826 -4.724,-4.972 v -0.028 h -0.276 -6.89101 -2.5 -67.60399 l -2.056,2.545 c -0.19,0.235 -0.477,0.372 -0.77801,0.372 h -7.757 c -0.302,0 -0.588,-0.137 -0.778,-0.372 l -2.055,-2.545 h -8.084 c -2.761,0 -5,2.238 -5,5 v 12.167 c 0,2.763 2.239,5 5,5 h 8.088"
       id="path24276"
       style="fill:#4b67af;display:none" />
    <g
       transform="translate(-244.89826,939.56508)"
       id="g25235">
      <path
         d="m 313.39926,87.7191 -0.589,0 -6.133,0 -0.278,0 -0.589,0 -0.411,0 -0.589,0 -4.301,0 -0.832,0 -1,0 -0.278,0 -0.589,0 -1.006,0 -2.127,0 -0.865,0 -4.803,0 -1.25,0 -5.75,0 -10.603,0 -2.056,2.545 c -0.19,0.233 -0.476,0.371 -0.778,0.371 l -7.757,0 c -0.303,0 -0.588,-0.138 -0.778,-0.371 l -2.056,-2.545 -8.083,0 c -2.762,0 -5,2.237 -5,5 l 0,12.166 c 0,2.762 2.238,5 5,5 l 8.088,0 2.051,2.539 c 0.19,0.235 0.477,0.373 0.778,0.373 l 7.757,0 c 0.304,0 0.588,-0.138 0.778,-0.373 l 2.051,-2.539 10.608,0 5.75,0 1.25,0 4.803,0 0.865,0 2.127,0 1.006,0 0.589,0 0.278,0 1,0 0.832,0 4.301,0 0.589,0 0.411,0 0.589,0 0.278,0 6.133,0 0.589,0 c 2.762,0 5,-2.238 5,-5 l 0,-12.166 c 0,-2.763 -2.239,-5 -5,-5 z"
         id="path23221"
         style="fill:#2ca5e2;fill-opacity:1" />
      <g
         id="g25221">
        <g
           id="g25207">
          <path
             d="m 255.31259,102.45217 h -1.68 v -5.853997 h 1.68 v 0.396 c 0,0.132 -0.023,0.348 -0.062,0.575 0.336,-0.636 0.863,-1.115 1.632,-1.115 v 1.644 c -0.875,0 -1.57,0.504 -1.57,1.463 v 2.890997 z"
             id="path22744"
             style="fill:#ffffff" />
          <path
             d="m 259.41559,99.885173 c 0.12,0.971997 0.721,1.330997 1.379,1.330997 0.648,0 1.093,-0.3 1.381,-0.72 l 1.114,0.804 c -0.624,0.84 -1.259,1.271 -2.591,1.271 -1.715,0 -2.975,-1.26 -2.975,-3.058997 0,-1.667 1.128,-3.046 2.927,-3.046 1.979,0 2.759,1.415 2.759,3.214 v 0.204 l -3.994,10e-4 0,0 z m 0.049,-1.031 h 2.314 c -0.108,-0.672 -0.624,-1.02 -1.14,-1.02 -0.539,10e-4 -1.006,0.337 -1.174,1.02 z"
             id="path22746"
             style="fill:#ffffff" />
          <path
             d="m 265.17659,100.48517 c 0.406,0.469 1.056,0.659 1.618,0.659 0.359,0 0.624,-0.144 0.624,-0.359 0,-0.3 -0.301,-0.442 -0.792,-0.588 -0.91,-0.263997 -2.039,-0.767997 -2.039,-1.954997 0,-1.127 1.092,-1.763 2.075,-1.763 0.888,0 1.512,0.3 2.039,0.853 l -0.936,1.008 c -0.252,-0.276 -0.722,-0.528 -1.068,-0.528 -0.312,0 -0.539,0.146 -0.539,0.372 0,0.288 0.336,0.432 0.863,0.588 0.888,0.264 2.027,0.815 2.027,1.931997 0,1.104 -0.947,1.87 -2.269,1.87 -1.055,0 -1.918,-0.3 -2.555,-0.982 l 0.952,-1.107 z"
             id="path22748"
             style="fill:#ffffff" />
          <path
             d="m 271.53526,99.9231 c 0.12,0.972 0.721,1.331 1.379,1.331 0.647,0 1.092,-0.301 1.38,-0.721 l 1.114,0.805 c -0.624,0.84 -1.259,1.271 -2.59,1.271 -1.715,0 -2.975,-1.26 -2.975,-3.059 0,-1.667 1.127,-3.046 2.926,-3.046 1.979,0 2.759,1.414 2.759,3.214 v 0.204 l -3.993,0.001 0,0 z m 0.048,-1.032 h 2.313 c -0.108,-0.672 -0.624,-1.021 -1.139,-1.021 -0.538,0.001 -1.006,0.337 -1.174,1.021 z"
             id="path23229"
             style="fill:#ffffff" />
          <path
             d="m 277.16326,96.6371 v -2.087 h 1.68 v 2.087 h 0.828 v 1.559 h -0.828 v 4.294 h -1.68 v -4.294 h -0.814 v -1.559 h 0.814 z"
             id="path23231"
             style="fill:#ffffff" />
        </g>
        <g
           id="g25214">
          <path
             d="m 310.05142,102.49209 h -1.68 v -5.853994 h 1.68 v 0.396 c 0,0.131 -0.024,0.348 -0.061,0.576 0.336,-0.638 0.863,-1.117 1.631,-1.117 v 1.644997 c -0.875,0 -1.57,0.504 -1.57,1.463 v 2.890997 z"
             id="path22071"
             style="fill:#ffffff" />
          <path
             d="m 285.26226,96.6371 v -2.087 h 1.679 v 2.087 h 0.828 v 1.56 h -0.828 v 4.294 h -1.679 v -4.294 h -0.815 v -1.56 h 0.815 z"
             id="path3073-6-6"
             style="fill:#ffffff" />
          <path
             d="m 289.93471,93.7231 c 0.601,0 1.104,0.505 1.104,1.104 0,0.599 -0.504,1.104 -1.104,1.104 -0.6,0 -1.104,-0.504 -1.104,-1.104 0,-0.6 0.504,-1.104 1.104,-1.104 z m -0.875,8.768 v -5.854 h 1.715 v 5.854 h -1.715 z"
             id="path3071-5-0"
             style="fill:#ffffff" />
          <path
             d="m 292.21205,102.4911 v -5.854004 h 1.67901 v 0.301 c 0,0.106 -0.024,0.3 -0.048,0.479 0.348,-0.563 0.911,-0.924 1.60601,-0.924 0.853,0 1.367,0.396 1.644,0.96 0.42,-0.563 1.06598,-0.96 1.858,-0.96 1.199,0 1.932,0.815 1.932,2.219 v 3.778004 h -1.679 v -3.658004 c 0,-0.636 -0.456,-0.959 -0.912,-0.959 -0.45601,0 -0.91201,0.323 -0.91201,1.007 v 3.610004 h -1.67899 v -3.694004 c 0,-0.6 -0.421,-0.887 -0.86401,-0.887 -0.45599,0 -0.923,0.312 -0.947,0.911 v 3.670004 l -1.678,0.001 0,0 z"
             id="path24284"
             style="fill:#ffffff" />
          <path
             d="m 303.32759,99.913093 c 0.121,0.972997 0.722,1.330997 1.38,1.330997 0.647,0 1.092,-0.3 1.381,-0.72 l 1.114,0.804 c -0.624,0.84 -1.26,1.271 -2.591,1.271 -1.716,0 -2.975,-1.261 -2.975,-3.059997 0,-1.666997 1.128,-3.045997 2.927,-3.045997 1.979,0 2.758,1.415 2.758,3.213997 v 0.204 l -3.994,0.002 0,0 z m 0.049,-1.031 h 2.314 c -0.107,-0.672 -0.623,-1.019997 -1.139,-1.019997 -0.539,0 -1.007,0.335997 -1.175,1.019997 z"
             id="path24302"
             style="fill:#ffffff" />
        </g>
      </g>
    </g>
  </g>
</svg>
