<?xml version="1.0" encoding="UTF-8" standalone="no"?>
<!-- Created with Inkscape (http://www.inkscape.org/) -->

<svg
   xmlns:dc="http://purl.org/dc/elements/1.1/"
   xmlns:cc="http://creativecommons.org/ns#"
   xmlns:rdf="http://www.w3.org/1999/02/22-rdf-syntax-ns#"
   xmlns:svg="http://www.w3.org/2000/svg"
   xmlns="http://www.w3.org/2000/svg"
   version="1.1"
   width="744.09448"
   height="1052.3622"
   id="svg2">
  <defs
     id="defs4" />
  <metadata
     id="metadata7">
    <rdf:RDF>
      <cc:Work
         rdf:about="">
        <dc:format>image/svg+xml</dc:format>
        <dc:type
           rdf:resource="http://purl.org/dc/dcmitype/StillImage" />
        <dc:title></dc:title>
      </cc:Work>
    </rdf:RDF>
  </metadata>
  <g
     id="layer1">
    <text
       x="30.609764"
       y="45.726276"
       id="text2985"
       xml:space="preserve"
       style="font-size:40px;font-style:normal;font-variant:normal;font-weight:normal;font-stretch:normal;line-height:125%;letter-spacing:0px;word-spacing:0px;fill:#000000;fill-opacity:1;stroke:none;font-family:ScratchFont;-inkscape-font-specification:ScratchFont"><tspan
         x="30.609764"
         y="45.726276"
         id="tspan2987">Scratch control blocks</tspan></text>
    <g
       transform="matrix(2.5,0,0,2.5,-571.37854,-621.31117)"
       id="g3112">
      <g
         id="g3114">
        <path
           d="m 266.393,343.668 h 83.998 c 2.762,0 5,-2.238 5,-5 v -12.166 c 0,-2.478 -1.805,-4.519 -4.168,-4.916 h -66.83 l -2.051,2.538 c -0.189,0.234 -0.476,0.371 -0.777,0.371 h -7.758 c -0.302,0 -0.588,-0.137 -0.777,-0.371 l -2.051,-2.538 h -8.089 c -2.761,0 -5,-2.238 -5,-5 v -12.168 c 0,-2.763 2.239,-5 5,-5 h 5.984 2.1 0.005 l 2.051,2.538 c 0.189,0.236 0.477,0.373 0.777,0.373 h 7.758 c 0.303,0 0.588,-0.137 0.777,-0.373 l 2.051,-2.538 h 0.005 65.993 c 2.762,0 5,-2.238 5,-5.001 v -12.166 c 0,-2.762 -2.238,-5 -5,-5 h -83.993 l -2.056,2.545 c -0.189,0.234 -0.476,0.371 -0.777,0.371 h -7.758 c -0.302,0 -0.588,-0.137 -0.776,-0.371 l -2.057,-2.545 h -8.084 c -2.718,0 -4.919,2.172 -4.987,4.875 h -0.013 v 0.125 12.166 32.085 9.438 2.729 c 0,2.763 2.239,5 5,5 h 8.089"
           id="path3116"
           style="fill:#f2af31" />
        <g
           id="g3118">
          <g
             id="g3120">
            <g
               id="g3122">
              <path
                 d="m 258.155,287.448 v 4.365 h -1.702 v -4.365 h -0.841 v -1.488 h 0.841 v -1.055 c 0,-1.416 0.994,-2.23 2.158,-2.23 0.408,0 0.769,0.07 1.067,0.203 l -0.552,1.429 c -0.108,-0.062 -0.24,-0.097 -0.372,-0.097 -0.384,0 -0.601,0.299 -0.601,0.814 v 0.936 h 1.235 v 1.488 h -1.233 z"
                 id="path3124"
                 style="fill:#ffffff" />
              <path
                 d="m 260.208,288.874 c 0,-1.737 1.343,-3.045 3.059,-3.045 1.715,0 3.059,1.308 3.059,3.045 0,1.74 -1.344,3.047 -3.059,3.047 -1.716,0 -3.059,-1.307 -3.059,-3.047 z m 4.474,0 c 0,-0.887 -0.563,-1.547 -1.415,-1.547 -0.864,0 -1.427,0.66 -1.427,1.547 0,0.9 0.587,1.562 1.427,1.562 0.851,-10e-4 1.415,-0.662 1.415,-1.562 z"
                 id="path3126"
                 style="fill:#ffffff" />
              <path
                 d="m 269.183,291.813 h -1.679 v -5.854 h 1.679 v 0.396 c 0,0.131 -0.023,0.348 -0.06,0.576 0.336,-0.638 0.862,-1.117 1.631,-1.117 v 1.645 c -0.875,0 -1.571,0.504 -1.571,1.463 v 2.891 z"
                 id="path3128"
                 style="fill:#ffffff" />
              <path
                 d="m 273.287,289.247 c 0.119,0.972 0.72,1.33 1.379,1.33 0.646,0 1.091,-0.299 1.379,-0.719 l 1.115,0.803 c -0.624,0.84 -1.26,1.271 -2.591,1.271 -1.715,0 -2.975,-1.261 -2.975,-3.06 0,-1.666 1.127,-3.045 2.926,-3.045 1.979,0 2.759,1.414 2.759,3.213 v 0.205 l -3.992,0.002 0,0 z m 0.048,-1.031 h 2.313 c -0.107,-0.672 -0.624,-1.02 -1.139,-1.02 -0.538,0 -1.006,0.336 -1.174,1.02 z"
                 id="path3130"
                 style="fill:#ffffff" />
              <path
                 d="m 279.947,291.813 -2.135,-5.854 h 1.823 l 1.067,3.047 c 0.119,0.336 0.191,0.757 0.203,0.841 0.013,-0.062 0.084,-0.492 0.204,-0.841 l 1.067,-3.047 H 284 l -2.136,5.854 h -1.917 z"
                 id="path3132"
                 style="fill:#ffffff" />
              <path
                 d="m 286.223,289.247 c 0.12,0.972 0.72,1.33 1.379,1.33 0.648,0 1.091,-0.299 1.379,-0.719 l 1.115,0.803 c -0.624,0.84 -1.259,1.271 -2.59,1.271 -1.715,0 -2.976,-1.261 -2.976,-3.06 0,-1.666 1.128,-3.045 2.927,-3.045 1.979,0 2.759,1.414 2.759,3.213 v 0.205 l -3.993,0.002 0,0 z m 0.048,-1.031 h 2.314 c -0.108,-0.672 -0.624,-1.02 -1.14,-1.02 -0.539,0 -1.006,0.336 -1.174,1.02 z"
                 id="path3134"
                 style="fill:#ffffff" />
              <path
                 d="m 293.075,291.813 h -1.68 v -5.854 h 1.68 v 0.396 c 0,0.131 -0.024,0.348 -0.061,0.576 0.336,-0.638 0.863,-1.117 1.631,-1.117 v 1.645 c -0.875,0 -1.57,0.504 -1.57,1.463 v 2.891 z"
                 id="path3136"
                 style="fill:#ffffff" />
            </g>
          </g>
          <g
             id="g3138">
            <polygon
               points="340.312,330.709 343.316,326.475 346.357,330.695 "
               id="polygon3140"
               style="fill:#ffffff" />
            <path
               d="m 346.806,330.541 -3.041,-4.221 c -0.085,-0.117 -0.258,-0.189 -0.448,-0.189 -0.001,0 -0.001,0 -0.001,0 -0.19,0 -0.363,0.073 -0.447,0.192 l -3.006,4.232 c -0.074,0.105 -0.065,0.233 0.025,0.334 0.092,0.102 0.252,0.163 0.424,0.163 10e-4,0 0.002,0 0.002,0 l 2.521,-0.005 v 1.254 c 0,2.832 -3.34,5.139 -7.443,5.139 h -16.353 c -0.276,0 -0.5,0.152 -0.5,0.344 0,0.19 0.224,0.347 0.5,0.347 h 16.353 c 4.655,0 8.443,-2.615 8.443,-5.828 v -1.256 l 2.522,-0.007 c 0.175,0 0.334,-0.063 0.425,-0.164 0.092,-0.102 0.1,-0.228 0.024,-0.335 z m -2.971,-0.186 v -0.367 c 0,-0.189 -0.226,-0.345 -0.5,-0.345 -0.277,0 -0.5,0.154 -0.5,0.345 v 0.368 l -1.722,0.004 2.205,-3.104 2.232,3.096 -1.715,0.003 z"
               id="path3142"
               style="fill:#ffffff" />
          </g>
        </g>
      </g>
    </g>
    <g
       transform="matrix(2.5,0,0,2.5,-195.26882,-944.66617)"
       id="g3262">
      <g
         id="g3264">
        <path
           d="m 254.39,428.76 h 5.984 2.1 0.005 l 2.051,2.539 c 0.189,0.234 0.477,0.372 0.777,0.372 h 7.758 c 0.303,0 0.588,-0.138 0.777,-0.372 l 2.051,-2.539 h 0.005 38.12 27.873 17 c 2.762,0 5,-2.238 5,-5 v -12.167 c 0,-2.763 -2.238,-5 -5,-5 h -17 -27.873 -56.12 l -2.056,2.545 c -0.189,0.234 -0.476,0.372 -0.777,0.372 h -7.758 c -0.302,0 -0.588,-0.138 -0.777,-0.372 l -2.056,-2.545 h -8.084 c -2.718,0 -4.919,2.172 -4.987,4.875 h -0.013 v 0.125 12.167 32.083 9.438 2.729 c 0,2.762 2.239,5 5,5 h 8.089 l 2.051,2.539 c 0.189,0.234 0.477,0.372 0.777,0.372 h 7.757 c 0.304,0 0.588,-0.138 0.778,-0.372 l 2.051,-2.539 h 56.125 27.873 17 c 2.762,0 5,-2.238 5,-5 v -12.167 c 0,-2.478 -1.805,-4.519 -4.168,-4.916 h -17 -28.705 -38.125 l -2.051,2.539 c -0.189,0.234 -0.476,0.372 -0.777,0.372 h -7.758 c -0.302,0 -0.588,-0.138 -0.777,-0.372 l -2.051,-2.539 h -8.089 c -2.761,0 -5,-2.238 -5,-5 V 433.76 c 0,-2.762 2.239,-5 5,-5 z"
           id="path3266"
           style="fill:#f2af31" />
        <g
           id="g3268">
          <g
             id="g3270">
            <g
               id="g3272">
              <path
                 d="m 253.576,412.388 c 0.6,0 1.104,0.504 1.104,1.104 0,0.601 -0.504,1.104 -1.104,1.104 -0.601,0 -1.104,-0.504 -1.104,-1.104 0,-0.6 0.504,-1.104 1.104,-1.104 z m -0.876,8.767 v -5.853 h 1.715 v 5.853 H 252.7 z"
                 id="path3274"
                 style="fill:#ffffff" />
              <path
                 d="m 258.063,416.79 v 4.365 h -1.703 v -4.365 h -0.84 v -1.486 h 0.84 v -1.057 c 0,-1.415 0.995,-2.229 2.159,-2.229 0.408,0 0.769,0.071 1.067,0.203 l -0.552,1.428 c -0.108,-0.06 -0.24,-0.096 -0.372,-0.096 -0.385,0 -0.601,0.3 -0.601,0.814 v 0.937 h 1.235 v 1.486 h -1.233 z"
                 id="path3276"
                 style="fill:#ffffff" />
            </g>
          </g>
          <g
             id="g3278">
            <g
               id="g3280">
              <path
                 d="m 327.096,415.303 v -2.087 h 1.68 v 2.087 h 0.827 v 1.559 h -0.827 v 4.294 h -1.68 v -4.294 h -0.815 v -1.559 h 0.815 z"
                 id="path3282"
                 style="fill:#ffffff" />
              <path
                 d="m 330.779,421.155 v -8.995 h 1.681 v 3.538 c 0,0.097 -0.013,0.252 -0.036,0.408 0.384,-0.552 0.972,-0.948 1.773,-0.948 1.213,0 2.123,0.948 2.123,2.52 v 3.479 h -1.689 v -3.382 c 0,-0.814 -0.518,-1.235 -1.079,-1.235 -0.516,0 -1.021,0.407 -1.092,1.247 v 3.37 l -1.681,-0.002 0,0 z"
                 id="path3284"
                 style="fill:#ffffff" />
              <path
                 d="m 339.191,418.59 c 0.119,0.972 0.72,1.331 1.379,1.331 0.647,0 1.093,-0.301 1.38,-0.721 l 1.114,0.805 c -0.623,0.84 -1.259,1.271 -2.59,1.271 -1.715,0 -2.975,-1.26 -2.975,-3.059 0,-1.667 1.127,-3.046 2.926,-3.046 1.979,0 2.76,1.415 2.76,3.214 v 0.204 l -3.994,10e-4 0,0 z m 0.048,-1.032 h 2.314 c -0.108,-0.672 -0.624,-1.021 -1.14,-1.021 -0.538,0.001 -1.006,0.337 -1.174,1.021 z"
                 id="path3286"
                 style="fill:#ffffff" />
              <path
                 d="m 346.043,421.155 h -1.681 v -5.853 h 1.681 v 0.396 c 0,0.097 -0.013,0.24 -0.036,0.408 0.384,-0.552 0.972,-0.948 1.773,-0.948 1.213,0 2.123,0.948 2.123,2.52 v 3.479 h -1.689 v -3.382 c 0,-0.814 -0.518,-1.235 -1.079,-1.235 -0.504,0 -1.068,0.407 -1.092,1.188 v 3.427 l 0,0 z"
                 id="path3288"
                 style="fill:#ffffff" />
            </g>
          </g>
          <rect
             width="57.215"
             height="14.778"
             x="264.55301"
             y="410.30301"
             id="rect3290"
             style="fill:#ffffff" />
        </g>
      </g>
    </g>
    <g
       transform="matrix(2.5,0,0,2.5,-502.76632,-323.39508)"
       id="g3419">
      <path
         d="m 398.897,262.102 h 38.12 27.873 17 c 2.762,0 5,-2.238 5,-5 v -12.167 c 0,-2.762 -2.238,-5 -5,-5 h -17 -27.873 -56.12 l -2.057,2.545 c -0.188,0.235 -0.476,0.372 -0.776,0.372 h -7.758 c -0.303,0 -0.589,-0.137 -0.777,-0.372 l -2.056,-2.545 h -8.084 c -2.719,0 -4.919,2.172 -4.987,4.875 h -0.013 v 0.125 12.167 31.961 0.122 0.003 9.436 2.729 0.003 32.083 9.438 2.729 c 0,2.762 2.238,5 5,5 h 8.089 l 2.051,2.539 c 0.188,0.235 0.476,0.372 0.777,0.372 h 7.757 c 0.303,0 0.588,-0.137 0.777,-0.372 l 2.052,-2.539 h 56.125 27.873 17 c 2.762,0 5,-2.238 5,-5 v -12.167 c 0,-2.477 -1.805,-4.518 -4.168,-4.916 h -17 -28.705 -38.125 l -2.052,2.539 c -0.188,0.235 -0.476,0.372 -0.776,0.372 h -7.758 c -0.303,0 -0.589,-0.137 -0.777,-0.372 l -2.051,-2.539 h -8.089 c -2.762,0 -5,-2.238 -5,-5 v -12.167 c 0,-2.762 2.238,-5 5,-5 h 5.983 2.101 0.005 l 2.051,2.539 c 0.188,0.235 0.476,0.372 0.777,0.372 h 7.758 c 0.302,0 0.588,-0.137 0.776,-0.372 l 2.052,-2.539 h 0.005 38.12 27.873 17 c 2.762,0 5,-2.238 5,-5 v -0.003 -12.164 -0.003 c 0,-0.329 -0.036,-0.647 -0.097,-0.959 -0.021,-0.103 -0.058,-0.198 -0.083,-0.298 -0.054,-0.202 -0.107,-0.402 -0.186,-0.594 -0.049,-0.123 -0.112,-0.236 -0.17,-0.354 -0.077,-0.153 -0.153,-0.307 -0.244,-0.45 -0.081,-0.128 -0.173,-0.246 -0.265,-0.367 -0.088,-0.114 -0.177,-0.228 -0.274,-0.332 -0.115,-0.127 -0.236,-0.244 -0.365,-0.357 -0.09,-0.08 -0.182,-0.156 -0.275,-0.229 -0.151,-0.117 -0.305,-0.226 -0.469,-0.324 -0.084,-0.051 -0.172,-0.094 -0.259,-0.141 -0.186,-0.098 -0.372,-0.188 -0.57,-0.263 -0.071,-0.027 -0.146,-0.045 -0.219,-0.067 -0.222,-0.07 -0.442,-0.137 -0.676,-0.177 -0.006,-0.002 -0.012,-0.004 -0.018,-0.005 h -0.027 c -0.264,-0.043 -0.529,-0.081 -0.805,-0.081 h -17 -27.873 -38.12 -0.005 l -2.052,2.539 c -0.188,0.235 -0.476,0.372 -0.776,0.372 h -7.758 c -0.303,0 -0.589,-0.137 -0.777,-0.372 l -2.051,-2.539 h -4.581 l -0.065,0.081 h -3.441 c -2.762,0 -5,-2.238 -5,-5 v -12.167 c 0,-2.762 2.238,-5 5,-5 h 5.983 2.101 0.005 l 2.051,2.539 c 0.189,0.235 0.476,0.372 0.777,0.372 h 7.758 c 0.302,0 0.588,-0.137 0.777,-0.372 l 2.051,-2.539 h 0.005 z"
         id="path3421"
         style="fill:#f2af31" />
      <g
         id="g3423">
        <g
           id="g3425">
          <g
             id="g3427">
            <path
               d="m 376.576,245.73 c 0.6,0 1.104,0.504 1.104,1.104 0,0.6 -0.505,1.104 -1.104,1.104 -0.599,0 -1.104,-0.504 -1.104,-1.104 0,-0.6 0.504,-1.104 1.104,-1.104 z m -0.876,8.768 v -5.853 h 1.715 v 5.853 H 375.7 z"
               id="path3429"
               style="fill:#ffffff" />
            <path
               d="m 381.063,250.133 v 4.365 h -1.703 v -4.365 h -0.84 v -1.486 h 0.84 v -1.057 c 0,-1.414 0.995,-2.23 2.159,-2.23 0.407,0 0.768,0.072 1.066,0.203 l -0.552,1.429 c -0.108,-0.06 -0.24,-0.097 -0.372,-0.097 -0.384,0 -0.6,0.301 -0.6,0.816 v 0.936 h 1.234 v 1.486 h -1.232 z"
               id="path3431"
               style="fill:#ffffff" />
          </g>
        </g>
        <g
           id="g3433">
          <g
             id="g3435">
            <path
               d="m 376.971,296.932 c 0.119,0.973 0.72,1.332 1.379,1.332 0.646,0 1.091,-0.301 1.379,-0.721 l 1.115,0.805 c -0.624,0.84 -1.26,1.271 -2.591,1.271 -1.715,0 -2.975,-1.26 -2.975,-3.059 0,-1.668 1.127,-3.047 2.926,-3.047 1.979,0 2.759,1.416 2.759,3.215 v 0.203 l -3.992,0.001 0,0 z m 0.049,-1.032 h 2.313 c -0.107,-0.672 -0.624,-1.02 -1.139,-1.02 -0.539,10e-4 -1.006,0.337 -1.174,1.02 z"
               id="path3437"
               style="fill:#ffffff" />
            <path
               d="m 382.144,299.497 v -8.993 h 1.703 v 8.993 h -1.703 z"
               id="path3439"
               style="fill:#ffffff" />
            <path
               d="m 385.972,297.531 c 0.407,0.47 1.055,0.66 1.618,0.66 0.359,0 0.624,-0.145 0.624,-0.358 0,-0.302 -0.3,-0.443 -0.792,-0.588 -0.911,-0.265 -2.039,-0.769 -2.039,-1.955 0,-1.127 1.092,-1.765 2.075,-1.765 0.889,0 1.512,0.302 2.039,0.853 l -0.936,1.008 c -0.252,-0.275 -0.721,-0.527 -1.067,-0.527 -0.312,0 -0.54,0.146 -0.54,0.371 0,0.289 0.335,0.433 0.863,0.588 0.888,0.265 2.027,0.816 2.027,1.933 0,1.104 -0.947,1.87 -2.268,1.87 -1.056,0 -1.919,-0.301 -2.555,-0.983 l 0.951,-1.107 z"
               id="path3441"
               style="fill:#ffffff" />
            <path
               d="m 392.355,296.932 c 0.12,0.973 0.72,1.332 1.379,1.332 0.646,0 1.091,-0.301 1.379,-0.721 l 1.115,0.805 c -0.624,0.84 -1.259,1.271 -2.59,1.271 -1.716,0 -2.976,-1.26 -2.976,-3.059 0,-1.668 1.127,-3.047 2.926,-3.047 1.979,0 2.76,1.416 2.76,3.215 v 0.203 l -3.993,0.001 0,0 z m 0.048,-1.032 h 2.313 c -0.107,-0.672 -0.623,-1.02 -1.139,-1.02 -0.538,10e-4 -1.006,0.337 -1.174,1.02 z"
               id="path3443"
               style="fill:#ffffff" />
          </g>
        </g>
        <g
           id="g3445">
          <g
             id="g3447">
            <path
               d="m 450.096,248.646 v -2.088 h 1.68 v 2.088 h 0.827 v 1.56 h -0.827 v 4.293 h -1.68 v -4.293 h -0.815 v -1.56 h 0.815 z"
               id="path3449"
               style="fill:#ffffff" />
            <path
               d="m 453.779,254.498 v -8.994 h 1.68 v 3.537 c 0,0.096 -0.012,0.252 -0.035,0.408 0.384,-0.552 0.972,-0.947 1.773,-0.947 1.212,0 2.123,0.947 2.123,2.518 v 3.479 h -1.689 v -3.381 c 0,-0.816 -0.518,-1.236 -1.079,-1.236 -0.517,0 -1.021,0.408 -1.093,1.248 v 3.369 l -1.68,-0.001 0,0 z"
               id="path3451"
               style="fill:#ffffff" />
            <path
               d="m 462.191,251.932 c 0.119,0.973 0.719,1.332 1.379,1.332 0.647,0 1.092,-0.301 1.379,-0.721 l 1.115,0.805 c -0.623,0.84 -1.259,1.271 -2.59,1.271 -1.715,0 -2.976,-1.261 -2.976,-3.06 0,-1.668 1.128,-3.047 2.927,-3.047 1.979,0 2.76,1.416 2.76,3.215 v 0.203 l -3.994,0.002 0,0 z m 0.048,-1.032 h 2.314 c -0.108,-0.672 -0.624,-1.02 -1.141,-1.02 -0.537,0.001 -1.005,0.337 -1.173,1.02 z"
               id="path3453"
               style="fill:#ffffff" />
            <path
               d="m 469.044,254.498 h -1.681 v -5.853 h 1.681 v 0.396 c 0,0.096 -0.013,0.239 -0.036,0.408 0.384,-0.552 0.972,-0.947 1.773,-0.947 1.212,0 2.123,0.947 2.123,2.518 v 3.479 h -1.689 v -3.381 c 0,-0.816 -0.518,-1.236 -1.079,-1.236 -0.504,0 -1.068,0.408 -1.093,1.188 l 10e-4,3.428 0,0 z"
               id="path3455"
               style="fill:#ffffff" />
          </g>
        </g>
        <rect
           width="57.215"
           height="14.779"
           x="387.55301"
           y="243.645"
           id="rect3457"
           style="fill:#ffffff" />
      </g>
    </g>
    <g
       transform="matrix(2.5,0,0,2.5,-571.37854,230.02742)"
       id="g3583">
      <g
         id="g3585">
        <path
           d="m 351.223,62.9 h -66.83 l -2.051,2.539 c -0.189,0.234 -0.476,0.372 -0.777,0.372 h -7.758 c -0.302,0 -0.588,-0.138 -0.777,-0.372 L 270.979,62.9 h -8.089 c -2.761,0 -5,-2.238 -5,-5 V 45.733 c 0,-2.762 2.239,-5 5,-5 h 5.984 2.1 0.005 l 2.051,2.539 c 0.189,0.234 0.477,0.372 0.777,0.372 h 7.758 c 0.303,0 0.588,-0.138 0.777,-0.372 l 2.051,-2.539 h 0.005 65.993 c 2.762,0 5,-2.238 5,-5 V 23.566 c 0,-2.762 -2.238,-5 -5,-5 h -83.993 l -2.056,2.545 c -0.189,0.235 -0.476,0.372 -0.777,0.372 h -7.758 c -0.302,0 -0.588,-0.137 -0.776,-0.372 l -2.057,-2.545 h -8.084 c -2.718,0 -4.919,2.172 -4.987,4.875 h -0.013 v 0.125 12.167 32.083 9.438 2.729 c 0,2.762 2.239,5 5,5 h 8.089 l 2.052,2.539 c 0.188,0.234 0.476,0.372 0.776,0.372 h 7.757 c 0.304,0 0.588,-0.138 0.778,-0.372 l 2.051,-2.539 h 83.998 c 2.762,0 5,-2.238 5,-5 V 67.816 c 0,-2.476 -1.805,-4.517 -4.168,-4.916 z"
           id="path3587"
           style="fill:#f2af31" />
        <g
           id="g3589">
          <g
             id="g3591">
            <g
               id="g3593">
              <path
                 d="m 257.819,33.129 h -1.679 v -5.853 h 1.679 v 0.396 c 0,0.133 -0.023,0.349 -0.06,0.576 0.336,-0.636 0.863,-1.116 1.631,-1.116 v 1.645 c -0.875,0 -1.571,0.504 -1.571,1.463 v 2.889 z"
                 id="path3595"
                 style="fill:#ffffff" />
              <path
                 d="m 261.923,30.563 c 0.12,0.972 0.72,1.331 1.379,1.331 0.648,0 1.091,-0.3 1.379,-0.721 l 1.115,0.805 c -0.624,0.84 -1.259,1.271 -2.59,1.271 -1.715,0 -2.976,-1.26 -2.976,-3.059 0,-1.667 1.127,-3.046 2.926,-3.046 1.979,0 2.76,1.415 2.76,3.214 v 0.204 l -3.993,10e-4 0,0 z m 0.048,-1.032 h 2.314 c -0.108,-0.672 -0.624,-1.02 -1.14,-1.02 -0.539,0.001 -1.006,0.337 -1.174,1.02 z"
                 id="path3597"
                 style="fill:#ffffff" />
              <path
                 d="m 267.096,36.127 v -8.851 h 1.679 v 0.588 c 0.456,-0.48 1.056,-0.72 1.703,-0.72 1.619,0 2.542,1.475 2.542,3.034 0,1.583 -0.888,3.069 -2.531,3.069 -0.684,0 -1.318,-0.336 -1.774,-0.888 v 3.766 l -1.619,0.002 0,0 z m 4.258,-5.925 c 0,-0.863 -0.432,-1.559 -1.308,-1.559 -0.779,0 -1.295,0.646 -1.295,1.547 0,0.804 0.526,1.571 1.295,1.571 0.864,0.001 1.308,-0.707 1.308,-1.559 z"
                 id="path3599"
                 style="fill:#ffffff" />
              <path
                 d="m 275.531,30.563 c 0.12,0.972 0.721,1.331 1.38,1.331 0.646,0 1.091,-0.3 1.379,-0.721 l 1.114,0.805 c -0.624,0.84 -1.259,1.271 -2.59,1.271 -1.715,0 -2.975,-1.26 -2.975,-3.059 0,-1.667 1.127,-3.046 2.926,-3.046 1.979,0 2.759,1.415 2.759,3.214 v 0.204 l -3.993,10e-4 0,0 z m 0.048,-1.032 h 2.313 c -0.107,-0.672 -0.624,-1.02 -1.139,-1.02 -0.538,0.001 -1.006,0.337 -1.174,1.02 z"
                 id="path3601"
                 style="fill:#ffffff" />
              <path
                 d="m 286.053,33.129 c -0.72,0 -1.211,-0.384 -1.475,-0.994 -0.336,0.563 -1.043,1.114 -2.087,1.114 -1.296,0 -1.955,-0.84 -1.955,-1.715 0,-0.972 0.792,-1.919 2.423,-1.919 0.492,0 0.971,0.06 1.415,0.145 v -0.192 c 0,-0.575 -0.396,-0.959 -1.043,-0.959 -0.456,0 -0.828,0.204 -1.067,0.588 l -1.175,-0.876 c 0,0 0.671,-1.199 2.327,-1.199 1.631,0 2.626,0.973 2.626,2.375 v 1.764 c 0,0.216 0.144,0.348 0.359,0.348 h 0.24 v 1.522 l -0.588,-0.002 0,0 z m -1.679,-2.327 c -0.313,-0.061 -0.696,-0.119 -0.923,-0.119 -0.685,0 -1.212,0.228 -1.212,0.707 0,0.323 0.24,0.54 0.685,0.54 0.706,0 1.234,-0.492 1.45,-1.128 z"
                 id="path3603"
                 style="fill:#ffffff" />
              <path
                 d="m 288.107,27.276 v -2.087 h 1.68 v 2.087 h 0.827 v 1.559 h -0.827 v 4.294 h -1.68 v -4.294 h -0.814 v -1.559 h 0.814 z"
                 id="path3605"
                 style="fill:#ffffff" />
            </g>
          </g>
          <path
             d="m 297.388,29.666 c 0,4.244 3.439,7.685 7.684,7.685 h 3.152 c 4.242,0 7.685,-3.439 7.685,-7.685 0,-4.242 -3.441,-7.684 -7.685,-7.684 h -3.152 c -4.245,0 -7.684,3.442 -7.684,7.684 0,0 0,-4.242 0,0 z"
             id="path3607"
             style="fill:#ffffff" />
          <g
             id="g3609">
            <polygon
               points="341.18,72.024 344.185,67.79 347.226,72.011 "
               id="polygon3611"
               style="fill:#ffffff" />
            <path
               d="m 347.674,71.856 -3.041,-4.221 c -0.085,-0.117 -0.258,-0.19 -0.448,-0.19 h -10e-4 c -0.19,0.001 -0.364,0.075 -0.448,0.193 l -3.005,4.232 c -0.075,0.105 -0.065,0.234 0.025,0.334 0.092,0.102 0.252,0.162 0.424,0.162 10e-4,0 0.002,0 0.002,0 l 2.521,-0.004 v 1.254 c 0,2.832 -3.341,5.138 -7.443,5.138 h -16.353 c -0.276,0 -0.5,0.153 -0.5,0.346 0,0.188 0.224,0.345 0.5,0.345 h 16.353 c 4.655,0 8.443,-2.614 8.443,-5.827 v -1.257 l 2.522,-0.005 c 0.174,-10e-4 0.334,-0.063 0.424,-0.164 0.093,-0.101 0.101,-0.228 0.025,-0.336 z m -2.971,-0.185 v -0.366 c 0,-0.189 -0.226,-0.346 -0.5,-0.346 -0.277,0 -0.5,0.155 -0.5,0.346 v 0.368 l -1.722,0.005 2.205,-3.106 2.232,3.097 -1.715,0.002 z"
               id="path3613"
               style="fill:#ffffff" />
          </g>
        </g>
      </g>
    </g>
    <g
       transform="matrix(2.5,0,0,2.5,-221.51882,223.1817)"
       id="g3784">
      <g
         id="g3786">
        <path
           d="m 243.89,170.075 h 5.984 2.1 0.005 l 2.051,2.539 c 0.189,0.236 0.477,0.373 0.777,0.373 h 7.758 c 0.303,0 0.588,-0.137 0.777,-0.373 l 2.051,-2.539 h 0.005 29.983 8.137 21 6.873 17 4 17 c 2.762,0 5,-2.238 5,-5 v -12.166 c 0,-2.762 -2.238,-5 -5,-5 h -17 -4 -17 -6.873 -21 -8.137 -47.983 l -2.056,2.545 c -0.189,0.234 -0.476,0.371 -0.777,0.371 h -7.758 c -0.302,0 -0.588,-0.137 -0.777,-0.371 l -2.056,-2.545 h -8.084 c -2.718,0 -4.919,2.172 -4.987,4.875 h -0.013 v 0.125 12.166 32.084 9.438 2.729 c 0,2.762 2.239,5 5,5 h 8.089 l 2.051,2.539 c 0.189,0.236 0.477,0.373 0.777,0.373 h 7.757 c 0.304,0 0.588,-0.137 0.778,-0.373 l 2.051,-2.539 h 47.988 8.137 21 6.873 17 4 17 c 2.762,0 5,-2.238 5,-5 V 197.16 c 0,-2.477 -1.805,-4.518 -4.168,-4.916 h -17 -4 -17 -7.705 -21 -8.137 -29.988 l -2.051,2.539 c -0.189,0.234 -0.476,0.371 -0.777,0.371 h -7.758 c -0.302,0 -0.588,-0.137 -0.777,-0.371 l -2.051,-2.539 h -8.089 c -2.761,0 -5,-2.238 -5,-5 v -12.168 c 0,-2.763 2.239,-5.001 5,-5.001 z"
           id="path3788"
           style="fill:#f2af31" />
        <g
           id="g3790">
          <g
             id="g3792">
            <g
               id="g3794">
              <path
                 d="m 243.819,162.472 h -1.679 v -5.854 h 1.679 v 0.396 c 0,0.131 -0.023,0.348 -0.06,0.575 0.336,-0.637 0.863,-1.116 1.631,-1.116 v 1.645 c -0.875,0 -1.571,0.504 -1.571,1.463 v 2.891 z"
                 id="path3796"
                 style="fill:#ffffff" />
              <path
                 d="m 247.923,159.905 c 0.12,0.971 0.72,1.33 1.379,1.33 0.648,0 1.091,-0.299 1.379,-0.719 l 1.115,0.803 c -0.624,0.84 -1.259,1.271 -2.59,1.271 -1.715,0 -2.976,-1.26 -2.976,-3.059 0,-1.666 1.127,-3.045 2.927,-3.045 1.979,0 2.759,1.414 2.759,3.213 v 0.205 l -3.993,0.001 0,0 z m 0.048,-1.031 h 2.314 c -0.108,-0.672 -0.624,-1.02 -1.14,-1.02 -0.539,0 -1.006,0.336 -1.174,1.02 z"
                 id="path3798"
                 style="fill:#ffffff" />
              <path
                 d="m 253.096,165.47 v -8.853 h 1.679 v 0.588 c 0.456,-0.479 1.056,-0.719 1.703,-0.719 1.619,0 2.542,1.475 2.542,3.033 0,1.584 -0.888,3.069 -2.531,3.069 -0.684,0 -1.318,-0.336 -1.774,-0.887 v 3.767 l -1.619,0.002 0,0 z m 4.258,-5.926 c 0,-0.862 -0.432,-1.559 -1.308,-1.559 -0.779,0 -1.295,0.647 -1.295,1.547 0,0.805 0.526,1.572 1.295,1.572 0.864,0 1.308,-0.708 1.308,-1.56 z"
                 id="path3800"
                 style="fill:#ffffff" />
              <path
                 d="m 261.531,159.905 c 0.12,0.971 0.721,1.33 1.38,1.33 0.646,0 1.091,-0.299 1.379,-0.719 l 1.114,0.803 c -0.624,0.84 -1.259,1.271 -2.59,1.271 -1.715,0 -2.975,-1.26 -2.975,-3.059 0,-1.666 1.127,-3.045 2.926,-3.045 1.979,0 2.759,1.414 2.759,3.213 v 0.205 l -3.993,0.001 0,0 z m 0.048,-1.031 h 2.313 c -0.107,-0.672 -0.624,-1.02 -1.139,-1.02 -0.538,0 -1.006,0.336 -1.174,1.02 z"
                 id="path3802"
                 style="fill:#ffffff" />
              <path
                 d="m 272.053,162.472 c -0.72,0 -1.211,-0.386 -1.475,-0.996 -0.336,0.563 -1.043,1.114 -2.087,1.114 -1.296,0 -1.955,-0.84 -1.955,-1.715 0,-0.971 0.792,-1.918 2.423,-1.918 0.492,0 0.971,0.06 1.415,0.144 v -0.191 c 0,-0.576 -0.396,-0.959 -1.043,-0.959 -0.456,0 -0.828,0.203 -1.067,0.588 l -1.175,-0.877 c 0,0 0.671,-1.199 2.327,-1.199 1.631,0 2.626,0.974 2.626,2.375 v 1.765 c 0,0.215 0.144,0.348 0.359,0.348 h 0.24 v 1.523 l -0.588,-0.002 0,0 z m -1.679,-2.328 c -0.313,-0.06 -0.696,-0.119 -0.923,-0.119 -0.685,0 -1.212,0.229 -1.212,0.707 0,0.324 0.24,0.541 0.685,0.541 0.706,-0.001 1.234,-0.493 1.45,-1.129 z"
                 id="path3804"
                 style="fill:#ffffff" />
              <path
                 d="m 274.107,156.618 v -2.086 h 1.68 v 2.086 h 0.827 v 1.56 h -0.827 v 4.295 h -1.68 v -4.295 h -0.814 v -1.56 h 0.814 z"
                 id="path3806"
                 style="fill:#ffffff" />
              <path
                 d="m 286.885,162.472 h -1.679 v -0.396 c 0,-0.096 0.012,-0.24 0.036,-0.408 -0.385,0.554 -0.984,0.947 -1.775,0.947 -1.211,0 -2.123,-0.947 -2.123,-2.518 v -3.479 h 1.691 v 3.383 c 0,0.814 0.516,1.234 1.08,1.234 0.503,0 1.055,-0.396 1.091,-1.188 v -3.43 h 1.679 v 5.855 l 0,0 z"
                 id="path3808"
                 style="fill:#ffffff" />
              <path
                 d="m 290.103,162.472 h -1.679 v -5.854 h 1.679 v 0.396 c 0,0.096 -0.012,0.239 -0.036,0.407 0.385,-0.553 0.973,-0.948 1.775,-0.948 1.211,0 2.123,0.948 2.123,2.52 v 3.479 h -1.691 v -3.384 c 0,-0.813 -0.516,-1.233 -1.08,-1.233 -0.504,0 -1.066,0.406 -1.091,1.188 v 3.429 l 0,0 z"
                 id="path3810"
                 style="fill:#ffffff" />
              <path
                 d="m 295.959,156.618 v -2.086 h 1.679 v 2.086 h 0.828 v 1.56 h -0.828 v 4.295 h -1.679 v -4.295 h -0.815 v -1.56 h 0.815 z"
                 id="path3812"
                 style="fill:#ffffff" />
              <path
                 d="m 300.578,153.704 c 0.6,0 1.104,0.504 1.104,1.104 0,0.6 -0.504,1.104 -1.104,1.104 -0.601,0 -1.104,-0.504 -1.104,-1.104 0,-0.6 0.505,-1.104 1.104,-1.104 z m -0.875,8.768 v -5.854 h 1.715 v 5.854 h -1.715 z"
                 id="path3814"
                 style="fill:#ffffff" />
              <path
                 d="m 303.051,162.472 v -8.996 h 1.703 v 8.996 h -1.703 z"
                 id="path3816"
                 style="fill:#ffffff" />
            </g>
          </g>
          <rect
             width="57.215"
             height="14.779"
             x="309.05301"
             y="151.618"
             id="rect3818"
             style="fill:#ffffff" />
          <g
             id="g3820">
            <polygon
               points="365.479,201.062 359.433,201.073 362.438,196.841 "
               id="polygon3822"
               style="fill:#ffffff" />
            <path
               d="m 365.927,200.907 -3.041,-4.221 c -0.085,-0.117 -0.258,-0.191 -0.448,-0.191 -10e-4,0 -10e-4,0 -10e-4,0 -0.19,0 -0.364,0.074 -0.448,0.193 l -3.005,4.231 c -0.074,0.107 -0.065,0.234 0.025,0.334 0.092,0.103 0.252,0.164 0.424,0.164 0.001,0 0.002,0 0.002,0 l 2.521,-0.006 v 1.254 c 0,2.832 -3.34,5.14 -7.443,5.14 H 338.16 c -0.276,0 -0.5,0.151 -0.5,0.344 0,0.191 0.224,0.346 0.5,0.346 h 16.353 c 4.655,0 8.443,-2.615 8.443,-5.828 v -1.256 l 2.522,-0.006 c 0.174,0 0.334,-0.063 0.424,-0.164 0.093,-0.101 0.101,-0.226 0.025,-0.334 z m -2.971,-0.185 v -0.367 c 0,-0.191 -0.226,-0.347 -0.5,-0.347 -0.277,0 -0.5,0.154 -0.5,0.347 v 0.367 l -1.722,0.004 2.205,-3.105 2.232,3.096 -1.715,0.005 z"
               id="path3824"
               style="fill:#ffffff" />
          </g>
        </g>
      </g>
    </g>
    <g
       transform="matrix(2.5,0,0,2.5,-603.88104,-1177.9333)"
       id="g3953">
      <g
         id="g3955">
        <path
           d="m 337.39,708.355 h -0.588 -6.133 -0.279 -0.588 -4.785 -1.348 -7.319 -36.951 l -2.056,2.545 c -0.19,0.234 -0.476,0.371 -0.778,0.371 h -7.757 c -0.303,0 -0.588,-0.137 -0.778,-0.371 l -2.056,-2.545 h -8.083 c -2.762,0 -5,2.238 -5,5 v 12.166 c 0,2.762 2.238,5 5,5 h 8.088 l 2.051,2.539 c 0.19,0.236 0.477,0.373 0.778,0.373 h 7.757 c 0.304,0 0.588,-0.137 0.778,-0.373 l 2.051,-2.539 h 36.956 7.319 1.348 4.785 0.588 0.279 6.133 0.588 c 2.762,0 5,-2.238 5,-5 v -12.166 c 0,-2.761 -2.239,-5 -5,-5 z"
           id="path3957"
           style="fill:#f2af31" />
        <g
           id="g3959">
          <g
             id="g3961">
            <g
               id="g3963">
              <path
                 d="m 269.564,717.271 -2.015,5.852 h -1.907 l -0.875,-2.733 c -0.06,-0.168 -0.12,-0.479 -0.132,-0.539 l -0.145,0.539 -0.898,2.733 h -1.907 c -0.66,-1.942 -1.319,-3.896 -1.967,-5.852 h 1.811 l 0.911,3.225 c 0.084,0.324 0.168,0.709 0.192,0.781 0.012,-0.061 0.096,-0.432 0.204,-0.781 l 0.946,-3.225 h 1.703 l 0.924,3.225 c 0.096,0.351 0.168,0.744 0.18,0.793 0.012,-0.049 0.107,-0.432 0.216,-0.793 l 0.936,-3.225 h 1.823 z"
                 id="path3965"
                 style="fill:#ffffff" />
              <path
                 d="m 275.219,723.123 c -0.72,0 -1.211,-0.383 -1.475,-0.993 -0.336,0.563 -1.043,1.114 -2.088,1.114 -1.295,0 -1.954,-0.84 -1.954,-1.715 0,-0.973 0.792,-1.92 2.423,-1.92 0.492,0 0.971,0.061 1.415,0.146 v -0.193 c 0,-0.574 -0.396,-0.959 -1.043,-0.959 -0.456,0 -0.828,0.205 -1.067,0.588 l -1.175,-0.875 c 0,0 0.671,-1.199 2.327,-1.199 1.631,0 2.626,0.972 2.626,2.375 v 1.763 c 0,0.217 0.144,0.348 0.359,0.348 h 0.24 v 1.523 h -0.589 v -0.003 z m -1.679,-2.325 c -0.313,-0.062 -0.696,-0.119 -0.923,-0.119 -0.685,0 -1.212,0.227 -1.212,0.707 0,0.323 0.24,0.539 0.685,0.539 0.706,0 1.234,-0.493 1.45,-1.127 z"
                 id="path3967"
                 style="fill:#ffffff" />
              <path
                 d="m 277.753,714.355 c 0.6,0 1.104,0.504 1.104,1.104 0,0.601 -0.504,1.104 -1.104,1.104 -0.601,0 -1.104,-0.504 -1.104,-1.104 0,-0.6 0.504,-1.104 1.104,-1.104 z m -0.876,8.768 v -5.852 h 1.715 v 5.852 h -1.715 z"
                 id="path3969"
                 style="fill:#ffffff" />
              <path
                 d="m 280.681,717.271 v -2.088 h 1.679 v 2.088 h 0.828 v 1.559 h -0.828 v 4.293 h -1.679 v -4.293 h -0.814 v -1.559 h 0.814 z"
                 id="path3971"
                 style="fill:#ffffff" />
            </g>
          </g>
          <g
             id="g3973">
            <g
               id="g3975">
              <path
                 d="m 312.953,721.156 c 0.407,0.469 1.056,0.66 1.618,0.66 0.359,0 0.624,-0.145 0.624,-0.359 0,-0.301 -0.3,-0.442 -0.792,-0.588 -0.91,-0.264 -2.039,-0.768 -2.039,-1.955 0,-1.127 1.093,-1.764 2.075,-1.764 0.889,0 1.512,0.301 2.039,0.852 l -0.936,1.009 c -0.252,-0.275 -0.721,-0.527 -1.067,-0.527 -0.313,0 -0.539,0.146 -0.539,0.371 0,0.289 0.335,0.432 0.863,0.588 0.887,0.264 2.026,0.816 2.026,1.932 0,1.104 -0.947,1.871 -2.268,1.871 -1.056,0 -1.919,-0.301 -2.555,-0.983 l 0.951,-1.107 z"
                 id="path3977"
                 style="fill:#ffffff" />
              <path
                 d="m 319.336,720.557 c 0.121,0.973 0.721,1.332 1.38,1.332 0.646,0 1.091,-0.301 1.38,-0.722 l 1.115,0.806 c -0.624,0.84 -1.26,1.271 -2.591,1.271 -1.717,0 -2.976,-1.26 -2.976,-3.059 0,-1.668 1.128,-3.047 2.927,-3.047 1.979,0 2.759,1.416 2.759,3.215 v 0.203 l -3.994,10e-4 0,0 z m 0.049,-1.032 h 2.314 c -0.107,-0.672 -0.623,-1.02 -1.14,-1.02 -0.538,0.002 -1.006,0.338 -1.174,1.02 z"
                 id="path3979"
                 style="fill:#ffffff" />
              <path
                 d="m 328.323,719.25 c -0.3,-0.323 -0.563,-0.553 -1.044,-0.553 -0.778,0 -1.331,0.625 -1.331,1.488 0,0.898 0.553,1.463 1.331,1.463 0.48,0 0.841,-0.264 1.093,-0.623 l 1.26,0.959 c -0.601,0.814 -1.32,1.248 -2.353,1.248 -1.763,0 -3.01,-1.344 -3.01,-3.047 0,-1.703 1.247,-3.047 2.998,-3.047 0.924,0 1.655,0.396 2.219,1.031 l -1.163,1.081 z"
                 id="path3981"
                 style="fill:#ffffff" />
              <path
                 d="m 331.397,721.156 c 0.407,0.469 1.057,0.66 1.619,0.66 0.359,0 0.624,-0.145 0.624,-0.359 0,-0.301 -0.301,-0.442 -0.792,-0.588 -0.911,-0.264 -2.039,-0.768 -2.039,-1.955 0,-1.127 1.091,-1.764 2.075,-1.764 0.887,0 1.511,0.301 2.039,0.852 l -0.937,1.009 c -0.252,-0.275 -0.721,-0.527 -1.067,-0.527 -0.313,0 -0.539,0.146 -0.539,0.371 0,0.289 0.336,0.432 0.863,0.588 0.888,0.264 2.026,0.816 2.026,1.932 0,1.104 -0.946,1.871 -2.268,1.871 -1.056,0 -1.918,-0.301 -2.556,-0.983 l 0.952,-1.107 z"
                 id="path3983"
                 style="fill:#ffffff" />
            </g>
          </g>
          <path
             d="m 288.771,719.41 c 0,4.244 3.439,7.685 7.685,7.685 h 3.151 c 4.242,0 7.685,-3.439 7.685,-7.685 0,-4.242 -3.441,-7.684 -7.685,-7.684 h -3.151 c -4.245,10e-4 -7.685,3.443 -7.685,7.684 0,0 0,-4.241 0,0 z"
             id="path3985"
             style="fill:#ffffff" />
        </g>
      </g>
    </g>
    <g
       transform="matrix(2.5,0,0,2.5,-553.87854,-1495.9809)"
       id="g4108">
      <g
         id="g4110">
        <path
           d="m 357.391,794.619 h -0.588 -6.133 -0.279 -0.588 -4.785 -1.348 -7.32 -18.959 -0.588 -6.133 -0.279 -0.588 -1.031 -3.754 -1.348 -7.321 -36.951 l -2.055,2.545 c -0.191,0.234 -0.477,0.371 -0.779,0.371 h -7.756 c -0.303,0 -0.588,-0.137 -0.779,-0.371 l -2.055,-2.545 h -8.084 c -2.762,0 -5,2.238 -5,5 v 12.166 c 0,2.763 2.238,5 5,5 h 8.088 l 2.051,2.539 c 0.191,0.236 0.478,0.373 0.779,0.373 h 7.756 c 0.304,0 0.588,-0.137 0.779,-0.373 l 2.051,-2.539 h 36.955 7.321 1.348 3.754 1.031 0.588 0.279 6.133 0.588 18.959 7.32 1.348 4.785 0.588 0.279 6.133 0.588 c 2.762,0 5,-2.237 5,-5 v -12.166 c 0,-2.762 -2.239,-5 -5,-5 z"
           id="path4112"
           style="fill:#f2af31" />
        <g
           id="g4114">
          <rect
             width="57.216999"
             height="14.779"
             x="297.03"
             y="798.53699"
             id="rect4116"
             style="fill:#ffffff" />
          <g
             id="g4118">
            <g
               id="g4120">
              <path
                 d="m 251,803.537 -2.016,5.854 h -1.906 l -0.875,-2.734 c -0.061,-0.168 -0.12,-0.479 -0.133,-0.54 l -0.144,0.54 -0.899,2.734 h -1.906 c -0.66,-1.943 -1.319,-3.897 -1.968,-5.854 h 1.812 l 0.911,3.227 c 0.084,0.324 0.168,0.708 0.191,0.78 0.013,-0.062 0.097,-0.433 0.204,-0.78 l 0.947,-3.227 h 1.703 l 0.923,3.227 c 0.096,0.349 0.168,0.744 0.18,0.792 0.013,-0.048 0.108,-0.433 0.217,-0.792 l 0.936,-3.227 H 251 z"
                 id="path4122"
                 style="fill:#ffffff" />
              <path
                 d="m 256.654,809.39 c -0.72,0 -1.211,-0.384 -1.475,-0.995 -0.336,0.563 -1.043,1.115 -2.087,1.115 -1.295,0 -1.955,-0.84 -1.955,-1.715 0,-0.973 0.792,-1.919 2.423,-1.919 0.492,0 0.971,0.06 1.415,0.144 v -0.192 c 0,-0.574 -0.396,-0.959 -1.043,-0.959 -0.456,0 -0.828,0.204 -1.067,0.588 l -1.175,-0.876 c 0,0 0.671,-1.198 2.327,-1.198 1.631,0 2.626,0.972 2.626,2.375 v 1.763 c 0,0.216 0.145,0.348 0.36,0.348 h 0.24 v 1.523 l -0.589,-0.002 0,0 z m -1.679,-2.327 c -0.312,-0.06 -0.696,-0.119 -0.923,-0.119 -0.684,0 -1.211,0.229 -1.211,0.707 0,0.324 0.24,0.54 0.684,0.54 0.706,-10e-4 1.234,-0.493 1.45,-1.128 z"
                 id="path4124"
                 style="fill:#ffffff" />
              <path
                 d="m 259.188,800.622 c 0.601,0 1.104,0.505 1.104,1.104 0,0.599 -0.504,1.104 -1.104,1.104 -0.6,0 -1.104,-0.504 -1.104,-1.104 0,-0.6 0.504,-1.104 1.104,-1.104 z m -0.875,8.768 v -5.854 h 1.715 v 5.854 h -1.715 z"
                 id="path4126"
                 style="fill:#ffffff" />
              <path
                 d="m 262.116,803.537 v -2.087 h 1.679 v 2.087 h 0.828 v 1.56 h -0.828 v 4.294 h -1.679 v -4.294 h -0.815 v -1.56 h 0.815 z"
                 id="path4128"
                 style="fill:#ffffff" />
              <path
                 d="m 274.894,809.39 h -1.679 v -0.396 c 0,-0.097 0.012,-0.239 0.036,-0.407 -0.384,0.552 -0.984,0.946 -1.775,0.946 -1.211,0 -2.123,-0.946 -2.123,-2.519 v -3.479 h 1.691 v 3.383 c 0,0.814 0.516,1.234 1.08,1.234 0.503,0 1.055,-0.396 1.091,-1.188 v -3.431 h 1.679 v 5.857 l 0,0 z"
                 id="path4130"
                 style="fill:#ffffff" />
              <path
                 d="m 278.111,809.39 h -1.679 v -5.854 h 1.679 v 0.396 c 0,0.096 -0.012,0.24 -0.035,0.408 0.384,-0.553 0.972,-0.948 1.774,-0.948 1.211,0 2.123,0.948 2.123,2.519 v 3.479 h -1.691 v -3.382 c 0,-0.815 -0.516,-1.235 -1.079,-1.235 -0.505,0 -1.067,0.407 -1.092,1.188 v 3.429 l 0,0 z"
                 id="path4132"
                 style="fill:#ffffff" />
              <path
                 d="m 283.968,803.537 v -2.087 h 1.679 v 2.087 h 0.828 v 1.56 h -0.828 v 4.294 h -1.679 v -4.294 h -0.815 v -1.56 h 0.815 z"
                 id="path4134"
                 style="fill:#ffffff" />
              <path
                 d="m 288.587,800.622 c 0.6,0 1.104,0.505 1.104,1.104 0,0.599 -0.504,1.104 -1.104,1.104 -0.601,0 -1.104,-0.504 -1.104,-1.104 0,-0.6 0.505,-1.104 1.104,-1.104 z m -0.875,8.768 v -5.854 h 1.715 v 5.854 h -1.715 z"
                 id="path4136"
                 style="fill:#ffffff" />
              <path
                 d="m 291.06,809.39 v -8.995 h 1.703 v 8.995 h -1.703 z"
                 id="path4138"
                 style="fill:#ffffff" />
            </g>
          </g>
        </g>
      </g>
    </g>
  </g>
</svg>
