<?xml version="1.0" encoding="UTF-8" standalone="no"?>
<!-- Created with Inkscape (http://www.inkscape.org/) -->

<svg
   xmlns:dc="http://purl.org/dc/elements/1.1/"
   xmlns:cc="http://creativecommons.org/ns#"
   xmlns:rdf="http://www.w3.org/1999/02/22-rdf-syntax-ns#"
   xmlns:svg="http://www.w3.org/2000/svg"
   xmlns="http://www.w3.org/2000/svg"
   version="1.1"
   width="210mm"
   height="297mm"
   id="svg7133">
  <defs
     id="defs3" />
  <metadata
     id="metadata4">
    <rdf:RDF>
      <cc:Work
         rdf:about="">
        <dc:format>image/svg+xml</dc:format>
        <dc:type
           rdf:resource="http://purl.org/dc/dcmitype/StillImage" />
        <dc:title></dc:title>
      </cc:Work>
    </rdf:RDF>
  </metadata>
  <g
     id="layer1">
    <text
       x="30.609764"
       y="45.726276"
       id="text2985"
       xml:space="preserve"
       style="font-size:40px;font-style:normal;font-variant:normal;font-weight:normal;font-stretch:normal;line-height:125%;letter-spacing:0px;word-spacing:0px;fill:#000000;fill-opacity:1;stroke:none;font-family:ScratchFont;-inkscape-font-specification:ScratchFont"><tspan
         x="30.609764"
         y="45.726276"
         id="tspan2987">Scratch event blocks</tspan></text>
    <g
       transform="matrix(2.5,0,0,2.5,-561.52104,-26.991929)"
       id="g7701">
      <g
         id="g7703">
        <path
           d="m 346.449,52.864 h -30.882 c -6.575,-3.777 -19.768,-9.5 -39.37,-9.5 -27.889,0 -39.178,10.901 -40.169,11.916 h -0.081 v 2.584 2.417 15.333 c 0,2.762 2.239,5 5,5 h 8.083 l 2.057,2.545 c 0.189,0.235 0.476,0.372 0.778,0.372 h 7.757 c 0.302,0 0.588,-0.137 0.777,-0.372 l 2.057,-2.545 h 83.993 c 2.762,0 5,-2.238 5,-5 v -17.75 c 0,-2.761 -2.238,-5 -5,-5 z"
           id="path7705"
           style="fill:#c88330" />
        <g
           id="g7707">
          <g
             id="g7709">
            <g
               id="g7711">
              <path
                 d="m 251.546,63.735 -2.016,5.853 h -1.906 l -0.875,-2.733 c -0.061,-0.168 -0.12,-0.479 -0.132,-0.54 l -0.145,0.54 -0.898,2.733 h -1.907 c -0.66,-1.942 -1.319,-3.896 -1.967,-5.853 h 1.811 l 0.911,3.226 c 0.084,0.324 0.168,0.708 0.191,0.78 0.013,-0.061 0.097,-0.432 0.204,-0.78 l 0.947,-3.226 h 1.703 l 0.923,3.226 c 0.096,0.35 0.168,0.744 0.18,0.792 0.013,-0.048 0.108,-0.432 0.217,-0.792 l 0.936,-3.226 h 1.823 z"
                 id="path7713"
                 style="fill:#ffffff" />
              <path
                 d="m 252.439,69.588 v -8.994 h 1.68 v 3.537 c 0,0.097 -0.013,0.252 -0.036,0.408 0.384,-0.552 0.972,-0.948 1.774,-0.948 1.211,0 2.123,0.948 2.123,2.52 v 3.479 h -1.69 v -3.382 c 0,-0.814 -0.517,-1.234 -1.08,-1.234 -0.517,0 -1.021,0.406 -1.091,1.247 v 3.369 l -1.68,-0.002 0,0 z"
                 id="path7715"
                 style="fill:#ffffff" />
              <path
                 d="m 260.85,67.021 c 0.12,0.972 0.72,1.331 1.379,1.331 0.647,0 1.091,-0.3 1.379,-0.721 l 1.115,0.805 c -0.624,0.84 -1.259,1.271 -2.59,1.271 -1.715,0 -2.975,-1.26 -2.975,-3.059 0,-1.667 1.127,-3.046 2.926,-3.046 1.979,0 2.759,1.415 2.759,3.214 v 0.204 l -3.993,0.001 0,0 z m 0.048,-1.031 h 2.314 c -0.108,-0.672 -0.624,-1.02 -1.14,-1.02 -0.538,0.001 -1.006,0.337 -1.174,1.02 z"
                 id="path7717"
                 style="fill:#ffffff" />
              <path
                 d="m 267.702,69.588 h -1.68 v -5.853 h 1.68 v 0.396 c 0,0.097 -0.013,0.24 -0.036,0.408 0.384,-0.552 0.972,-0.948 1.774,-0.948 1.211,0 2.123,0.948 2.123,2.52 v 3.479 h -1.69 v -3.382 c 0,-0.814 -0.517,-1.234 -1.08,-1.234 -0.504,0 -1.067,0.406 -1.091,1.188 v 3.426 l 0,0 z"
                 id="path7719"
                 style="fill:#ffffff" />
            </g>
          </g>
          <g
             id="g7721">
            <g
               id="g7723">
              <path
                 d="m 311.161,65.714 c -0.301,-0.322 -0.563,-0.552 -1.044,-0.552 -0.779,0 -1.331,0.624 -1.331,1.487 0,0.898 0.552,1.463 1.331,1.463 0.479,0 0.84,-0.264 1.092,-0.623 l 1.26,0.959 c -0.6,0.815 -1.32,1.248 -2.352,1.248 -1.764,0 -3.011,-1.344 -3.011,-3.047 0,-1.703 1.247,-3.046 2.998,-3.046 0.924,0 1.655,0.396 2.22,1.03 l -1.163,1.081 z"
                 id="path7725"
                 style="fill:#ffffff" />
              <path
                 d="m 313.646,69.588 v -8.994 h 1.703 v 8.994 h -1.703 z"
                 id="path7727"
                 style="fill:#ffffff" />
              <path
                 d="m 317.822,60.82 c 0.601,0 1.104,0.504 1.104,1.104 0,0.601 -0.504,1.104 -1.104,1.104 -0.6,0 -1.104,-0.504 -1.104,-1.104 0,-0.6 0.505,-1.104 1.104,-1.104 z m -0.875,8.768 v -5.853 h 1.716 v 5.853 h -1.716 z"
                 id="path7729"
                 style="fill:#ffffff" />
              <path
                 d="m 324.109,65.714 c -0.301,-0.322 -0.563,-0.552 -1.044,-0.552 -0.779,0 -1.331,0.624 -1.331,1.487 0,0.898 0.552,1.463 1.331,1.463 0.479,0 0.839,-0.264 1.091,-0.623 l 1.261,0.959 c -0.601,0.815 -1.319,1.248 -2.352,1.248 -1.763,0 -3.011,-1.344 -3.011,-3.047 0,-1.703 1.248,-3.046 2.998,-3.046 0.924,0 1.656,0.396 2.219,1.03 l -1.162,1.081 z"
                 id="path7731"
                 style="fill:#ffffff" />
              <path
                 d="m 330.445,69.588 -1.644,-2.459 -0.504,0.576 v 1.883 h -1.703 v -8.994 h 1.703 v 5.12 l 1.631,-1.99 h 1.871 l -2.003,2.291 2.471,3.573 h -1.822 z"
                 id="path7733"
                 style="fill:#ffffff" />
              <path
                 d="m 334.298,67.021 c 0.12,0.972 0.72,1.331 1.38,1.331 0.647,0 1.091,-0.3 1.379,-0.721 l 1.115,0.805 c -0.623,0.84 -1.26,1.271 -2.59,1.271 -1.716,0 -2.976,-1.26 -2.976,-3.059 0,-1.667 1.127,-3.046 2.927,-3.046 1.979,0 2.759,1.415 2.759,3.214 v 0.204 l -3.994,0.001 0,0 z m 0.048,-1.031 h 2.314 c -0.107,-0.672 -0.623,-1.02 -1.14,-1.02 -0.539,0.001 -1.006,0.337 -1.174,1.02 z"
                 id="path7735"
                 style="fill:#ffffff" />
              <path
                 d="M 343.429,69.588 V 68.82 c -0.468,0.552 -1.092,0.888 -1.775,0.888 -1.644,0 -2.529,-1.486 -2.529,-3.069 0,-1.561 0.924,-3.034 2.543,-3.034 0.646,0 1.246,0.239 1.703,0.72 v -3.729 h 1.679 v 8.994 l -1.621,-0.002 0,0 z m -0.036,-2.939 c 0,-0.899 -0.516,-1.547 -1.295,-1.547 -0.876,0 -1.308,0.694 -1.308,1.559 0,0.853 0.443,1.561 1.308,1.561 0.767,-10e-4 1.295,-0.769 1.295,-1.573 z"
                 id="path7737"
                 style="fill:#ffffff" />
            </g>
          </g>
          <path
             d="m 300.18,59.106 c -0.303,-0.224 -0.706,-0.255 -1.042,-0.085 -1.264,0.642 -5.118,2.081 -6.233,0.351 -2.139,-3.319 -7.765,-3.233 -8.005,-3.225 -0.02,0 -0.035,0.01 -0.055,0.012 -0.073,0.006 -0.141,0.026 -0.21,0.047 -0.056,0.019 -0.111,0.029 -0.162,0.058 -0.061,0.029 -0.11,0.072 -0.164,0.114 -0.048,0.039 -0.096,0.072 -0.135,0.117 -0.041,0.048 -0.069,0.104 -0.103,0.158 -0.033,0.059 -0.067,0.115 -0.09,0.182 -0.007,0.019 -0.021,0.031 -0.024,0.052 l -4.999,18.488 c -0.145,0.533 0.172,1.082 0.704,1.228 0.088,0.022 0.176,0.033 0.262,0.033 0.441,0 0.845,-0.294 0.965,-0.738 l 2.313,-8.558 c 0.082,0.021 0.161,0.052 0.25,0.054 1.302,-0.037 5,0.323 6.276,2.309 0.845,1.312 2.204,1.732 3.606,1.732 2.459,0 5.048,-1.297 5.216,-1.383 0.284,-0.146 0.482,-0.416 0.533,-0.732 l 1.493,-9.246 c 0.062,-0.373 -0.092,-0.747 -0.396,-0.968 z"
             id="path7739"
             style="fill:#009640" />
        </g>
      </g>
    </g>
    <g
       transform="matrix(2.5,0,0,2.5,-502.63104,-424.48125)"
       id="g7871">
      <g
         id="g7873">
        <path
           d="m 377.89,316.911 h -27 -2.5 -25.5 -1.5 -29.381 c -6.576,-3.776 -19.768,-9.5 -39.368,-9.5 -27.889,0 -39.179,10.901 -40.17,11.916 h -0.08 v 2.584 2.417 15.333 c 0,2.763 2.238,5 5,5 h 8.083 l 2.056,2.546 c 0.19,0.234 0.477,0.371 0.778,0.371 h 7.757 c 0.304,0 0.588,-0.137 0.778,-0.371 l 2.056,-2.546 h 82.491 1.5 25.5 2.5 27 c 2.762,0 5,-2.237 5,-5 v -17.75 c 0,-2.762 -2.239,-5 -5,-5 z"
           id="path7875"
           style="fill:#c88330" />
        <g
           id="g7877">
          <rect
             width="58.104"
             height="14.779"
             x="313.952"
             y="323.271"
             id="rect7879"
             style="fill:#ffffff" />
          <g
             id="g7881">
            <g
               id="g7883">
              <path
                 d="m 233.189,327.782 -2.015,5.854 h -1.907 l -0.875,-2.734 c -0.06,-0.168 -0.12,-0.479 -0.132,-0.54 l -0.144,0.54 -0.899,2.734 h -1.907 c -0.66,-1.943 -1.318,-3.897 -1.967,-5.854 h 1.811 l 0.911,3.227 c 0.084,0.323 0.168,0.708 0.192,0.779 0.012,-0.061 0.096,-0.432 0.204,-0.779 l 0.947,-3.227 h 1.702 l 0.924,3.227 c 0.096,0.349 0.168,0.744 0.18,0.792 0.012,-0.048 0.107,-0.433 0.216,-0.792 l 0.937,-3.227 h 1.822 z"
                 id="path7885"
                 style="fill:#ffffff" />
              <path
                 d="m 234.083,333.635 v -8.995 h 1.679 v 3.538 c 0,0.096 -0.012,0.252 -0.036,0.408 0.384,-0.553 0.972,-0.948 1.775,-0.948 1.211,0 2.123,0.948 2.123,2.519 v 3.479 h -1.691 v -3.382 c 0,-0.815 -0.516,-1.235 -1.08,-1.235 -0.516,0 -1.02,0.407 -1.091,1.247 v 3.37 l -1.679,-0.001 0,0 z"
                 id="path7887"
                 style="fill:#ffffff" />
              <path
                 d="m 242.494,331.068 c 0.119,0.972 0.72,1.331 1.379,1.331 0.646,0 1.091,-0.3 1.379,-0.72 l 1.115,0.804 c -0.624,0.84 -1.26,1.271 -2.591,1.271 -1.715,0 -2.975,-1.261 -2.975,-3.06 0,-1.667 1.127,-3.046 2.926,-3.046 1.979,0 2.759,1.415 2.759,3.214 v 0.204 l -3.992,0.002 0,0 z m 0.048,-1.031 h 2.313 c -0.107,-0.672 -0.624,-1.02 -1.139,-1.02 -0.538,10e-4 -1.006,0.337 -1.174,1.02 z"
                 id="path7889"
                 style="fill:#ffffff" />
              <path
                 d="m 249.346,333.635 h -1.679 v -5.854 h 1.679 v 0.396 c 0,0.096 -0.012,0.24 -0.036,0.408 0.384,-0.553 0.973,-0.948 1.775,-0.948 1.211,0 2.123,0.948 2.123,2.519 v 3.479 h -1.691 v -3.382 c 0,-0.815 -0.516,-1.235 -1.08,-1.235 -0.504,0 -1.066,0.407 -1.091,1.188 v 3.429 z"
                 id="path7891"
                 style="fill:#ffffff" />
              <path
                 d="m 258.299,333.635 v -1.415 h 1.043 v -5.553 h -1.043 v -1.429 h 3.802 v 1.429 h -1.043 v 5.553 h 1.043 v 1.415 h -3.802 z"
                 id="path7893"
                 style="fill:#ffffff" />
              <path
                 d="m 268.87,333.635 h -1.68 v -5.854 h 1.68 v 0.396 c 0,0.132 -0.024,0.348 -0.061,0.576 0.336,-0.637 0.863,-1.116 1.631,-1.116 v 1.644 c -0.875,0 -1.57,0.504 -1.57,1.463 v 2.891 z"
                 id="path7895"
                 style="fill:#ffffff" />
              <path
                 d="m 272.973,331.068 c 0.12,0.972 0.72,1.331 1.379,1.331 0.647,0 1.091,-0.3 1.379,-0.72 l 1.115,0.804 c -0.624,0.84 -1.259,1.271 -2.59,1.271 -1.715,0 -2.976,-1.261 -2.976,-3.06 0,-1.667 1.128,-3.046 2.927,-3.046 1.979,0 2.759,1.415 2.759,3.214 v 0.204 l -3.993,0.002 0,0 z m 0.048,-1.031 h 2.314 c -0.108,-0.672 -0.624,-1.02 -1.14,-1.02 -0.538,10e-4 -1.006,0.337 -1.174,1.02 z"
                 id="path7897"
                 style="fill:#ffffff" />
              <path
                 d="m 281.96,329.761 c -0.3,-0.323 -0.564,-0.553 -1.043,-0.553 -0.78,0 -1.332,0.624 -1.332,1.487 0,0.899 0.552,1.463 1.332,1.463 0.479,0 0.839,-0.264 1.091,-0.623 l 1.259,0.959 c -0.6,0.815 -1.319,1.248 -2.351,1.248 -1.764,0 -3.011,-1.344 -3.011,-3.047 0,-1.703 1.247,-3.046 2.998,-3.046 0.925,0 1.655,0.396 2.22,1.031 l -1.163,1.081 z"
                 id="path7899"
                 style="fill:#ffffff" />
              <path
                 d="m 285.777,331.068 c 0.12,0.972 0.721,1.331 1.379,1.331 0.647,0 1.092,-0.3 1.38,-0.72 l 1.114,0.804 c -0.624,0.84 -1.259,1.271 -2.59,1.271 -1.715,0 -2.975,-1.261 -2.975,-3.06 0,-1.667 1.127,-3.046 2.926,-3.046 1.979,0 2.759,1.415 2.759,3.214 v 0.204 l -3.993,0.002 0,0 z m 0.048,-1.031 h 2.313 c -0.108,-0.672 -0.624,-1.02 -1.139,-1.02 -0.538,10e-4 -1.006,0.337 -1.174,1.02 z"
                 id="path7901"
                 style="fill:#ffffff" />
              <path
                 d="m 291.885,324.867 c 0.6,0 1.104,0.504 1.104,1.104 0,0.6 -0.504,1.104 -1.104,1.104 -0.6,0 -1.104,-0.504 -1.104,-1.104 0,-0.6 0.505,-1.104 1.104,-1.104 z m -0.875,8.768 v -5.854 h 1.715 v 5.854 h -1.715 z"
                 id="path7903"
                 style="fill:#ffffff" />
              <path
                 d="m 295.845,333.635 -2.135,-5.854 h 1.823 l 1.066,3.046 c 0.12,0.336 0.192,0.757 0.204,0.841 0.012,-0.062 0.084,-0.492 0.204,-0.841 l 1.067,-3.046 h 1.822 l -2.135,5.854 h -1.916 z"
                 id="path7905"
                 style="fill:#ffffff" />
              <path
                 d="m 302.121,331.068 c 0.118,0.972 0.719,1.331 1.379,1.331 0.646,0 1.092,-0.3 1.379,-0.72 l 1.115,0.804 c -0.623,0.84 -1.26,1.271 -2.591,1.271 -1.715,0 -2.975,-1.261 -2.975,-3.06 0,-1.667 1.127,-3.046 2.926,-3.046 1.979,0 2.76,1.415 2.76,3.214 v 0.204 l -3.993,0.002 0,0 z m 0.048,-1.031 h 2.313 c -0.107,-0.672 -0.624,-1.02 -1.14,-1.02 -0.537,10e-4 -1.005,0.337 -1.173,1.02 z"
                 id="path7907"
                 style="fill:#ffffff" />
            </g>
          </g>
        </g>
      </g>
    </g>
    <g
       transform="matrix(2.5,0,0,2.5,-529.35604,229.33286)"
       id="g8150">
      <g
         id="g8152">
        <path
           d="m 388.58,107.911 h -27 -2.5 -25.5 -1.5 -29.382 c -6.575,-3.777 -19.768,-9.5 -39.367,-9.5 -27.89,0 -39.18,10.901 -40.17,11.916 h -0.08 v 2.584 2.417 15.333 c 0,2.762 2.237,5 5,5 h 8.083 l 2.056,2.545 c 0.19,0.235 0.476,0.372 0.778,0.372 h 7.757 c 0.303,0 0.588,-0.137 0.778,-0.372 l 2.056,-2.545 h 82.491 1.5 25.5 2.5 27 c 2.762,0 5,-2.238 5,-5 v -17.75 c 0,-2.762 -2.238,-5 -5,-5 z"
           id="path8154"
           style="fill:#c88330" />
        <g
           id="g8156">
          <rect
             width="50"
             height="14.778"
             x="265.64499"
             y="114.271"
             id="rect8158"
             style="fill:#ffffff" />
          <g
             id="g8160">
            <g
               id="g8162">
              <path
                 d="m 239.882,118.782 -2.015,5.854 h -1.907 l -0.875,-2.734 c -0.061,-0.168 -0.12,-0.479 -0.132,-0.54 l -0.145,0.54 -0.898,2.734 h -1.907 c -0.66,-1.943 -1.319,-3.897 -1.967,-5.854 h 1.811 l 0.911,3.226 c 0.084,0.324 0.168,0.708 0.192,0.78 0.012,-0.061 0.096,-0.432 0.203,-0.78 l 0.947,-3.226 h 1.703 l 0.923,3.226 c 0.097,0.35 0.168,0.744 0.181,0.792 0.012,-0.048 0.107,-0.432 0.216,-0.792 l 0.936,-3.226 h 1.823 z"
                 id="path8164"
                 style="fill:#ffffff" />
              <path
                 d="m 240.775,124.635 v -8.995 h 1.68 v 3.538 c 0,0.096 -0.013,0.252 -0.036,0.407 0.384,-0.552 0.972,-0.947 1.774,-0.947 1.211,0 2.123,0.947 2.123,2.519 v 3.479 h -1.69 v -3.383 c 0,-0.814 -0.517,-1.234 -1.08,-1.234 -0.517,0 -1.021,0.406 -1.091,1.247 v 3.37 l -1.68,-10e-4 0,0 z"
                 id="path8166"
                 style="fill:#ffffff" />
              <path
                 d="m 249.186,122.068 c 0.12,0.972 0.72,1.331 1.379,1.331 0.647,0 1.091,-0.3 1.379,-0.72 l 1.115,0.804 c -0.624,0.84 -1.259,1.271 -2.59,1.271 -1.715,0 -2.975,-1.26 -2.975,-3.059 0,-1.667 1.127,-3.046 2.926,-3.046 1.979,0 2.759,1.415 2.759,3.214 v 0.204 l -3.993,0.001 0,0 z m 0.048,-1.031 h 2.314 c -0.108,-0.672 -0.624,-1.02 -1.139,-1.02 -0.539,0.001 -1.007,0.337 -1.175,1.02 z"
                 id="path8168"
                 style="fill:#ffffff" />
              <path
                 d="m 256.038,124.635 h -1.68 v -5.854 h 1.68 v 0.396 c 0,0.096 -0.013,0.239 -0.036,0.407 0.384,-0.552 0.972,-0.947 1.774,-0.947 1.211,0 2.123,0.947 2.123,2.519 v 3.479 h -1.69 v -3.383 c 0,-0.814 -0.517,-1.234 -1.08,-1.234 -0.504,0 -1.067,0.406 -1.091,1.188 v 3.429 l 0,0 z"
                 id="path8170"
                 style="fill:#ffffff" />
            </g>
          </g>
          <g
             id="g8172">
            <g
               id="g8174">
              <path
                 d="m 325.533,124.635 -1.645,-2.46 -0.503,0.576 v 1.884 h -1.703 v -8.995 h 1.703 v 5.121 l 1.631,-1.991 h 1.871 l -2.004,2.291 2.471,3.574 h -1.821 z"
                 id="path8176"
                 style="fill:#ffffff" />
              <path
                 d="m 329.387,122.068 c 0.119,0.972 0.719,1.331 1.379,1.331 0.647,0 1.092,-0.3 1.379,-0.72 l 1.115,0.804 c -0.623,0.84 -1.259,1.271 -2.59,1.271 -1.715,0 -2.976,-1.26 -2.976,-3.059 0,-1.667 1.127,-3.046 2.927,-3.046 1.979,0 2.76,1.415 2.76,3.214 v 0.204 l -3.994,0.001 0,0 z m 0.048,-1.031 h 2.314 c -0.108,-0.672 -0.624,-1.02 -1.141,-1.02 -0.538,0.001 -1.005,0.337 -1.173,1.02 z"
                 id="path8178"
                 style="fill:#ffffff" />
              <path
                 d="m 336.094,123.987 -2.182,-5.205 h 1.762 l 1.128,2.734 c 0.097,0.239 0.181,0.563 0.192,0.6 0,-0.024 0.106,-0.348 0.215,-0.6 l 1.176,-2.734 h 1.775 l -4.042,9.127 h -1.752 l 1.728,-3.922 z"
                 id="path8180"
                 style="fill:#ffffff" />
              <path
                 d="m 344.555,127.633 v -8.851 h 1.68 v 0.588 c 0.455,-0.479 1.056,-0.72 1.703,-0.72 1.619,0 2.542,1.475 2.542,3.034 0,1.583 -0.888,3.069 -2.529,3.069 -0.685,0 -1.32,-0.336 -1.775,-0.888 v 3.766 l -1.621,0.002 0,0 z m 4.258,-5.925 c 0,-0.862 -0.432,-1.559 -1.308,-1.559 -0.779,0 -1.295,0.646 -1.295,1.547 0,0.804 0.526,1.571 1.295,1.571 0.864,0.001 1.308,-0.707 1.308,-1.559 z"
                 id="path8182"
                 style="fill:#ffffff" />
              <path
                 d="m 353.338,124.635 h -1.68 v -5.854 h 1.68 v 0.396 c 0,0.132 -0.023,0.348 -0.062,0.575 0.336,-0.636 0.863,-1.115 1.632,-1.115 v 1.644 c -0.875,0 -1.57,0.504 -1.57,1.463 v 2.891 z"
                 id="path8184"
                 style="fill:#ffffff" />
              <path
                 d="m 357.441,122.068 c 0.12,0.972 0.721,1.331 1.379,1.331 0.648,0 1.093,-0.3 1.381,-0.72 l 1.114,0.804 c -0.624,0.84 -1.259,1.271 -2.591,1.271 -1.715,0 -2.975,-1.26 -2.975,-3.059 0,-1.667 1.128,-3.046 2.927,-3.046 1.979,0 2.759,1.415 2.759,3.214 v 0.204 l -3.994,0.001 0,0 z m 0.049,-1.031 h 2.314 c -0.108,-0.672 -0.624,-1.02 -1.14,-1.02 -0.539,0.001 -1.006,0.337 -1.174,1.02 z"
                 id="path8186"
                 style="fill:#ffffff" />
              <path
                 d="m 363.202,122.668 c 0.406,0.469 1.056,0.659 1.618,0.659 0.359,0 0.624,-0.144 0.624,-0.359 0,-0.3 -0.301,-0.442 -0.792,-0.588 -0.91,-0.264 -2.039,-0.768 -2.039,-1.955 0,-1.127 1.092,-1.763 2.075,-1.763 0.888,0 1.512,0.3 2.039,0.853 l -0.936,1.008 c -0.252,-0.276 -0.722,-0.528 -1.068,-0.528 -0.312,0 -0.539,0.146 -0.539,0.372 0,0.288 0.336,0.432 0.863,0.588 0.888,0.264 2.027,0.815 2.027,1.932 0,1.104 -0.947,1.87 -2.269,1.87 -1.055,0 -1.918,-0.3 -2.555,-0.982 l 0.952,-1.107 z"
                 id="path8188"
                 style="fill:#ffffff" />
              <path
                 d="m 368.842,122.668 c 0.408,0.469 1.055,0.659 1.619,0.659 0.358,0 0.623,-0.144 0.623,-0.359 0,-0.3 -0.299,-0.442 -0.791,-0.588 -0.912,-0.264 -2.039,-0.768 -2.039,-1.955 0,-1.127 1.092,-1.763 2.074,-1.763 0.889,0 1.512,0.3 2.039,0.853 l -0.937,1.008 c -0.252,-0.276 -0.719,-0.528 -1.066,-0.528 -0.313,0 -0.539,0.146 -0.539,0.372 0,0.288 0.335,0.432 0.862,0.588 0.889,0.264 2.026,0.815 2.026,1.932 0,1.104 -0.947,1.87 -2.267,1.87 -1.057,0 -1.92,-0.3 -2.555,-0.982 l 0.951,-1.107 z"
                 id="path8190"
                 style="fill:#ffffff" />
              <path
                 d="m 375.225,122.068 c 0.12,0.972 0.72,1.331 1.379,1.331 0.648,0 1.092,-0.3 1.38,-0.72 l 1.115,0.804 c -0.624,0.84 -1.259,1.271 -2.591,1.271 -1.715,0 -2.975,-1.26 -2.975,-3.059 0,-1.667 1.128,-3.046 2.927,-3.046 1.979,0 2.759,1.415 2.759,3.214 v 0.204 l -3.994,0.001 0,0 z m 0.048,-1.031 h 2.314 c -0.108,-0.672 -0.624,-1.02 -1.141,-1.02 -0.538,0.001 -1.005,0.337 -1.173,1.02 z"
                 id="path8192"
                 style="fill:#ffffff" />
              <path
                 d="m 384.355,124.635 v -0.769 c -0.468,0.552 -1.092,0.888 -1.774,0.888 -1.644,0 -2.53,-1.486 -2.53,-3.069 0,-1.561 0.923,-3.034 2.542,-3.034 0.648,0 1.248,0.239 1.703,0.72 v -3.729 h 1.68 v 8.995 l -1.621,-0.002 0,0 z m -0.036,-2.939 c 0,-0.899 -0.516,-1.547 -1.296,-1.547 -0.875,0 -1.307,0.695 -1.307,1.559 0,0.853 0.443,1.561 1.307,1.561 0.768,-0.001 1.296,-0.769 1.296,-1.573 z"
                 id="path8194"
                 style="fill:#ffffff" />
            </g>
          </g>
        </g>
      </g>
    </g>
    <g
       transform="matrix(2.5,0,0,2.5,-533.88104,241.89698)"
       id="g8459">
      <g
         id="g8461">
        <path
           d="m 365.39,155.411 h -11.056 -15.944 -2.5 -0.5 -1.5 -19.39 -9.991 c -6.576,-3.777 -19.768,-9.5 -39.368,-9.5 -27.889,0 -39.179,10.901 -40.17,11.916 h -0.08 v 2.584 2.417 15.333 c 0,2.762 2.238,5 5,5 h 8.083 l 2.056,2.545 c 0.19,0.235 0.477,0.372 0.778,0.372 h 7.757 c 0.304,0 0.588,-0.137 0.778,-0.372 l 2.056,-2.545 h 63.101 19.39 1.5 0.5 2.5 15.944 11.056 c 2.762,0 5,-2.238 5,-5 v -17.75 c 0,-2.762 -2.239,-5 -5,-5 z"
           id="path8463"
           style="fill:#c88330" />
        <g
           id="g8465">
          <g
             id="g8467">
            <g
               id="g8469">
              <path
                 d="m 241.452,166.282 -2.016,5.854 h -1.907 l -0.875,-2.734 c -0.06,-0.168 -0.119,-0.479 -0.132,-0.54 l -0.144,0.54 -0.899,2.734 h -1.907 c -0.659,-1.943 -1.318,-3.897 -1.967,-5.854 h 1.812 l 0.911,3.226 c 0.084,0.324 0.168,0.708 0.191,0.78 0.013,-0.061 0.097,-0.432 0.204,-0.78 l 0.947,-3.226 h 1.703 l 0.923,3.226 c 0.096,0.35 0.168,0.744 0.18,0.792 0.012,-0.048 0.108,-0.432 0.216,-0.792 l 0.937,-3.226 h 1.823 z"
                 id="path8471"
                 style="fill:#ffffff" />
              <path
                 d="m 242.345,172.135 v -8.995 h 1.679 v 3.538 c 0,0.096 -0.012,0.252 -0.036,0.407 0.385,-0.552 0.973,-0.947 1.775,-0.947 1.211,0 2.123,0.947 2.123,2.519 v 3.479 h -1.691 v -3.383 c 0,-0.814 -0.516,-1.234 -1.079,-1.234 -0.517,0 -1.021,0.406 -1.092,1.247 v 3.37 l -1.679,-0.001 0,0 z"
                 id="path8473"
                 style="fill:#ffffff" />
              <path
                 d="m 250.756,169.568 c 0.12,0.972 0.72,1.331 1.379,1.331 0.647,0 1.091,-0.3 1.379,-0.72 l 1.115,0.804 c -0.624,0.84 -1.259,1.271 -2.59,1.271 -1.715,0 -2.976,-1.26 -2.976,-3.059 0,-1.667 1.127,-3.046 2.926,-3.046 1.979,0 2.76,1.415 2.76,3.214 v 0.204 l -3.993,0.001 0,0 z m 0.049,-1.031 h 2.314 c -0.108,-0.672 -0.624,-1.02 -1.14,-1.02 -0.539,0.001 -1.006,0.337 -1.174,1.02 z"
                 id="path8475"
                 style="fill:#ffffff" />
              <path
                 d="m 257.608,172.135 h -1.679 v -5.854 h 1.679 v 0.396 c 0,0.096 -0.012,0.239 -0.036,0.407 0.385,-0.552 0.973,-0.947 1.775,-0.947 1.211,0 2.123,0.947 2.123,2.519 v 3.479 h -1.691 v -3.383 c 0,-0.814 -0.516,-1.234 -1.08,-1.234 -0.504,0 -1.066,0.406 -1.091,1.188 v 3.429 l 0,0 z"
                 id="path8477"
                 style="fill:#ffffff" />
              <path
                 d="m 267.065,166.282 v -2.087 h 1.68 v 2.087 h 0.827 v 1.559 h -0.827 v 4.295 h -1.68 v -4.295 h -0.814 v -1.559 h 0.814 z"
                 id="path8479"
                 style="fill:#ffffff" />
              <path
                 d="m 270.749,172.135 v -8.995 h 1.679 v 3.538 c 0,0.096 -0.012,0.252 -0.036,0.407 0.384,-0.552 0.972,-0.947 1.775,-0.947 1.211,0 2.123,0.947 2.123,2.519 v 3.479 h -1.691 v -3.383 c 0,-0.814 -0.516,-1.234 -1.08,-1.234 -0.516,0 -1.02,0.406 -1.091,1.247 v 3.37 l -1.679,-0.001 0,0 z"
                 id="path8481"
                 style="fill:#ffffff" />
              <path
                 d="m 278.765,163.367 c 0.601,0 1.104,0.504 1.104,1.104 0,0.6 -0.504,1.104 -1.104,1.104 -0.6,0 -1.104,-0.504 -1.104,-1.104 0,-0.6 0.504,-1.104 1.104,-1.104 z m -0.876,8.768 v -5.854 h 1.715 v 5.854 h -1.715 z"
                 id="path8483"
                 style="fill:#ffffff" />
              <path
                 d="m 281.825,170.168 c 0.407,0.469 1.055,0.659 1.618,0.659 0.359,0 0.624,-0.144 0.624,-0.358 0,-0.301 -0.3,-0.443 -0.792,-0.589 -0.912,-0.264 -2.039,-0.768 -2.039,-1.955 0,-1.127 1.092,-1.763 2.075,-1.763 0.889,0 1.511,0.3 2.039,0.853 l -0.936,1.008 c -0.252,-0.276 -0.721,-0.528 -1.067,-0.528 -0.312,0 -0.54,0.146 -0.54,0.372 0,0.288 0.335,0.432 0.863,0.588 0.888,0.265 2.027,0.815 2.027,1.932 0,1.104 -0.947,1.87 -2.268,1.87 -1.056,0 -1.919,-0.3 -2.555,-0.982 l 0.951,-1.107 z"
                 id="path8485"
                 style="fill:#ffffff" />
              <path
                 d="m 291.064,170.168 c 0.408,0.469 1.056,0.659 1.619,0.659 0.359,0 0.624,-0.144 0.624,-0.358 0,-0.301 -0.3,-0.443 -0.792,-0.589 -0.912,-0.264 -2.039,-0.768 -2.039,-1.955 0,-1.127 1.091,-1.763 2.075,-1.763 0.888,0 1.511,0.3 2.039,0.853 l -0.937,1.008 c -0.252,-0.276 -0.72,-0.528 -1.066,-0.528 -0.313,0 -0.54,0.146 -0.54,0.372 0,0.288 0.335,0.432 0.863,0.588 0.888,0.265 2.026,0.815 2.026,1.932 0,1.104 -0.946,1.87 -2.267,1.87 -1.057,0 -1.919,-0.3 -2.555,-0.982 l 0.95,-1.107 z"
                 id="path8487"
                 style="fill:#ffffff" />
              <path
                 d="m 296.116,175.133 v -8.851 h 1.679 v 0.588 c 0.456,-0.479 1.055,-0.72 1.703,-0.72 1.619,0 2.543,1.475 2.543,3.034 0,1.583 -0.889,3.069 -2.531,3.069 -0.683,0 -1.319,-0.336 -1.774,-0.888 v 3.766 l -1.62,0.002 0,0 z m 4.258,-5.925 c 0,-0.862 -0.434,-1.559 -1.309,-1.559 -0.778,0 -1.295,0.646 -1.295,1.547 0,0.804 0.527,1.571 1.295,1.571 0.865,0.001 1.309,-0.707 1.309,-1.559 z"
                 id="path8489"
                 style="fill:#ffffff" />
              <path
                 d="m 304.899,172.135 h -1.679 v -5.854 h 1.679 v 0.396 c 0,0.132 -0.023,0.348 -0.06,0.575 0.336,-0.636 0.863,-1.115 1.631,-1.115 v 1.644 c -0.876,0 -1.571,0.504 -1.571,1.463 v 2.891 z"
                 id="path8491"
                 style="fill:#ffffff" />
              <path
                 d="m 308.607,163.367 c 0.601,0 1.104,0.504 1.104,1.104 0,0.6 -0.504,1.104 -1.104,1.104 -0.6,0 -1.104,-0.504 -1.104,-1.104 0,-0.6 0.505,-1.104 1.104,-1.104 z m -0.875,8.768 v -5.854 h 1.715 v 5.854 h -1.715 z"
                 id="path8493"
                 style="fill:#ffffff" />
              <path
                 d="m 311.535,166.282 v -2.087 h 1.68 v 2.087 h 0.828 v 1.559 h -0.828 v 4.295 h -1.68 v -4.295 h -0.814 v -1.559 h 0.814 z"
                 id="path8495"
                 style="fill:#ffffff" />
              <path
                 d="m 316.551,169.568 c 0.12,0.972 0.72,1.331 1.379,1.331 0.648,0 1.092,-0.3 1.38,-0.72 l 1.115,0.804 c -0.624,0.84 -1.259,1.271 -2.591,1.271 -1.715,0 -2.976,-1.26 -2.976,-3.059 0,-1.667 1.128,-3.046 2.928,-3.046 1.979,0 2.759,1.415 2.759,3.214 v 0.204 l -3.994,0.001 0,0 z m 0.049,-1.031 h 2.314 c -0.108,-0.672 -0.624,-1.02 -1.141,-1.02 -0.539,0.001 -1.005,0.337 -1.173,1.02 z"
                 id="path8497"
                 style="fill:#ffffff" />
              <path
                 d="m 329.137,168.261 c -0.299,-0.323 -0.563,-0.553 -1.043,-0.553 -0.779,0 -1.331,0.624 -1.331,1.487 0,0.899 0.552,1.463 1.331,1.463 0.479,0 0.84,-0.264 1.092,-0.623 l 1.259,0.959 c -0.6,0.815 -1.318,1.248 -2.351,1.248 -1.764,0 -3.01,-1.344 -3.01,-3.047 0,-1.703 1.246,-3.046 2.998,-3.046 0.924,0 1.653,0.396 2.219,1.031 l -1.164,1.081 z"
                 id="path8499"
                 style="fill:#ffffff" />
              <path
                 d="m 331.623,172.135 v -8.995 h 1.703 v 8.995 h -1.703 z"
                 id="path8501"
                 style="fill:#ffffff" />
              <path
                 d="m 335.799,163.367 c 0.6,0 1.104,0.504 1.104,1.104 0,0.6 -0.504,1.104 -1.104,1.104 -0.6,0 -1.104,-0.504 -1.104,-1.104 0,-0.6 0.504,-1.104 1.104,-1.104 z m -0.876,8.768 v -5.854 h 1.715 v 5.854 h -1.715 z"
                 id="path8503"
                 style="fill:#ffffff" />
              <path
                 d="m 342.084,168.261 c -0.299,-0.323 -0.563,-0.553 -1.043,-0.553 -0.779,0 -1.331,0.624 -1.331,1.487 0,0.899 0.552,1.463 1.331,1.463 0.479,0 0.84,-0.264 1.092,-0.623 l 1.259,0.959 c -0.6,0.815 -1.318,1.248 -2.351,1.248 -1.765,0 -3.011,-1.344 -3.011,-3.047 0,-1.703 1.246,-3.046 2.998,-3.046 0.925,0 1.654,0.396 2.22,1.031 l -1.164,1.081 z"
                 id="path8505"
                 style="fill:#ffffff" />
              <path
                 d="m 348.42,172.135 -1.644,-2.46 -0.504,0.576 v 1.884 h -1.703 v -8.995 h 1.703 v 5.121 l 1.631,-1.991 h 1.871 l -2.003,2.291 2.472,3.574 h -1.823 z"
                 id="path8507"
                 style="fill:#ffffff" />
              <path
                 d="m 352.273,169.568 c 0.12,0.972 0.721,1.331 1.379,1.331 0.648,0 1.093,-0.3 1.381,-0.72 l 1.114,0.804 c -0.624,0.84 -1.259,1.271 -2.591,1.271 -1.715,0 -2.975,-1.26 -2.975,-3.059 0,-1.667 1.128,-3.046 2.927,-3.046 1.979,0 2.759,1.415 2.759,3.214 v 0.204 l -3.994,0.001 0,0 z m 0.049,-1.031 h 2.314 c -0.108,-0.672 -0.624,-1.02 -1.14,-1.02 -0.539,0.001 -1.006,0.337 -1.174,1.02 z"
                 id="path8509"
                 style="fill:#ffffff" />
              <path
                 d="m 361.404,172.135 v -0.769 c -0.468,0.552 -1.092,0.888 -1.774,0.888 -1.644,0 -2.53,-1.486 -2.53,-3.069 0,-1.561 0.923,-3.034 2.542,-3.034 0.648,0 1.248,0.239 1.703,0.72 v -3.729 h 1.68 v 8.995 l -1.621,-0.002 0,0 z m -0.036,-2.939 c 0,-0.899 -0.517,-1.547 -1.297,-1.547 -0.875,0 -1.307,0.695 -1.307,1.559 0,0.853 0.443,1.561 1.307,1.561 0.769,-0.001 1.297,-0.769 1.297,-1.573 z"
                 id="path8511"
                 style="fill:#ffffff" />
            </g>
          </g>
        </g>
      </g>
    </g>
    <g
       transform="matrix(2.5,0,0,2.5,346.84892,81.41796)"
       id="g8697">
      <g
         id="g8699">
        <path
           d="m 139.669,9.5 h -1.17 -2.5 -25.5 -1.5 -29.381 C 73.042,5.723 59.851,0 40.25,0 12.361,0 1.071,10.9 0.08,11.916 H 0 V 14.5 16.916 32.25 c 0,2.762 2.238,5 5,5 h 8.083 l 2.056,2.545 c 0.19,0.234 0.476,0.371 0.778,0.371 h 7.757 c 0.303,0 0.588,-0.137 0.778,-0.371 l 2.056,-2.545 h 82.491 1.5 25.5 2.5 1.17 V 9.5 z"
           id="path8701"
           style="fill:#c88330" />
        <path
           d="m 139.499,9.5 h -7.58 v 27.75 h 7.58 c 2.762,0 5,-2.238 5,-5 V 14.5 c 0,-2.762 -2.238,-5 -5,-5 z"
           id="path8703"
           style="fill:#c88330" />
      </g>
      <g
         id="g8705">
        <rect
           width="52.854"
           height="14.779"
           x="43.050999"
           y="15.859"
           id="rect8707"
           style="fill:#ffffff" />
        <g
           id="g8709">
          <g
             id="g8711">
            <path
               d="m 17.287,20.371 -2.015,5.852 H 13.365 L 12.49,23.489 C 12.429,23.321 12.37,23.01 12.357,22.95 l -0.144,0.539 -0.899,2.734 H 9.408 C 8.748,24.28 8.088,22.327 7.441,20.371 h 1.811 l 0.911,3.225 c 0.084,0.324 0.168,0.709 0.192,0.781 0.012,-0.061 0.096,-0.432 0.203,-0.781 l 0.947,-3.225 h 1.703 l 0.924,3.225 c 0.096,0.35 0.168,0.744 0.18,0.793 0.013,-0.049 0.108,-0.432 0.217,-0.793 l 0.936,-3.225 h 1.822 z"
               id="path8713"
               style="fill:#ffffff" />
            <path
               d="m 18.18,26.223 v -8.994 h 1.68 v 3.537 c 0,0.096 -0.012,0.252 -0.036,0.408 0.384,-0.551 0.972,-0.947 1.774,-0.947 1.212,0 2.123,0.947 2.123,2.518 v 3.479 h -1.69 v -3.381 c 0,-0.816 -0.517,-1.236 -1.079,-1.236 -0.516,0 -1.02,0.408 -1.092,1.248 v 3.369 h -1.68 z"
               id="path8715"
               style="fill:#ffffff" />
            <path
               d="m 26.592,23.656 c 0.119,0.973 0.719,1.332 1.379,1.332 0.647,0 1.092,-0.301 1.379,-0.721 l 1.115,0.805 c -0.623,0.84 -1.259,1.271 -2.59,1.271 -1.715,0 -2.975,-1.26 -2.975,-3.059 0,-1.668 1.127,-3.047 2.926,-3.047 1.979,0 2.76,1.416 2.76,3.215 v 0.203 h -3.994 z m 0.048,-1.031 h 2.314 c -0.108,-0.672 -0.624,-1.02 -1.14,-1.02 -0.539,0 -1.006,0.336 -1.174,1.02 z"
               id="path8717"
               style="fill:#ffffff" />
            <path
               d="m 33.443,26.223 h -1.68 v -5.852 h 1.68 v 0.395 c 0,0.096 -0.012,0.24 -0.036,0.408 0.384,-0.551 0.972,-0.947 1.774,-0.947 1.212,0 2.123,0.947 2.123,2.518 v 3.479 h -1.69 v -3.381 c 0,-0.816 -0.517,-1.236 -1.079,-1.236 -0.504,0 -1.068,0.408 -1.092,1.188 v 3.428 z"
               id="path8719"
               style="fill:#ffffff" />
          </g>
        </g>
        <g
           id="g8721">
          <g
             id="g8723">
            <path
               d="m 101.836,27.516 4.314,-4.283 -4.314,-4.28 2.362,-2.329 6.638,6.609 -6.638,6.644 -2.362,-2.361 z"
               id="path8725"
               style="fill:#ffffff" />
          </g>
        </g>
        <path
           d="m 115.787,23.25 c 0,4.9 3.974,8.875 8.875,8.875 h 3.641 c 4.9,0 8.875,-3.975 8.875,-8.875 0,-4.902 -3.975,-8.875 -8.875,-8.875 h -3.641 c -4.901,0 -8.875,3.973 -8.875,8.875 0,0 0,-4.902 0,0 z"
           id="path8727"
           style="fill:#ffffff" />
      </g>
    </g>
    <g
       transform="matrix(2.5,0,0,2.5,-533.87604,-152.94142)"
       id="g8959">
      <g
         id="g8961">
        <path
           d="m 365.391,356.372 h -30 -13.891 -70.103 l -2.056,2.546 c -0.19,0.234 -0.476,0.371 -0.778,0.371 h -7.757 c -0.302,0 -0.588,-0.137 -0.778,-0.371 l -2.055,-2.546 h -8.084 c -2.761,0 -5,2.238 -5,5 v 12.167 c 0,2.763 2.239,5 5,5 h 8.088 l 2.051,2.539 c 0.19,0.235 0.478,0.372 0.778,0.372 h 7.757 c 0.304,0 0.588,-0.137 0.778,-0.372 l 2.051,-2.539 h 70.108 13.891 30 c 2.762,0 5,-2.237 5,-5 v -12.167 c 0,-2.762 -2.239,-5 -5,-5 z"
           id="path8963"
           style="fill:#c88330" />
        <g
           id="g8965">
          <rect
             width="60.651001"
             height="12.343"
             x="298.42999"
             y="360.905"
             id="rect8967"
             style="fill:#ffffff" />
          <g
             id="g8969">
            <g
               id="g8971">
              <path
                 d="m 236.967,371.144 v -8.996 h 1.679 v 3.73 c 0.456,-0.48 1.056,-0.72 1.703,-0.72 1.619,0 2.542,1.476 2.542,3.033 0,1.584 -0.888,3.07 -2.531,3.07 -0.684,0 -1.318,-0.336 -1.774,-0.887 v 0.768 l -1.619,0.002 0,0 z m 4.258,-2.927 c 0,-0.863 -0.432,-1.56 -1.308,-1.56 -0.779,0 -1.295,0.648 -1.295,1.547 0,0.806 0.526,1.572 1.295,1.572 0.864,0 1.308,-0.709 1.308,-1.559 z"
                 id="path8973"
                 style="fill:#ffffff" />
              <path
                 d="m 245.75,371.144 h -1.68 v -5.854 h 1.68 v 0.396 c 0,0.131 -0.024,0.348 -0.061,0.576 0.336,-0.638 0.863,-1.117 1.631,-1.117 v 1.645 c -0.875,0 -1.57,0.505 -1.57,1.464 v 2.89 z"
                 id="path8975"
                 style="fill:#ffffff" />
              <path
                 d="m 248.163,368.204 c 0,-1.737 1.343,-3.045 3.059,-3.045 1.715,0 3.058,1.308 3.058,3.045 0,1.74 -1.343,3.048 -3.058,3.048 -1.716,0 -3.059,-1.308 -3.059,-3.048 z m 4.474,0 c 0,-0.887 -0.563,-1.547 -1.415,-1.547 -0.864,0 -1.427,0.66 -1.427,1.547 0,0.9 0.587,1.562 1.427,1.562 0.851,-0.001 1.415,-0.662 1.415,-1.562 z"
                 id="path8977"
                 style="fill:#ffffff" />
              <path
                 d="m 260.808,371.144 c -0.72,0 -1.211,-0.385 -1.475,-0.996 -0.336,0.564 -1.043,1.115 -2.087,1.115 -1.295,0 -1.955,-0.84 -1.955,-1.715 0,-0.972 0.792,-1.918 2.423,-1.918 0.492,0 0.971,0.059 1.415,0.143 v -0.191 c 0,-0.575 -0.396,-0.959 -1.043,-0.959 -0.456,0 -0.828,0.203 -1.067,0.589 l -1.175,-0.878 c 0,0 0.672,-1.198 2.327,-1.198 1.631,0 2.626,0.973 2.626,2.375 v 1.764 c 0,0.215 0.144,0.348 0.36,0.348 h 0.239 v 1.523 l -0.588,-0.002 0,0 z m -1.679,-2.329 c -0.313,-0.059 -0.695,-0.119 -0.923,-0.119 -0.685,0 -1.211,0.229 -1.211,0.707 0,0.324 0.239,0.541 0.684,0.541 0.706,0 1.234,-0.492 1.45,-1.129 z"
                 id="path8979"
                 style="fill:#ffffff" />
              <path
                 d="m 266.365,371.144 v -0.768 c -0.468,0.551 -1.092,0.887 -1.774,0.887 -1.644,0 -2.53,-1.486 -2.53,-3.07 0,-1.559 0.923,-3.033 2.542,-3.033 0.647,0 1.247,0.238 1.703,0.72 v -3.73 h 1.679 v 8.996 l -1.62,-0.002 0,0 z m -0.036,-2.94 c 0,-0.897 -0.517,-1.547 -1.295,-1.547 -0.875,0 -1.308,0.695 -1.308,1.56 0,0.852 0.444,1.561 1.308,1.561 0.767,-0.002 1.295,-0.768 1.295,-1.574 z"
                 id="path8981"
                 style="fill:#ffffff" />
              <path
                 d="m 273.336,367.269 c -0.3,-0.322 -0.564,-0.551 -1.043,-0.551 -0.78,0 -1.331,0.623 -1.331,1.485 0,0.9 0.551,1.464 1.331,1.464 0.479,0 0.839,-0.265 1.091,-0.623 l 1.259,0.959 c -0.6,0.815 -1.318,1.248 -2.351,1.248 -1.764,0 -3.011,-1.345 -3.011,-3.048 0,-1.702 1.247,-3.045 2.998,-3.045 0.925,0 1.655,0.396 2.22,1.031 l -1.163,1.08 z"
                 id="path8983"
                 style="fill:#ffffff" />
              <path
                 d="m 280.751,371.144 c -0.721,0 -1.211,-0.385 -1.476,-0.996 -0.336,0.564 -1.043,1.115 -2.087,1.115 -1.295,0 -1.955,-0.84 -1.955,-1.715 0,-0.972 0.792,-1.918 2.424,-1.918 0.491,0 0.971,0.059 1.414,0.143 v -0.191 c 0,-0.575 -0.396,-0.959 -1.043,-0.959 -0.455,0 -0.827,0.203 -1.066,0.589 l -1.175,-0.878 c 0,0 0.672,-1.198 2.327,-1.198 1.631,0 2.626,0.973 2.626,2.375 v 1.764 c 0,0.215 0.144,0.348 0.359,0.348 h 0.24 v 1.523 l -0.588,-0.002 0,0 z m -1.679,-2.329 c -0.312,-0.059 -0.694,-0.119 -0.923,-0.119 -0.684,0 -1.211,0.229 -1.211,0.707 0,0.324 0.24,0.541 0.685,0.541 0.706,0 1.233,-0.492 1.449,-1.129 z"
                 id="path8985"
                 style="fill:#ffffff" />
              <path
                 d="m 282.938,369.177 c 0.408,0.467 1.056,0.658 1.619,0.658 0.36,0 0.624,-0.144 0.624,-0.359 0,-0.299 -0.3,-0.443 -0.792,-0.588 -0.912,-0.265 -2.039,-0.769 -2.039,-1.955 0,-1.127 1.091,-1.762 2.075,-1.762 0.888,0 1.511,0.299 2.039,0.852 l -0.937,1.008 c -0.252,-0.276 -0.72,-0.528 -1.066,-0.528 -0.313,0 -0.54,0.145 -0.54,0.372 0,0.287 0.335,0.433 0.863,0.589 0.888,0.264 2.026,0.813 2.026,1.93 0,1.104 -0.947,1.871 -2.267,1.871 -1.057,0 -1.919,-0.299 -2.556,-0.982 l 0.951,-1.106 z"
                 id="path8987"
                 style="fill:#ffffff" />
              <path
                 d="m 288.445,365.29 v -2.086 h 1.68 v 2.086 h 0.828 v 1.56 h -0.828 v 4.295 h -1.68 v -4.295 h -0.814 v -1.56 h 0.814 z"
                 id="path8989"
                 style="fill:#ffffff" />
            </g>
          </g>
        </g>
      </g>
    </g>
    <g
       transform="matrix(2.5,0,0,2.5,-476.37354,-161.84979)"
       id="g9129">
      <g
         id="g9131">
        <path
           d="m 388.391,397.372 h -30 -13.891 -2.109 -21.75 -8.25 -13.891 -70.104 l -2.056,2.546 c -0.19,0.234 -0.476,0.371 -0.778,0.371 h -7.757 c -0.302,0 -0.588,-0.137 -0.778,-0.371 l -2.055,-2.546 h -8.084 c -2.761,0 -5,2.238 -5,5 v 12.167 c 0,2.763 2.239,5 5,5 h 8.088 l 2.051,2.539 c 0.19,0.235 0.478,0.372 0.778,0.372 h 7.757 c 0.304,0 0.588,-0.137 0.778,-0.372 l 2.051,-2.539 h 70.109 13.891 8.25 21.75 2.109 13.891 30 c 2.762,0 5,-2.237 5,-5 v -12.167 c 0,-2.762 -2.239,-5 -5,-5 z"
           id="path9133"
           style="fill:#c88330" />
        <g
           id="g9135">
          <rect
             width="60.650002"
             height="12.343"
             x="271.99799"
             y="401.905"
             id="rect9137"
             style="fill:#ffffff" />
          <g
             id="g9139">
            <g
               id="g9141">
              <path
                 d="m 210.536,412.144 v -8.996 h 1.679 v 3.73 c 0.456,-0.48 1.055,-0.72 1.703,-0.72 1.619,0 2.542,1.476 2.542,3.033 0,1.584 -0.889,3.07 -2.531,3.07 -0.684,0 -1.319,-0.336 -1.775,-0.887 v 0.768 l -1.618,0.002 0,0 z m 4.257,-2.927 c 0,-0.863 -0.433,-1.56 -1.309,-1.56 -0.778,0 -1.295,0.648 -1.295,1.547 0,0.806 0.527,1.572 1.295,1.572 0.866,0 1.309,-0.709 1.309,-1.559 z"
                 id="path9143"
                 style="fill:#ffffff" />
              <path
                 d="m 219.319,412.144 h -1.679 v -5.854 h 1.679 v 0.396 c 0,0.131 -0.023,0.348 -0.06,0.576 0.336,-0.638 0.863,-1.117 1.631,-1.117 v 1.645 c -0.875,0 -1.571,0.505 -1.571,1.464 v 2.89 z"
                 id="path9145"
                 style="fill:#ffffff" />
              <path
                 d="m 221.731,409.204 c 0,-1.737 1.344,-3.045 3.06,-3.045 1.715,0 3.058,1.308 3.058,3.045 0,1.74 -1.343,3.048 -3.058,3.048 -1.715,0 -3.06,-1.308 -3.06,-3.048 z m 4.474,0 c 0,-0.887 -0.563,-1.547 -1.415,-1.547 -0.864,0 -1.428,0.66 -1.428,1.547 0,0.9 0.588,1.562 1.428,1.562 0.852,-0.001 1.415,-0.662 1.415,-1.562 z"
                 id="path9147"
                 style="fill:#ffffff" />
              <path
                 d="m 234.376,412.144 c -0.721,0 -1.211,-0.385 -1.476,-0.996 -0.336,0.564 -1.043,1.115 -2.087,1.115 -1.295,0 -1.955,-0.84 -1.955,-1.715 0,-0.972 0.792,-1.918 2.424,-1.918 0.491,0 0.971,0.059 1.414,0.143 v -0.191 c 0,-0.575 -0.396,-0.959 -1.043,-0.959 -0.456,0 -0.827,0.203 -1.066,0.589 l -1.175,-0.878 c 0,0 0.672,-1.198 2.326,-1.198 1.632,0 2.626,0.973 2.626,2.375 v 1.764 c 0,0.215 0.145,0.348 0.36,0.348 h 0.24 v 1.523 l -0.588,-0.002 0,0 z m -1.679,-2.329 c -0.312,-0.059 -0.694,-0.119 -0.923,-0.119 -0.684,0 -1.211,0.229 -1.211,0.707 0,0.324 0.24,0.541 0.685,0.541 0.706,0 1.233,-0.492 1.449,-1.129 z"
                 id="path9149"
                 style="fill:#ffffff" />
              <path
                 d="m 239.933,412.144 v -0.768 c -0.468,0.551 -1.092,0.887 -1.774,0.887 -1.644,0 -2.53,-1.486 -2.53,-3.07 0,-1.559 0.923,-3.033 2.542,-3.033 0.646,0 1.247,0.238 1.703,0.72 v -3.73 h 1.679 v 8.996 l -1.62,-0.002 0,0 z m -0.036,-2.94 c 0,-0.897 -0.516,-1.547 -1.295,-1.547 -0.875,0 -1.307,0.695 -1.307,1.56 0,0.852 0.443,1.561 1.307,1.561 0.767,-0.002 1.295,-0.768 1.295,-1.574 z"
                 id="path9151"
                 style="fill:#ffffff" />
              <path
                 d="m 246.905,408.269 c -0.3,-0.322 -0.563,-0.551 -1.043,-0.551 -0.779,0 -1.331,0.623 -1.331,1.485 0,0.9 0.552,1.464 1.331,1.464 0.479,0 0.84,-0.265 1.092,-0.623 l 1.259,0.959 c -0.601,0.815 -1.319,1.248 -2.352,1.248 -1.763,0 -3.01,-1.345 -3.01,-3.048 0,-1.702 1.247,-3.045 2.998,-3.045 0.924,0 1.655,0.396 2.219,1.031 l -1.163,1.08 z"
                 id="path9153"
                 style="fill:#ffffff" />
              <path
                 d="m 254.32,412.144 c -0.72,0 -1.211,-0.385 -1.475,-0.996 -0.336,0.564 -1.043,1.115 -2.087,1.115 -1.295,0 -1.955,-0.84 -1.955,-1.715 0,-0.972 0.792,-1.918 2.423,-1.918 0.492,0 0.971,0.059 1.415,0.143 v -0.191 c 0,-0.575 -0.396,-0.959 -1.043,-0.959 -0.456,0 -0.828,0.203 -1.067,0.589 l -1.175,-0.878 c 0,0 0.672,-1.198 2.327,-1.198 1.631,0 2.626,0.973 2.626,2.375 v 1.764 c 0,0.215 0.145,0.348 0.36,0.348 h 0.24 v 1.523 l -0.589,-0.002 0,0 z m -1.679,-2.329 c -0.312,-0.059 -0.695,-0.119 -0.923,-0.119 -0.684,0 -1.211,0.229 -1.211,0.707 0,0.324 0.24,0.541 0.684,0.541 0.706,0 1.234,-0.492 1.45,-1.129 z"
                 id="path9155"
                 style="fill:#ffffff" />
              <path
                 d="m 256.506,410.177 c 0.408,0.467 1.055,0.658 1.619,0.658 0.359,0 0.624,-0.144 0.624,-0.359 0,-0.299 -0.3,-0.443 -0.792,-0.588 -0.912,-0.265 -2.039,-0.769 -2.039,-1.955 0,-1.127 1.091,-1.762 2.075,-1.762 0.888,0 1.511,0.299 2.039,0.852 l -0.937,1.008 c -0.252,-0.276 -0.72,-0.528 -1.067,-0.528 -0.312,0 -0.54,0.145 -0.54,0.372 0,0.287 0.336,0.433 0.863,0.589 0.889,0.264 2.027,0.813 2.027,1.93 0,1.104 -0.947,1.871 -2.268,1.871 -1.056,0 -1.919,-0.299 -2.555,-0.982 l 0.951,-1.106 z"
                 id="path9157"
                 style="fill:#ffffff" />
              <path
                 d="m 262.014,406.29 v -2.086 h 1.679 v 2.086 h 0.828 v 1.56 h -0.828 v 4.295 h -1.679 V 407.85 H 261.2 v -1.56 h 0.814 z"
                 id="path9159"
                 style="fill:#ffffff" />
            </g>
          </g>
          <g
             id="g9161">
            <g
               id="g9163">
              <path
                 d="m 342.885,412.144 c -0.72,0 -1.211,-0.385 -1.475,-0.996 -0.336,0.564 -1.044,1.115 -2.089,1.115 -1.295,0 -1.954,-0.84 -1.954,-1.715 0,-0.972 0.792,-1.918 2.424,-1.918 0.491,0 0.971,0.059 1.414,0.143 v -0.191 c 0,-0.575 -0.396,-0.959 -1.043,-0.959 -0.455,0 -0.828,0.203 -1.067,0.589 l -1.175,-0.878 c 0,0 0.671,-1.198 2.326,-1.198 1.631,0 2.627,0.973 2.627,2.375 v 1.764 c 0,0.215 0.144,0.348 0.358,0.348 h 0.24 v 1.523 l -0.586,-0.002 0,0 z m -1.68,-2.329 c -0.313,-0.059 -0.695,-0.119 -0.924,-0.119 -0.684,0 -1.212,0.229 -1.212,0.707 0,0.324 0.24,0.541 0.685,0.541 0.708,0 1.236,-0.492 1.451,-1.129 z"
                 id="path9165"
                 style="fill:#ffffff" />
              <path
                 d="m 346.162,412.144 h -1.68 v -5.854 h 1.68 v 0.396 c 0,0.096 -0.013,0.24 -0.035,0.408 0.383,-0.554 0.971,-0.949 1.773,-0.949 1.212,0 2.123,0.949 2.123,2.52 v 3.479 h -1.689 v -3.383 c 0,-0.814 -0.518,-1.234 -1.08,-1.234 -0.504,0 -1.067,0.406 -1.092,1.188 v 3.429 l 0,0 z"
                 id="path9167"
                 style="fill:#ffffff" />
              <path
                 d="m 355.521,412.144 v -0.768 c -0.468,0.551 -1.092,0.887 -1.774,0.887 -1.644,0 -2.53,-1.486 -2.53,-3.07 0,-1.559 0.923,-3.033 2.542,-3.033 0.647,0 1.248,0.238 1.703,0.72 v -3.73 h 1.68 v 8.996 l -1.621,-0.002 0,0 z m -0.036,-2.94 c 0,-0.897 -0.516,-1.547 -1.296,-1.547 -0.875,0 -1.307,0.695 -1.307,1.56 0,0.852 0.443,1.561 1.307,1.561 0.768,-0.002 1.296,-0.768 1.296,-1.574 z"
                 id="path9169"
                 style="fill:#ffffff" />
              <path
                 d="m 371.479,406.29 -2.016,5.854 h -1.906 l -0.876,-2.734 c -0.06,-0.168 -0.12,-0.479 -0.132,-0.541 l -0.145,0.541 -0.898,2.734 h -1.907 c -0.659,-1.943 -1.319,-3.898 -1.967,-5.854 h 1.812 l 0.91,3.228 c 0.084,0.324 0.168,0.707 0.192,0.779 0.013,-0.062 0.097,-0.433 0.204,-0.779 l 0.946,-3.228 h 1.703 l 0.925,3.228 c 0.096,0.348 0.168,0.744 0.18,0.791 0.012,-0.047 0.106,-0.432 0.216,-0.791 l 0.936,-3.228 h 1.823 z"
                 id="path9171"
                 style="fill:#ffffff" />
              <path
                 d="m 377.133,412.144 c -0.721,0 -1.212,-0.385 -1.477,-0.996 -0.336,0.564 -1.044,1.115 -2.087,1.115 -1.295,0 -1.955,-0.84 -1.955,-1.715 0,-0.972 0.791,-1.918 2.424,-1.918 0.49,0 0.972,0.059 1.415,0.143 v -0.191 c 0,-0.575 -0.396,-0.959 -1.043,-0.959 -0.456,0 -0.828,0.203 -1.068,0.589 l -1.175,-0.878 c 0,0 0.672,-1.198 2.327,-1.198 1.631,0 2.626,0.973 2.626,2.375 v 1.764 c 0,0.215 0.144,0.348 0.359,0.348 h 0.239 v 1.523 l -0.585,-0.002 0,0 z m -1.68,-2.329 c -0.313,-0.059 -0.695,-0.119 -0.925,-0.119 -0.684,0 -1.211,0.229 -1.211,0.707 0,0.324 0.24,0.541 0.685,0.541 0.707,0 1.235,-0.492 1.451,-1.129 z"
                 id="path9173"
                 style="fill:#ffffff" />
              <path
                 d="m 379.666,403.377 c 0.6,0 1.104,0.504 1.104,1.104 0,0.6 -0.504,1.104 -1.104,1.104 -0.601,0 -1.104,-0.505 -1.104,-1.104 0,-0.599 0.504,-1.104 1.104,-1.104 z m -0.875,8.767 v -5.854 h 1.715 v 5.854 h -1.715 z"
                 id="path9175"
                 style="fill:#ffffff" />
              <path
                 d="m 382.594,406.29 v -2.086 h 1.68 v 2.086 h 0.828 v 1.56 h -0.828 v 4.295 h -1.68 v -4.295 h -0.814 v -1.56 h 0.814 z"
                 id="path9177"
                 style="fill:#ffffff" />
            </g>
          </g>
        </g>
      </g>
    </g>
    <g
       transform="matrix(2.5,0,0,2.5,-427.63104,-266.42034)"
       id="g9391">
      <g
         id="g9393">
        <path
           d="m 407.89,201.161 h -27 -2.5 -25.5 -1.5 -3.5 -7.664 -19.336 -2.5 -25.5 -1.5 -29.381 c -6.576,-3.777 -19.768,-9.5 -39.368,-9.5 -27.889,0 -39.179,10.901 -40.17,11.916 h -0.08 v 2.584 2.417 15.333 c 0,2.762 2.238,5 5,5 h 8.083 l 2.056,2.545 c 0.19,0.235 0.477,0.372 0.778,0.372 h 7.757 c 0.304,0 0.588,-0.137 0.778,-0.372 l 2.056,-2.545 h 82.491 1.5 25.5 2.5 19.336 7.664 3.5 1.5 25.5 2.5 27 c 2.762,0 5,-2.238 5,-5 v -17.75 c 0,-2.762 -2.239,-5 -5,-5 z"
           id="path9395"
           style="fill:#c88330" />
        <g
           id="g9397">
          <rect
             width="56.854"
             height="14.778"
             x="349.077"
             y="207.521"
             id="rect9399"
             style="fill:#ffffff" />
          <g
             id="g9401">
            <g
               id="g9403">
              <path
                 d="m 199.314,212.032 -2.015,5.854 h -1.907 l -0.875,-2.734 c -0.06,-0.168 -0.12,-0.479 -0.132,-0.54 l -0.144,0.54 -0.899,2.734 h -1.907 c -0.66,-1.943 -1.318,-3.897 -1.967,-5.854 h 1.811 l 0.911,3.226 c 0.084,0.324 0.168,0.708 0.192,0.78 0.012,-0.061 0.096,-0.432 0.204,-0.78 l 0.947,-3.226 h 1.702 l 0.924,3.226 c 0.096,0.35 0.168,0.744 0.18,0.792 0.012,-0.048 0.107,-0.432 0.216,-0.792 l 0.937,-3.226 h 1.822 z"
                 id="path9405"
                 style="fill:#ffffff" />
              <path
                 d="m 200.208,217.885 v -8.995 h 1.679 v 3.538 c 0,0.096 -0.012,0.252 -0.036,0.407 0.384,-0.552 0.972,-0.947 1.775,-0.947 1.211,0 2.123,0.947 2.123,2.519 v 3.479 h -1.691 v -3.383 c 0,-0.814 -0.516,-1.234 -1.08,-1.234 -0.516,0 -1.02,0.406 -1.091,1.247 v 3.37 l -1.679,-0.001 0,0 z"
                 id="path9407"
                 style="fill:#ffffff" />
              <path
                 d="m 208.619,215.318 c 0.119,0.972 0.72,1.331 1.379,1.331 0.646,0 1.091,-0.3 1.379,-0.72 l 1.115,0.804 c -0.624,0.84 -1.26,1.271 -2.591,1.271 -1.715,0 -2.975,-1.26 -2.975,-3.059 0,-1.667 1.127,-3.046 2.926,-3.046 1.979,0 2.759,1.415 2.759,3.214 v 0.204 l -3.992,0.001 0,0 z m 0.048,-1.031 h 2.313 c -0.107,-0.672 -0.624,-1.02 -1.139,-1.02 -0.538,0.001 -1.006,0.337 -1.174,1.02 z"
                 id="path9409"
                 style="fill:#ffffff" />
              <path
                 d="m 215.471,217.885 h -1.679 v -5.854 h 1.679 v 0.396 c 0,0.096 -0.012,0.239 -0.036,0.407 0.384,-0.552 0.973,-0.947 1.775,-0.947 1.211,0 2.123,0.947 2.123,2.519 v 3.479 h -1.691 v -3.383 c 0,-0.814 -0.516,-1.234 -1.08,-1.234 -0.504,0 -1.066,0.406 -1.091,1.188 v 3.429 z"
                 id="path9411"
                 style="fill:#ffffff" />
              <path
                 d="m 224.472,217.885 v -8.995 h 1.679 v 3.729 c 0.456,-0.479 1.056,-0.72 1.703,-0.72 1.619,0 2.542,1.475 2.542,3.034 0,1.583 -0.888,3.069 -2.53,3.069 -0.685,0 -1.319,-0.336 -1.775,-0.888 v 0.768 h -1.618 v 0.003 z m 4.257,-2.927 c 0,-0.862 -0.432,-1.559 -1.308,-1.559 -0.779,0 -1.295,0.646 -1.295,1.547 0,0.804 0.526,1.571 1.295,1.571 0.865,0.001 1.308,-0.707 1.308,-1.559 z"
                 id="path9413"
                 style="fill:#ffffff" />
              <path
                 d="m 236.925,217.885 c -0.72,0 -1.211,-0.385 -1.475,-0.995 -0.337,0.563 -1.043,1.114 -2.088,1.114 -1.295,0 -1.954,-0.84 -1.954,-1.715 0,-0.972 0.792,-1.919 2.423,-1.919 0.491,0 0.971,0.061 1.415,0.145 v -0.192 c 0,-0.575 -0.396,-0.959 -1.043,-0.959 -0.456,0 -0.828,0.204 -1.067,0.588 l -1.175,-0.876 c 0,0 0.671,-1.199 2.327,-1.199 1.631,0 2.626,0.973 2.626,2.375 v 1.764 c 0,0.216 0.144,0.348 0.359,0.348 h 0.24 v 1.523 l -0.588,-0.002 0,0 z m -1.679,-2.327 c -0.313,-0.061 -0.696,-0.119 -0.924,-0.119 -0.684,0 -1.211,0.228 -1.211,0.707 0,0.324 0.24,0.54 0.685,0.54 0.706,0 1.234,-0.493 1.45,-1.128 z"
                 id="path9415"
                 style="fill:#ffffff" />
              <path
                 d="m 242.337,214.011 c -0.3,-0.323 -0.564,-0.553 -1.043,-0.553 -0.78,0 -1.331,0.624 -1.331,1.487 0,0.899 0.551,1.463 1.331,1.463 0.479,0 0.839,-0.264 1.091,-0.623 l 1.259,0.959 c -0.6,0.815 -1.318,1.248 -2.351,1.248 -1.764,0 -3.01,-1.344 -3.01,-3.047 0,-1.703 1.246,-3.046 2.998,-3.046 0.924,0 1.654,0.396 2.219,1.031 l -1.163,1.081 z"
                 id="path9417"
                 style="fill:#ffffff" />
              <path
                 d="m 248.673,217.885 -1.644,-2.46 -0.504,0.576 v 1.884 h -1.703 v -8.995 h 1.703 v 5.121 l 1.632,-1.991 h 1.87 l -2.003,2.291 2.472,3.574 h -1.823 z"
                 id="path9419"
                 style="fill:#ffffff" />
              <path
                 d="m 255.153,217.885 v -0.769 c -0.468,0.552 -1.092,0.888 -1.774,0.888 -1.644,0 -2.53,-1.486 -2.53,-3.069 0,-1.561 0.923,-3.034 2.542,-3.034 0.647,0 1.247,0.239 1.703,0.72 v -3.729 h 1.679 v 8.995 l -1.62,-0.002 0,0 z m -0.036,-2.939 c 0,-0.899 -0.517,-1.547 -1.296,-1.547 -0.875,0 -1.307,0.695 -1.307,1.559 0,0.853 0.444,1.561 1.307,1.561 0.768,-0.001 1.296,-0.769 1.296,-1.573 z"
                 id="path9421"
                 style="fill:#ffffff" />
              <path
                 d="m 259.99,217.885 h -1.679 v -5.854 h 1.679 v 0.396 c 0,0.132 -0.023,0.348 -0.06,0.575 0.336,-0.636 0.863,-1.115 1.631,-1.115 v 1.644 c -0.875,0 -1.571,0.504 -1.571,1.463 v 2.891 z"
                 id="path9423"
                 style="fill:#ffffff" />
              <path
                 d="m 262.403,214.946 c 0,-1.739 1.344,-3.046 3.06,-3.046 1.715,0 3.058,1.307 3.058,3.046 0,1.739 -1.343,3.047 -3.058,3.047 -1.717,0 -3.06,-1.307 -3.06,-3.047 z m 4.473,0 c 0,-0.888 -0.564,-1.547 -1.415,-1.547 -0.864,0 -1.427,0.659 -1.427,1.547 0,0.899 0.587,1.56 1.427,1.56 0.852,0 1.415,-0.66 1.415,-1.56 z"
                 id="path9425"
                 style="fill:#ffffff" />
              <path
                 d="m 269.699,220.883 v -8.851 h 1.679 v 0.588 c 0.456,-0.479 1.055,-0.72 1.703,-0.72 1.619,0 2.542,1.475 2.542,3.034 0,1.583 -0.889,3.069 -2.531,3.069 -0.684,0 -1.319,-0.336 -1.775,-0.888 v 3.766 l -1.618,0.002 0,0 z m 4.258,-5.925 c 0,-0.862 -0.433,-1.559 -1.309,-1.559 -0.778,0 -1.295,0.646 -1.295,1.547 0,0.804 0.527,1.571 1.295,1.571 0.865,0.001 1.309,-0.707 1.309,-1.559 z"
                 id="path9427"
                 style="fill:#ffffff" />
              <path
                 d="m 280.99,215.918 c 0.408,0.469 1.056,0.659 1.619,0.659 0.359,0 0.624,-0.144 0.624,-0.358 0,-0.301 -0.3,-0.443 -0.792,-0.589 -0.912,-0.264 -2.039,-0.768 -2.039,-1.955 0,-1.127 1.092,-1.763 2.075,-1.763 0.888,0 1.511,0.3 2.039,0.853 l -0.936,1.008 c -0.252,-0.276 -0.721,-0.528 -1.067,-0.528 -0.312,0 -0.54,0.146 -0.54,0.372 0,0.288 0.335,0.432 0.863,0.588 0.888,0.265 2.026,0.815 2.026,1.932 0,1.104 -0.946,1.87 -2.267,1.87 -1.056,0 -1.919,-0.3 -2.555,-0.982 l 0.95,-1.107 z"
                 id="path9429"
                 style="fill:#ffffff" />
              <path
                 d="m 295.241,212.032 -2.016,5.854 h -1.907 l -0.876,-2.734 c -0.06,-0.168 -0.12,-0.479 -0.132,-0.54 l -0.144,0.54 -0.9,2.734 h -1.907 c -0.66,-1.943 -1.318,-3.897 -1.967,-5.854 h 1.812 l 0.91,3.226 c 0.084,0.324 0.168,0.708 0.192,0.78 0.012,-0.061 0.096,-0.432 0.204,-0.78 l 0.947,-3.226 h 1.703 l 0.924,3.226 c 0.096,0.35 0.167,0.744 0.18,0.792 0.012,-0.048 0.108,-0.432 0.216,-0.792 l 0.937,-3.226 h 1.824 z"
                 id="path9431"
                 style="fill:#ffffff" />
              <path
                 d="m 297.069,209.117 c 0.601,0 1.104,0.504 1.104,1.104 0,0.6 -0.504,1.104 -1.104,1.104 -0.6,0 -1.104,-0.504 -1.104,-1.104 0,-0.6 0.505,-1.104 1.104,-1.104 z m -0.875,8.768 v -5.854 h 1.716 v 5.854 h -1.716 z"
                 id="path9433"
                 style="fill:#ffffff" />
              <path
                 d="m 299.998,212.032 v -2.087 h 1.679 v 2.087 h 0.827 v 1.559 h -0.827 v 4.295 h -1.679 v -4.295 h -0.816 v -1.559 h 0.816 z"
                 id="path9435"
                 style="fill:#ffffff" />
              <path
                 d="m 307.496,214.011 c -0.302,-0.323 -0.564,-0.553 -1.044,-0.553 -0.78,0 -1.331,0.624 -1.331,1.487 0,0.899 0.551,1.463 1.331,1.463 0.479,0 0.839,-0.264 1.091,-0.623 l 1.26,0.959 c -0.6,0.815 -1.319,1.248 -2.351,1.248 -1.764,0 -3.012,-1.344 -3.012,-3.047 0,-1.703 1.248,-3.046 2.998,-3.046 0.924,0 1.656,0.396 2.22,1.031 l -1.162,1.081 z"
                 id="path9437"
                 style="fill:#ffffff" />
              <path
                 d="m 309.981,217.885 v -8.995 h 1.68 v 3.538 c 0,0.096 -0.013,0.252 -0.035,0.407 0.383,-0.552 0.971,-0.947 1.773,-0.947 1.212,0 2.123,0.947 2.123,2.519 v 3.479 h -1.689 v -3.383 c 0,-0.814 -0.518,-1.234 -1.08,-1.234 -0.517,0 -1.021,0.406 -1.092,1.247 v 3.37 l -1.68,-0.001 0,0 z"
                 id="path9439"
                 style="fill:#ffffff" />
              <path
                 d="m 318.393,215.318 c 0.12,0.972 0.72,1.331 1.379,1.331 0.648,0 1.092,-0.3 1.38,-0.72 l 1.115,0.804 c -0.624,0.84 -1.259,1.271 -2.591,1.271 -1.715,0 -2.975,-1.26 -2.975,-3.059 0,-1.667 1.128,-3.046 2.927,-3.046 1.979,0 2.759,1.415 2.759,3.214 v 0.204 l -3.994,0.001 0,0 z m 0.048,-1.031 h 2.314 c -0.108,-0.672 -0.624,-1.02 -1.141,-1.02 -0.538,0.001 -1.005,0.337 -1.173,1.02 z"
                 id="path9441"
                 style="fill:#ffffff" />
              <path
                 d="m 324.153,215.918 c 0.407,0.469 1.057,0.659 1.619,0.659 0.359,0 0.624,-0.144 0.624,-0.358 0,-0.301 -0.301,-0.443 -0.792,-0.589 -0.911,-0.264 -2.039,-0.768 -2.039,-1.955 0,-1.127 1.091,-1.763 2.075,-1.763 0.887,0 1.511,0.3 2.039,0.853 l -0.936,1.008 c -0.252,-0.276 -0.722,-0.528 -1.068,-0.528 -0.313,0 -0.539,0.146 -0.539,0.372 0,0.288 0.336,0.432 0.863,0.588 0.888,0.265 2.026,0.815 2.026,1.932 0,1.104 -0.946,1.87 -2.268,1.87 -1.055,0 -1.918,-0.3 -2.555,-0.982 l 0.951,-1.107 z"
                 id="path9443"
                 style="fill:#ffffff" />
              <path
                 d="m 333.26,212.032 v -2.087 h 1.68 v 2.087 h 0.828 v 1.559 h -0.828 v 4.295 h -1.68 v -4.295 h -0.814 v -1.559 h 0.814 z"
                 id="path9445"
                 style="fill:#ffffff" />
              <path
                 d="m 336.584,214.946 c 0,-1.739 1.344,-3.046 3.059,-3.046 1.715,0 3.06,1.307 3.06,3.046 0,1.739 -1.345,3.047 -3.06,3.047 -1.715,0 -3.059,-1.307 -3.059,-3.047 z m 4.475,0 c 0,-0.888 -0.563,-1.547 -1.416,-1.547 -0.863,0 -1.427,0.659 -1.427,1.547 0,0.899 0.587,1.56 1.427,1.56 0.851,0 1.416,-0.66 1.416,-1.56 z"
                 id="path9447"
                 style="fill:#ffffff" />
            </g>
          </g>
        </g>
      </g>
    </g>
  </g>
</svg>
