<?xml version="1.0" encoding="UTF-8" standalone="no"?>
<!-- Created with Inkscape (http://www.inkscape.org/) -->

<svg
   xmlns:dc="http://purl.org/dc/elements/1.1/"
   xmlns:cc="http://creativecommons.org/ns#"
   xmlns:rdf="http://www.w3.org/1999/02/22-rdf-syntax-ns#"
   xmlns:svg="http://www.w3.org/2000/svg"
   xmlns="http://www.w3.org/2000/svg"
   version="1.1"
   width="210mm"
   height="297mm"
   id="svg9637">
  <defs
     id="defs3" />
  <metadata
     id="metadata4">
    <rdf:RDF>
      <cc:Work
         rdf:about="">
        <dc:format>image/svg+xml</dc:format>
        <dc:type
           rdf:resource="http://purl.org/dc/dcmitype/StillImage" />
        <dc:title></dc:title>
      </cc:Work>
    </rdf:RDF>
  </metadata>
  <g
     id="layer1">
    <text
       x="30.609764"
       y="45.726276"
       id="text2985"
       xml:space="preserve"
       style="font-size:40px;font-style:normal;font-variant:normal;font-weight:normal;font-stretch:normal;line-height:125%;letter-spacing:0px;word-spacing:0px;fill:#000000;fill-opacity:1;stroke:none;font-family:ScratchFont;-inkscape-font-specification:ScratchFont"><tspan
         x="30.609764"
         y="45.726276"
         id="tspan2987">Scratch motion blocks</tspan></text>
    <g
       transform="matrix(2.5,0,0,2.5,-586.37604,-639.21298)"
       id="g9779">
      <path
         d="m 344.39,361.559 h -0.589 -6.133 -65.271 l -2.056,2.545 c -0.19,0.235 -0.476,0.372 -0.778,0.372 h -7.757 c -0.303,0 -0.588,-0.137 -0.778,-0.372 l -2.056,-2.545 h -8.083 c -2.762,0 -5,2.238 -5,5 v 12.167 c 0,2.762 2.238,4.999 5,4.999 h 8.088 l 2.051,2.539 c 0.19,0.235 0.477,0.373 0.778,0.373 h 7.757 c 0.304,0 0.588,-0.138 0.778,-0.373 l 2.051,-2.539 h 65.274 6.133 0.589 c 2.762,0 5,-2.237 5,-4.999 v -12.167 c 0.002,-2.761 -2.237,-5 -4.998,-5 z"
         id="path9781"
         style="fill:#4b67af" />
      <g
         id="g9783">
        <g
           id="g9785">
          <g
             id="g9787">
            <path
               d="m 257.063,373.456 c -0.3,-0.323 -0.563,-0.553 -1.043,-0.553 -0.78,0 -1.332,0.625 -1.332,1.488 0,0.897 0.552,1.463 1.332,1.463 0.479,0 0.839,-0.264 1.091,-0.623 l 1.26,0.959 c -0.601,0.814 -1.319,1.248 -2.352,1.248 -1.763,0 -3.01,-1.344 -3.01,-3.047 0,-1.703 1.247,-3.047 2.998,-3.047 0.924,0 1.655,0.396 2.219,1.031 l -1.163,1.081 z"
               id="path9789"
               style="fill:#ffffff" />
            <path
               d="m 259.548,377.329 v -8.993 h 1.679 v 3.536 c 0,0.097 -0.012,0.253 -0.036,0.408 0.385,-0.551 0.973,-0.946 1.775,-0.946 1.211,0 2.123,0.946 2.123,2.518 v 3.479 h -1.691 v -3.381 c 0,-0.815 -0.516,-1.235 -1.08,-1.235 -0.516,0 -1.02,0.407 -1.091,1.248 v 3.368 l -1.679,-0.002 0,0 z"
               id="path9791"
               style="fill:#ffffff" />
            <path
               d="m 271.978,377.329 c -0.72,0 -1.211,-0.383 -1.475,-0.993 -0.336,0.563 -1.043,1.114 -2.087,1.114 -1.295,0 -1.955,-0.84 -1.955,-1.715 0,-0.973 0.792,-1.92 2.423,-1.92 0.492,0 0.971,0.062 1.415,0.146 v -0.193 c 0,-0.574 -0.396,-0.959 -1.043,-0.959 -0.456,0 -0.828,0.205 -1.067,0.588 l -1.175,-0.875 c 0,0 0.671,-1.199 2.327,-1.199 1.631,0 2.626,0.972 2.626,2.375 v 1.762 c 0,0.218 0.144,0.349 0.36,0.349 h 0.239 v 1.522 l -0.588,-0.002 0,0 z m -1.68,-2.325 c -0.313,-0.062 -0.696,-0.119 -0.923,-0.119 -0.685,0 -1.211,0.227 -1.211,0.707 0,0.323 0.239,0.539 0.684,0.539 0.707,0 1.235,-0.493 1.45,-1.127 z"
               id="path9793"
               style="fill:#ffffff" />
            <path
               d="m 275.255,377.329 h -1.679 v -5.852 h 1.679 v 0.395 c 0,0.097 -0.012,0.24 -0.036,0.408 0.384,-0.551 0.972,-0.946 1.775,-0.946 1.211,0 2.123,0.946 2.123,2.518 v 3.479 h -1.691 v -3.381 c 0,-0.815 -0.516,-1.235 -1.08,-1.235 -0.504,0 -1.067,0.407 -1.091,1.188 v 3.426 l 0,0 z"
               id="path9795"
               style="fill:#ffffff" />
            <path
               d="m 284.314,371.573 0.743,-0.852 0.984,0.924 -0.696,0.695 c 0.336,0.407 0.528,0.91 0.528,1.463 0,1.463 -1.2,2.434 -2.675,2.434 -0.349,0 -0.647,-0.035 -0.937,-0.106 -0.516,0.432 -0.563,0.959 0.229,0.959 0.552,0 0.911,-0.228 1.715,-0.228 3.059,0 3.035,4.271 -1.007,4.271 -3.034,0 -3.658,-1.967 -2.627,-3.322 -0.432,-0.672 -0.252,-1.703 0.553,-2.326 -0.396,-0.42 -0.612,-0.996 -0.612,-1.68 0,-1.463 1.211,-2.447 2.688,-2.447 0.395,-0.002 0.779,0.071 1.114,0.215 z m -2.626,6.92 c -0.324,0.611 0.072,1.211 1.511,1.211 2.111,0 2.052,-1.463 0.948,-1.463 -0.647,0 -1.295,0.275 -2.146,0.275 -0.109,10e-4 -0.217,-0.01 -0.313,-0.023 z m 1.511,-3.635 c 0.659,0 1.091,-0.371 1.091,-1.055 0,-0.695 -0.433,-1.092 -1.091,-1.092 -0.672,0 -1.104,0.407 -1.104,1.092 10e-4,0.696 0.468,1.055 1.104,1.055 z"
               id="path9797"
               style="fill:#ffffff" />
            <path
               d="m 288.551,374.763 c 0.12,0.973 0.72,1.332 1.379,1.332 0.647,0 1.091,-0.301 1.379,-0.722 l 1.115,0.806 c -0.624,0.84 -1.259,1.271 -2.59,1.271 -1.715,0 -2.976,-1.26 -2.976,-3.059 0,-1.668 1.127,-3.047 2.927,-3.047 1.979,0 2.759,1.416 2.759,3.215 v 0.203 l -3.993,10e-4 0,0 z m 0.049,-1.032 h 2.314 c -0.108,-0.672 -0.624,-1.02 -1.14,-1.02 -0.539,0.002 -1.006,0.338 -1.174,1.02 z"
               id="path9799"
               style="fill:#ffffff" />
            <path
               d="m 298.691,374.354 -1.931,-2.877 h 1.883 l 0.827,1.246 c 0.145,0.229 0.288,0.541 0.288,0.541 0,0 0.132,-0.324 0.276,-0.541 l 0.839,-1.246 h 1.884 l -1.943,2.877 2.027,2.975 h -1.871 l -0.924,-1.391 c -0.156,-0.217 -0.275,-0.455 -0.288,-0.492 -0.012,0.023 -0.108,0.252 -0.264,0.492 l -0.948,1.391 h -1.871 l 2.016,-2.975 z"
               id="path9801"
               style="fill:#ffffff" />
            <path
               d="m 307.332,377.329 v -8.993 h 1.68 v 3.729 c 0.455,-0.479 1.055,-0.721 1.703,-0.721 1.619,0 2.542,1.475 2.542,3.035 0,1.582 -0.888,3.069 -2.53,3.069 -0.684,0 -1.32,-0.336 -1.774,-0.889 v 0.768 l -1.621,0.002 0,0 z m 4.258,-2.926 c 0,-0.863 -0.432,-1.559 -1.309,-1.559 -0.778,0 -1.295,0.646 -1.295,1.547 0,0.803 0.527,1.57 1.295,1.57 0.865,0.002 1.309,-0.705 1.309,-1.558 z"
               id="path9803"
               style="fill:#ffffff" />
            <path
               d="m 315.803,376.683 -2.182,-5.205 h 1.762 l 1.128,2.734 c 0.097,0.239 0.181,0.563 0.192,0.6 0,-0.025 0.106,-0.348 0.215,-0.6 l 1.176,-2.734 h 1.775 l -4.042,9.127 h -1.751 l 1.727,-3.922 z"
               id="path9805"
               style="fill:#ffffff" />
          </g>
        </g>
        <path
           d="m 324.279,373.098 c 0,4.244 3.44,7.684 7.686,7.684 h 3.15 c 4.243,0 7.686,-3.438 7.686,-7.684 0,-4.242 -3.441,-7.685 -7.686,-7.685 h -3.15 c -4.245,10e-4 -7.686,3.442 -7.686,7.685 0,0 0,-4.243 0,0 z"
           id="path9807"
           style="fill:#ffffff" />
      </g>
    </g>
    <g
       transform="matrix(2.5,0,0,2.5,-586.37604,-726.14478)"
       id="g9924">
      <path
         d="m 344.39,432.844 h -0.589 -6.133 -65.271 l -2.056,2.545 c -0.19,0.234 -0.476,0.372 -0.778,0.372 h -7.757 c -0.303,0 -0.588,-0.138 -0.778,-0.372 l -2.056,-2.545 h -8.083 c -2.762,0 -5,2.237 -5,5 v 12.167 c 0,2.762 2.238,4.999 5,4.999 h 8.088 l 2.051,2.539 c 0.19,0.235 0.477,0.373 0.778,0.373 h 7.757 c 0.304,0 0.588,-0.138 0.778,-0.373 l 2.051,-2.539 h 65.274 6.133 0.589 c 2.762,0 5,-2.237 5,-4.999 v -12.167 c 0.002,-2.763 -2.237,-5 -4.998,-5 z"
         id="path9926"
         style="fill:#4b67af" />
      <g
         id="g9928">
        <g
           id="g9930">
          <g
             id="g9932">
            <path
               d="m 257.063,444.406 c -0.3,-0.324 -0.563,-0.553 -1.043,-0.553 -0.78,0 -1.332,0.625 -1.332,1.488 0,0.897 0.552,1.463 1.332,1.463 0.479,0 0.839,-0.265 1.091,-0.623 l 1.26,0.959 c -0.601,0.813 -1.319,1.248 -2.352,1.248 -1.763,0 -3.01,-1.344 -3.01,-3.047 0,-1.703 1.247,-3.047 2.998,-3.047 0.924,0 1.655,0.396 2.219,1.03 l -1.163,1.082 z"
               id="path9934"
               style="fill:#ffffff" />
            <path
               d="m 259.548,448.279 v -8.994 h 1.679 v 3.537 c 0,0.097 -0.012,0.252 -0.036,0.408 0.385,-0.551 0.973,-0.947 1.775,-0.947 1.211,0 2.123,0.947 2.123,2.519 v 3.479 h -1.691 V 444.9 c 0,-0.816 -0.516,-1.236 -1.08,-1.236 -0.516,0 -1.02,0.408 -1.091,1.248 v 3.369 l -1.679,-0.002 0,0 z"
               id="path9936"
               style="fill:#ffffff" />
            <path
               d="m 271.978,448.279 c -0.72,0 -1.211,-0.383 -1.475,-0.994 -0.336,0.563 -1.043,1.115 -2.087,1.115 -1.295,0 -1.955,-0.84 -1.955,-1.715 0,-0.973 0.792,-1.92 2.423,-1.92 0.492,0 0.971,0.061 1.415,0.145 v -0.192 c 0,-0.574 -0.396,-0.959 -1.043,-0.959 -0.456,0 -0.828,0.205 -1.067,0.588 l -1.175,-0.875 c 0,0 0.671,-1.199 2.327,-1.199 1.631,0 2.626,0.971 2.626,2.375 v 1.762 c 0,0.218 0.144,0.349 0.36,0.349 h 0.239 v 1.522 l -0.588,-0.002 0,0 z m -1.68,-2.326 c -0.313,-0.061 -0.696,-0.118 -0.923,-0.118 -0.685,0 -1.211,0.227 -1.211,0.706 0,0.324 0.239,0.539 0.684,0.539 0.707,0 1.235,-0.491 1.45,-1.127 z"
               id="path9938"
               style="fill:#ffffff" />
            <path
               d="m 275.255,448.279 h -1.679 v -5.852 h 1.679 v 0.395 c 0,0.097 -0.012,0.24 -0.036,0.408 0.384,-0.551 0.972,-0.947 1.775,-0.947 1.211,0 2.123,0.947 2.123,2.519 v 3.479 h -1.691 V 444.9 c 0,-0.816 -0.516,-1.236 -1.08,-1.236 -0.504,0 -1.067,0.408 -1.091,1.188 v 3.427 l 0,0 z"
               id="path9940"
               style="fill:#ffffff" />
            <path
               d="m 284.314,442.523 0.743,-0.852 0.984,0.924 -0.696,0.695 c 0.336,0.407 0.528,0.909 0.528,1.463 0,1.463 -1.2,2.434 -2.675,2.434 -0.349,0 -0.647,-0.035 -0.937,-0.107 -0.516,0.433 -0.563,0.959 0.229,0.959 0.552,0 0.911,-0.227 1.715,-0.227 3.059,0 3.035,4.271 -1.007,4.271 -3.034,0 -3.658,-1.968 -2.627,-3.322 -0.432,-0.672 -0.252,-1.703 0.553,-2.326 -0.396,-0.42 -0.612,-0.996 -0.612,-1.68 0,-1.463 1.211,-2.447 2.688,-2.447 0.395,-10e-4 0.779,0.072 1.114,0.215 z m -2.626,6.92 c -0.324,0.611 0.072,1.211 1.511,1.211 2.111,0 2.052,-1.463 0.948,-1.463 -0.647,0 -1.295,0.275 -2.146,0.275 -0.109,0.002 -0.217,-0.011 -0.313,-0.023 z m 1.511,-3.634 c 0.659,0 1.091,-0.371 1.091,-1.055 0,-0.695 -0.433,-1.093 -1.091,-1.093 -0.672,0 -1.104,0.408 -1.104,1.093 10e-4,0.695 0.468,1.055 1.104,1.055 z"
               id="path9942"
               style="fill:#ffffff" />
            <path
               d="m 288.551,445.714 c 0.12,0.973 0.72,1.332 1.379,1.332 0.647,0 1.091,-0.302 1.379,-0.722 l 1.115,0.806 c -0.624,0.84 -1.259,1.271 -2.59,1.271 -1.715,0 -2.976,-1.26 -2.976,-3.059 0,-1.668 1.127,-3.047 2.927,-3.047 1.979,0 2.759,1.416 2.759,3.215 v 0.203 l -3.993,10e-4 0,0 z m 0.049,-1.032 h 2.314 c -0.108,-0.672 -0.624,-1.021 -1.14,-1.021 -0.539,10e-4 -1.006,0.337 -1.174,1.021 z"
               id="path9944"
               style="fill:#ffffff" />
            <path
               d="m 298.859,447.634 -2.183,-5.205 h 1.763 l 1.127,2.733 c 0.098,0.24 0.182,0.563 0.192,0.601 0,-0.025 0.108,-0.349 0.216,-0.601 l 1.176,-2.733 h 1.775 l -4.042,9.127 h -1.751 l 1.727,-3.922 z"
               id="path9946"
               style="fill:#ffffff" />
            <path
               d="m 307.32,448.279 v -8.994 H 309 v 3.73 c 0.455,-0.48 1.055,-0.721 1.703,-0.721 1.618,0 2.542,1.475 2.542,3.034 0,1.582 -0.889,3.07 -2.53,3.07 -0.685,0 -1.32,-0.336 -1.775,-0.889 v 0.768 l -1.62,0.002 0,0 z m 4.258,-2.925 c 0,-0.863 -0.433,-1.559 -1.309,-1.559 -0.778,0 -1.295,0.646 -1.295,1.547 0,0.803 0.527,1.569 1.295,1.569 0.866,10e-4 1.309,-0.706 1.309,-1.557 z"
               id="path9948"
               style="fill:#ffffff" />
            <path
               d="m 315.791,447.634 -2.183,-5.205 h 1.763 l 1.128,2.733 c 0.097,0.24 0.181,0.563 0.191,0.601 0,-0.025 0.107,-0.349 0.215,-0.601 l 1.177,-2.733 h 1.774 l -4.042,9.127 h -1.751 l 1.728,-3.922 z"
               id="path9950"
               style="fill:#ffffff" />
          </g>
        </g>
        <path
           d="m 324.279,444.049 c 0,4.244 3.44,7.684 7.686,7.684 h 3.15 c 4.243,0 7.686,-3.438 7.686,-7.684 0,-4.242 -3.441,-7.685 -7.686,-7.685 h -3.15 c -4.245,0 -7.686,3.442 -7.686,7.685 0,0 0,-4.243 0,0 z"
           id="path9952"
           style="fill:#ffffff" />
      </g>
    </g>
    <g
       transform="matrix(2.5,0,0,2.5,-270.31305,-1772.0587)"
       id="g10093">
      <path
         d="m 380.39,778.183 h -0.589 -6.133 -0.278 -0.589 -6.133 -12.668 -0.61 -0.589 -6.133 -0.278 -0.589 -6.133 -4.873 -7.795 -11.61 -0.589 -6.133 -0.278 -0.589 -0.006 -6.127 H 289 236.397 l -2.056,2.545 c -0.19,0.235 -0.476,0.372 -0.778,0.372 h -7.757 c -0.303,0 -0.588,-0.137 -0.778,-0.372 l -2.056,-2.545 h -8.083 c -2.762,0 -5,2.238 -5,5 v 12.167 c 0,2.762 2.238,4.999 5,4.999 h 8.088 l 2.051,2.539 c 0.19,0.236 0.477,0.373 0.778,0.373 h 7.757 c 0.304,0 0.588,-0.138 0.778,-0.373 l 2.051,-2.539 H 289 h 12.668 6.127 0.006 0.589 0.278 6.133 0.589 11.61 7.795 4.873 6.133 0.589 0.278 6.133 0.589 0.61 12.668 6.133 0.589 0.278 6.133 0.589 c 2.762,0 5,-2.237 5,-4.999 v -12.167 c 0,-2.761 -2.239,-5 -5,-5 z"
         id="path10095"
         style="fill:#4b67af" />
      <g
         id="g10097">
        <g
           id="g10099">
          <g
             id="g10101">
            <path
               d="m 221.72,787.197 0.743,-0.852 0.983,0.924 -0.695,0.695 c 0.336,0.408 0.527,0.91 0.527,1.463 0,1.463 -1.199,2.434 -2.675,2.434 -0.348,0 -0.646,-0.035 -0.936,-0.106 -0.517,0.432 -0.563,0.959 0.228,0.959 0.552,0 0.912,-0.228 1.715,-0.228 3.059,0 3.034,4.271 -1.008,4.271 -3.034,0 -3.658,-1.967 -2.626,-3.322 -0.432,-0.672 -0.252,-1.703 0.552,-2.326 -0.396,-0.42 -0.611,-0.996 -0.611,-1.68 0,-1.463 1.211,-2.447 2.687,-2.447 0.396,-0.002 0.78,0.071 1.116,0.215 z m -2.627,6.92 c -0.324,0.611 0.072,1.211 1.511,1.211 2.111,0 2.051,-1.463 0.948,-1.463 -0.648,0 -1.295,0.275 -2.147,0.275 -0.108,10e-4 -0.216,-0.01 -0.312,-0.023 z m 1.511,-3.635 c 0.66,0 1.091,-0.371 1.091,-1.055 0,-0.695 -0.432,-1.092 -1.091,-1.092 -0.671,0 -1.104,0.407 -1.104,1.092 0.001,0.696 0.469,1.055 1.104,1.055 z"
               id="path10103"
               style="fill:#ffffff" />
            <path
               d="m 224.626,792.953 v -8.994 h 1.703 v 8.994 h -1.703 z"
               id="path10105"
               style="fill:#ffffff" />
            <path
               d="m 228.801,784.186 c 0.6,0 1.104,0.504 1.104,1.104 0,0.601 -0.504,1.104 -1.104,1.104 -0.6,0 -1.104,-0.504 -1.104,-1.104 0,-0.6 0.505,-1.104 1.104,-1.104 z m -0.875,8.767 v -5.852 h 1.715 v 5.852 h -1.715 z"
               id="path10107"
               style="fill:#ffffff" />
            <path
               d="m 235.231,792.953 v -0.768 c -0.468,0.553 -1.092,0.889 -1.774,0.889 -1.644,0 -2.53,-1.487 -2.53,-3.069 0,-1.562 0.923,-3.035 2.542,-3.035 0.647,0 1.247,0.239 1.703,0.721 v -3.729 h 1.679 v 8.993 l -1.62,-0.002 0,0 z m -0.036,-2.937 c 0,-0.9 -0.516,-1.547 -1.295,-1.547 -0.875,0 -1.307,0.694 -1.307,1.559 0,0.853 0.444,1.56 1.307,1.56 0.767,-10e-4 1.295,-0.77 1.295,-1.572 z"
               id="path10109"
               style="fill:#ffffff" />
            <path
               d="m 239.72,790.387 c 0.12,0.973 0.72,1.332 1.379,1.332 0.647,0 1.091,-0.302 1.379,-0.722 l 1.115,0.806 c -0.624,0.84 -1.259,1.271 -2.59,1.271 -1.715,0 -2.976,-1.26 -2.976,-3.059 0,-1.668 1.127,-3.047 2.927,-3.047 1.979,0 2.759,1.416 2.759,3.215 v 0.203 l -3.993,10e-4 0,0 z m 0.049,-1.032 h 2.314 c -0.108,-0.672 -0.624,-1.02 -1.14,-1.02 -0.539,0.002 -1.006,0.338 -1.174,1.02 z"
               id="path10111"
               style="fill:#ffffff" />
          </g>
        </g>
        <g
           id="g10113">
          <g
             id="g10115">
            <path
               d="m 271.65,790.986 c 0.408,0.469 1.056,0.66 1.619,0.66 0.36,0 0.624,-0.145 0.624,-0.359 0,-0.301 -0.3,-0.442 -0.792,-0.588 -0.912,-0.264 -2.039,-0.768 -2.039,-1.955 0,-1.127 1.091,-1.764 2.075,-1.764 0.888,0 1.511,0.301 2.039,0.852 l -0.937,1.009 c -0.252,-0.275 -0.72,-0.527 -1.066,-0.527 -0.313,0 -0.54,0.146 -0.54,0.371 0,0.289 0.335,0.432 0.863,0.588 0.888,0.264 2.026,0.816 2.026,1.932 0,1.104 -0.946,1.871 -2.267,1.871 -1.056,0 -1.919,-0.301 -2.555,-0.983 l 0.95,-1.107 z"
               id="path10117"
               style="fill:#ffffff" />
            <path
               d="m 278.033,790.387 c 0.119,0.973 0.72,1.332 1.379,1.332 0.646,0 1.091,-0.302 1.379,-0.722 l 1.114,0.806 c -0.624,0.84 -1.259,1.271 -2.59,1.271 -1.715,0 -2.975,-1.26 -2.975,-3.059 0,-1.668 1.127,-3.047 2.926,-3.047 1.979,0 2.759,1.416 2.759,3.215 v 0.203 l -3.992,10e-4 0,0 z m 0.048,-1.032 h 2.313 c -0.107,-0.672 -0.624,-1.02 -1.139,-1.02 -0.538,0.002 -1.006,0.338 -1.174,1.02 z"
               id="path10119"
               style="fill:#ffffff" />
            <path
               d="m 287.02,789.08 c -0.3,-0.323 -0.563,-0.553 -1.043,-0.553 -0.78,0 -1.332,0.625 -1.332,1.488 0,0.897 0.552,1.463 1.332,1.463 0.479,0 0.839,-0.264 1.091,-0.623 l 1.26,0.959 c -0.601,0.814 -1.319,1.248 -2.352,1.248 -1.763,0 -3.01,-1.344 -3.01,-3.047 0,-1.703 1.247,-3.047 2.998,-3.047 0.924,0 1.655,0.396 2.219,1.031 l -1.163,1.081 z"
               id="path10121"
               style="fill:#ffffff" />
            <path
               d="m 290.093,790.986 c 0.408,0.469 1.055,0.66 1.619,0.66 0.359,0 0.624,-0.145 0.624,-0.359 0,-0.301 -0.3,-0.442 -0.792,-0.588 -0.912,-0.264 -2.039,-0.768 -2.039,-1.955 0,-1.127 1.091,-1.764 2.075,-1.764 0.888,0 1.511,0.301 2.039,0.852 l -0.937,1.009 c -0.252,-0.275 -0.72,-0.527 -1.066,-0.527 -0.313,0 -0.54,0.146 -0.54,0.371 0,0.289 0.335,0.432 0.862,0.588 0.889,0.264 2.027,0.816 2.027,1.932 0,1.104 -0.947,1.871 -2.267,1.871 -1.057,0 -1.92,-0.301 -2.556,-0.983 l 0.951,-1.107 z"
               id="path10123"
               style="fill:#ffffff" />
            <path
               d="m 299.201,787.102 v -2.088 h 1.679 v 2.088 h 0.827 v 1.559 h -0.827 v 4.293 h -1.679 v -4.293 h -0.816 v -1.559 h 0.816 z"
               id="path10125"
               style="fill:#ffffff" />
            <path
               d="m 302.525,790.016 c 0,-1.74 1.344,-3.047 3.06,-3.047 1.715,0 3.058,1.307 3.058,3.047 0,1.738 -1.343,3.047 -3.058,3.047 -1.717,0 -3.06,-1.308 -3.06,-3.047 z m 4.473,0 c 0,-0.889 -0.563,-1.547 -1.414,-1.547 -0.864,0 -1.429,0.658 -1.429,1.547 0,0.897 0.589,1.559 1.429,1.559 0.851,-0.001 1.414,-0.661 1.414,-1.559 z"
               id="path10127"
               style="fill:#ffffff" />
            <path
               d="m 314.788,789.979 -1.932,-2.877 h 1.883 l 0.828,1.246 c 0.144,0.229 0.287,0.541 0.287,0.541 0,0 0.132,-0.324 0.275,-0.541 l 0.84,-1.246 h 1.883 l -1.941,2.877 2.025,2.975 h -1.871 l -0.923,-1.391 c -0.156,-0.217 -0.275,-0.455 -0.288,-0.492 -0.012,0.023 -0.106,0.252 -0.264,0.492 l -0.947,1.391 h -1.871 l 2.016,-2.975 z"
               id="path10129"
               style="fill:#ffffff" />
            <path
               d="m 320.668,787.354 c 0.601,0 1.104,0.502 1.104,1.104 0,0.6 -0.503,1.102 -1.104,1.102 -0.601,0 -1.104,-0.502 -1.104,-1.102 10e-4,-0.603 0.504,-1.104 1.104,-1.104 z m 0,3.501 c 0.601,0 1.104,0.504 1.104,1.104 0,0.601 -0.503,1.104 -1.104,1.104 -0.601,0 -1.104,-0.504 -1.104,-1.104 10e-4,-0.6 0.504,-1.104 1.104,-1.104 z"
               id="path10131"
               style="fill:#ffffff" />
          </g>
        </g>
        <g
           id="g10133">
          <g
             id="g10135">
            <path
               d="m 349.598,792.307 -2.184,-5.205 h 1.764 l 1.127,2.734 c 0.096,0.239 0.18,0.563 0.191,0.6 0,-0.025 0.107,-0.348 0.217,-0.6 l 1.175,-2.734 h 1.775 l -4.042,9.127 h -1.751 l 1.728,-3.922 z"
               id="path10137"
               style="fill:#ffffff" />
            <path
               d="m 355.297,787.354 c 0.601,0 1.104,0.502 1.104,1.104 0,0.6 -0.503,1.102 -1.104,1.102 -0.601,0 -1.104,-0.502 -1.104,-1.102 0.001,-0.603 0.504,-1.104 1.104,-1.104 z m 0,3.501 c 0.601,0 1.104,0.504 1.104,1.104 0,0.601 -0.503,1.104 -1.104,1.104 -0.601,0 -1.104,-0.504 -1.104,-1.104 0.001,-0.6 0.504,-1.104 1.104,-1.104 z"
               id="path10139"
               style="fill:#ffffff" />
          </g>
        </g>
        <path
           d="m 248.467,789.238 c 0,4.244 3.438,7.685 7.684,7.685 h 3.152 c 4.242,0 7.684,-3.439 7.684,-7.685 0,-4.242 -3.44,-7.684 -7.684,-7.684 h -3.152 c -4.245,10e-4 -7.684,3.442 -7.684,7.684 0,0 0,-4.242 0,0 z"
           id="path10141"
           style="fill:#ffffff" />
        <path
           d="m 324.467,789.238 c 0,4.244 3.438,7.685 7.684,7.685 h 3.152 c 4.242,0 7.684,-3.439 7.684,-7.685 0,-4.242 -3.44,-7.684 -7.684,-7.684 h -3.152 c -4.245,10e-4 -7.684,3.442 -7.684,7.684 0,0 0,-4.242 0,0 z"
           id="path10143"
           style="fill:#ffffff" />
        <path
           d="m 359.467,789.238 c 0,4.244 3.438,7.685 7.684,7.685 h 3.152 c 4.242,0 7.684,-3.439 7.684,-7.685 0,-4.242 -3.44,-7.684 -7.684,-7.684 h -3.152 c -4.245,10e-4 -7.684,3.442 -7.684,7.684 0,0 0,-4.242 0,0 z"
           id="path10145"
           style="fill:#ffffff" />
      </g>
    </g>
    <g
       transform="matrix(2.5,0,0,2.5,-586.37604,-1408.2116)"
       id="g10264">
      <path
         d="m 344.39,742.183 h -0.589 -6.133 -65.271 l -2.056,2.545 c -0.19,0.235 -0.476,0.372 -0.778,0.372 h -7.757 c -0.303,0 -0.588,-0.137 -0.778,-0.372 l -2.056,-2.545 h -8.083 c -2.762,0 -5,2.238 -5,5 v 12.167 c 0,2.762 2.238,4.999 5,4.999 h 8.088 l 2.051,2.539 c 0.19,0.236 0.477,0.373 0.778,0.373 h 7.757 c 0.304,0 0.588,-0.138 0.778,-0.373 l 2.051,-2.539 h 65.274 6.133 0.589 c 2.762,0 5,-2.237 5,-4.999 v -12.167 c 0.002,-2.761 -2.237,-5 -4.998,-5 z"
         id="path10266"
         style="fill:#4b67af" />
      <g
         id="g10268">
        <g
           id="g10270">
          <g
             id="g10272">
            <path
               d="m 258.013,751.197 0.743,-0.852 0.984,0.924 -0.696,0.695 c 0.336,0.408 0.527,0.91 0.527,1.463 0,1.463 -1.199,2.434 -2.675,2.434 -0.348,0 -0.646,-0.035 -0.936,-0.106 -0.517,0.432 -0.563,0.959 0.228,0.959 0.553,0 0.912,-0.228 1.715,-0.228 3.059,0 3.034,4.271 -1.008,4.271 -3.034,0 -3.658,-1.967 -2.626,-3.322 -0.432,-0.672 -0.252,-1.703 0.552,-2.326 -0.396,-0.42 -0.611,-0.996 -0.611,-1.68 0,-1.463 1.211,-2.447 2.687,-2.447 0.396,-0.002 0.78,0.071 1.116,0.215 z m -2.627,6.92 c -0.324,0.611 0.072,1.211 1.511,1.211 2.111,0 2.051,-1.463 0.948,-1.463 -0.648,0 -1.295,0.275 -2.147,0.275 -0.108,10e-4 -0.216,-0.01 -0.312,-0.023 z m 1.511,-3.635 c 0.66,0 1.091,-0.371 1.091,-1.055 0,-0.695 -0.432,-1.092 -1.091,-1.092 -0.671,0 -1.104,0.407 -1.104,1.092 0.001,0.696 0.469,1.055 1.104,1.055 z"
               id="path10274"
               style="fill:#ffffff" />
            <path
               d="m 260.559,754.016 c 0,-1.74 1.343,-3.047 3.06,-3.047 1.715,0 3.058,1.307 3.058,3.047 0,1.738 -1.343,3.047 -3.058,3.047 -1.717,0 -3.06,-1.308 -3.06,-3.047 z m 4.474,0 c 0,-0.889 -0.564,-1.547 -1.415,-1.547 -0.864,0 -1.428,0.658 -1.428,1.547 0,0.897 0.587,1.559 1.428,1.559 0.851,-0.001 1.415,-0.661 1.415,-1.559 z"
               id="path10276"
               style="fill:#ffffff" />
            <path
               d="m 271.911,751.102 v -2.088 h 1.679 v 2.088 h 0.828 v 1.559 h -0.828 v 4.293 h -1.679 v -4.293 h -0.815 v -1.559 h 0.815 z"
               id="path10278"
               style="fill:#ffffff" />
            <path
               d="m 275.235,754.016 c 0,-1.74 1.344,-3.047 3.06,-3.047 1.715,0 3.058,1.307 3.058,3.047 0,1.738 -1.343,3.047 -3.058,3.047 -1.717,0 -3.06,-1.308 -3.06,-3.047 z m 4.473,0 c 0,-0.889 -0.564,-1.547 -1.415,-1.547 -0.864,0 -1.427,0.658 -1.427,1.547 0,0.897 0.587,1.559 1.427,1.559 0.852,-0.001 1.415,-0.661 1.415,-1.559 z"
               id="path10280"
               style="fill:#ffffff" />
          </g>
        </g>
        <rect
           width="55.388"
           height="14.779"
           x="286.306"
           y="745.66498"
           id="rect10282"
           style="fill:#ffffff" />
      </g>
    </g>
    <g
       transform="matrix(2.5,0,0,2.5,-577.62604,-1236.9309)"
       id="g10394">
      <path
         d="m 347.89,710.183 h -0.589 -6.133 -0.278 -0.589 -6.133 -12.668 -52.603 l -2.056,2.545 c -0.19,0.235 -0.476,0.372 -0.778,0.372 h -7.757 c -0.303,0 -0.588,-0.137 -0.778,-0.372 l -2.056,-2.545 h -8.083 c -2.762,0 -5,2.238 -5,5 v 12.167 c 0,2.762 2.238,4.999 5,4.999 h 8.088 l 2.051,2.539 c 0.19,0.236 0.477,0.373 0.778,0.373 h 7.757 c 0.304,0 0.588,-0.138 0.778,-0.373 l 2.051,-2.539 h 52.608 12.668 6.133 0.589 0.278 6.133 0.589 c 2.762,0 5,-2.237 5,-4.999 v -12.167 c 0,-2.761 -2.239,-5 -5,-5 z"
         id="path10396"
         style="fill:#4b67af" />
      <g
         id="g10398">
        <g
           id="g10400">
          <g
             id="g10402">
            <path
               d="m 253.72,719.197 0.743,-0.852 0.983,0.924 -0.695,0.695 c 0.336,0.408 0.527,0.91 0.527,1.463 0,1.463 -1.199,2.434 -2.675,2.434 -0.348,0 -0.646,-0.035 -0.936,-0.106 -0.517,0.432 -0.563,0.959 0.228,0.959 0.552,0 0.912,-0.228 1.715,-0.228 3.059,0 3.034,4.271 -1.008,4.271 -3.034,0 -3.658,-1.967 -2.626,-3.322 -0.432,-0.672 -0.252,-1.703 0.552,-2.326 -0.396,-0.42 -0.611,-0.996 -0.611,-1.68 0,-1.463 1.211,-2.447 2.687,-2.447 0.396,-0.002 0.78,0.071 1.116,0.215 z m -2.627,6.92 c -0.324,0.611 0.072,1.211 1.511,1.211 2.111,0 2.051,-1.463 0.948,-1.463 -0.648,0 -1.295,0.275 -2.147,0.275 -0.108,10e-4 -0.216,-0.01 -0.312,-0.023 z m 1.511,-3.635 c 0.66,0 1.091,-0.371 1.091,-1.055 0,-0.695 -0.432,-1.092 -1.091,-1.092 -0.671,0 -1.104,0.407 -1.104,1.092 0.001,0.696 0.469,1.055 1.104,1.055 z"
               id="path10404"
               style="fill:#ffffff" />
            <path
               d="m 256.266,722.016 c 0,-1.74 1.343,-3.047 3.06,-3.047 1.715,0 3.058,1.307 3.058,3.047 0,1.738 -1.343,3.047 -3.058,3.047 -1.717,0 -3.06,-1.308 -3.06,-3.047 z m 4.474,0 c 0,-0.889 -0.563,-1.547 -1.414,-1.547 -0.864,0 -1.428,0.658 -1.428,1.547 0,0.897 0.587,1.559 1.428,1.559 0.85,-0.001 1.414,-0.661 1.414,-1.559 z"
               id="path10406"
               style="fill:#ffffff" />
            <path
               d="m 267.618,719.102 v -2.088 h 1.679 v 2.088 h 0.828 v 1.559 h -0.828 v 4.293 h -1.679 v -4.293 h -0.815 v -1.559 h 0.815 z"
               id="path10408"
               style="fill:#ffffff" />
            <path
               d="m 270.942,722.016 c 0,-1.74 1.344,-3.047 3.06,-3.047 1.715,0 3.058,1.307 3.058,3.047 0,1.738 -1.343,3.047 -3.058,3.047 -1.717,0 -3.06,-1.308 -3.06,-3.047 z m 4.474,0 c 0,-0.889 -0.564,-1.547 -1.415,-1.547 -0.864,0 -1.428,0.658 -1.428,1.547 0,0.897 0.588,1.559 1.428,1.559 0.851,-0.001 1.415,-0.661 1.415,-1.559 z"
               id="path10410"
               style="fill:#ffffff" />
            <path
               d="m 283.205,721.979 -1.932,-2.877 h 1.883 l 0.828,1.246 c 0.145,0.229 0.288,0.541 0.288,0.541 0,0 0.132,-0.324 0.276,-0.541 l 0.839,-1.246 h 1.883 l -1.942,2.877 2.026,2.975 h -1.871 l -0.923,-1.391 c -0.156,-0.217 -0.275,-0.455 -0.288,-0.492 -0.012,0.023 -0.107,0.252 -0.264,0.492 l -0.948,1.391 h -1.871 l 2.016,-2.975 z"
               id="path10412"
               style="fill:#ffffff" />
            <path
               d="m 289.085,719.354 c 0.6,0 1.104,0.502 1.104,1.104 0,0.6 -0.503,1.102 -1.104,1.102 -0.601,0 -1.104,-0.502 -1.104,-1.102 0.001,-0.603 0.505,-1.104 1.104,-1.104 z m 0,3.501 c 0.6,0 1.104,0.504 1.104,1.104 0,0.601 -0.503,1.104 -1.104,1.104 -0.601,0 -1.104,-0.504 -1.104,-1.104 0.001,-0.6 0.505,-1.104 1.104,-1.104 z"
               id="path10414"
               style="fill:#ffffff" />
            <path
               d="M 318.183,724.307 316,719.102 h 1.763 l 1.128,2.734 c 0.096,0.239 0.18,0.563 0.191,0.6 0,-0.025 0.106,-0.348 0.216,-0.6 l 1.175,-2.734 h 1.775 l -4.041,9.127 h -1.752 l 1.728,-3.922 z"
               id="path10416"
               style="fill:#ffffff" />
            <path
               d="m 323.883,719.354 c 0.6,0 1.104,0.502 1.104,1.104 0,0.6 -0.504,1.102 -1.104,1.102 -0.6,0 -1.104,-0.502 -1.104,-1.102 0,-0.603 0.504,-1.104 1.104,-1.104 z m 0,3.501 c 0.6,0 1.104,0.504 1.104,1.104 0,0.601 -0.504,1.104 -1.104,1.104 -0.6,0 -1.104,-0.504 -1.104,-1.104 0,-0.6 0.504,-1.104 1.104,-1.104 z"
               id="path10418"
               style="fill:#ffffff" />
          </g>
        </g>
        <path
           d="m 292.467,721.238 c 0,4.244 3.438,7.685 7.684,7.685 h 3.152 c 4.242,0 7.684,-3.439 7.684,-7.685 0,-4.242 -3.44,-7.684 -7.684,-7.684 h -3.152 c -4.245,10e-4 -7.684,3.442 -7.684,7.684 0,0 0,-4.242 0,0 z"
           id="path10420"
           style="fill:#ffffff" />
        <path
           d="m 327.467,721.238 c 0,4.244 3.438,7.685 7.684,7.685 h 3.152 c 4.242,0 7.684,-3.439 7.684,-7.685 0,-4.242 -3.44,-7.684 -7.684,-7.684 h -3.152 c -4.245,10e-4 -7.684,3.442 -7.684,7.684 0,0 0,-4.242 0,0 z"
           id="path10422"
           style="fill:#ffffff" />
      </g>
    </g>
    <g
       transform="matrix(2.5,0,0,2.5,-201.76805,-782.79018)"
       id="g10549">
      <path
         d="m 352.974,565.039 h -0.589 -0.635 -0.944 -3 -1.554 -6.293 -1.004 -31.871 -43.271 l -2.056,2.545 c -0.19,0.235 -0.476,0.372 -0.778,0.372 h -7.757 c -0.302,0 -0.588,-0.137 -0.778,-0.372 l -2.056,-2.545 h -8.083 c -2.761,0 -5,2.238 -5,5 v 12.167 c 0,2.763 2.239,4.999 5,4.999 h 8.088 l 2.051,2.539 c 0.19,0.236 0.477,0.373 0.778,0.373 h 7.757 c 0.302,0 0.588,-0.137 0.778,-0.373 l 2.051,-2.539 h 43.274 31.871 1.004 6.293 1.554 3 0.944 0.635 0.589 c 2.762,0 5,-2.236 5,-4.999 v -12.167 c 0.002,-2.762 -2.237,-5 -4.998,-5 z"
         id="path10551"
         style="fill:#4b67af" />
      <g
         id="g10553">
        <g
           id="g10555">
          <g
             id="g10557">
            <path
               d="m 247.428,572.044 c 0.6,0 1.104,0.504 1.104,1.104 0,0.6 -0.505,1.104 -1.104,1.104 -0.599,0 -1.104,-0.505 -1.104,-1.104 0,-0.599 0.504,-1.104 1.104,-1.104 z m -0.875,8.767 v -5.854 h 1.715 v 5.854 h -1.715 z"
               id="path10559"
               style="fill:#ffffff" />
            <path
               d="m 251.915,576.445 v 4.365 h -1.703 v -4.365 h -0.84 v -1.488 h 0.84 v -1.055 c 0,-1.416 0.995,-2.229 2.159,-2.229 0.406,0 0.768,0.069 1.066,0.203 l -0.552,1.428 c -0.108,-0.062 -0.24,-0.097 -0.372,-0.097 -0.384,0 -0.6,0.3 -0.6,0.814 v 0.936 h 1.234 v 1.488 h -1.232 z"
               id="path10561"
               style="fill:#ffffff" />
            <path
               d="m 257.567,577.871 c 0,-1.737 1.345,-3.045 3.06,-3.045 1.715,0 3.059,1.308 3.059,3.045 0,1.74 -1.344,3.047 -3.059,3.047 -1.715,0 -3.06,-1.307 -3.06,-3.047 z m 4.474,0 c 0,-0.887 -0.563,-1.547 -1.415,-1.547 -0.863,0 -1.428,0.66 -1.428,1.547 0,0.9 0.588,1.562 1.428,1.562 0.852,-10e-4 1.415,-0.662 1.415,-1.562 z"
               id="path10563"
               style="fill:#ffffff" />
            <path
               d="m 266.543,580.811 h -1.681 v -5.854 h 1.681 v 0.396 c 0,0.096 -0.014,0.24 -0.036,0.408 0.384,-0.553 0.972,-0.949 1.773,-0.949 1.213,0 2.123,0.949 2.123,2.52 v 3.479 h -1.689 v -3.383 c 0,-0.814 -0.518,-1.234 -1.08,-1.234 -0.504,0 -1.067,0.406 -1.091,1.188 v 3.429 l 0,0 z"
               id="path10565"
               style="fill:#ffffff" />
            <path
               d="m 276.875,578.244 c 0.12,0.972 0.72,1.33 1.379,1.33 0.647,0 1.092,-0.299 1.38,-0.719 l 1.115,0.803 c -0.624,0.84 -1.261,1.271 -2.591,1.271 -1.716,0 -2.976,-1.26 -2.976,-3.06 0,-1.666 1.128,-3.045 2.927,-3.045 1.979,0 2.76,1.414 2.76,3.213 v 0.205 l -3.994,0.002 0,0 z m 0.048,-1.03 h 2.313 c -0.106,-0.673 -0.623,-1.021 -1.139,-1.021 -0.538,0 -1.006,0.336 -1.174,1.021 z"
               id="path10567"
               style="fill:#ffffff" />
            <path
               d="m 286.006,580.811 v -0.769 c -0.468,0.552 -1.092,0.888 -1.775,0.888 -1.644,0 -2.529,-1.486 -2.529,-3.07 0,-1.559 0.923,-3.033 2.542,-3.033 0.646,0 1.247,0.238 1.702,0.72 v -3.73 h 1.681 v 8.996 l -1.621,-0.002 0,0 z m -0.036,-2.94 c 0,-0.897 -0.516,-1.547 -1.296,-1.547 -0.875,0 -1.307,0.695 -1.307,1.56 0,0.852 0.442,1.561 1.307,1.561 0.767,-0.002 1.296,-0.768 1.296,-1.574 z"
               id="path10569"
               style="fill:#ffffff" />
            <path
               d="m 292.821,575.053 0.743,-0.853 0.984,0.924 -0.696,0.695 c 0.336,0.408 0.528,0.912 0.528,1.463 0,1.465 -1.2,2.437 -2.675,2.437 -0.349,0 -0.647,-0.035 -0.937,-0.107 -0.516,0.433 -0.563,0.959 0.229,0.959 0.552,0 0.912,-0.229 1.716,-0.229 3.058,0 3.034,4.27 -1.008,4.27 -3.034,0 -3.658,-1.967 -2.627,-3.322 -0.433,-0.672 -0.252,-1.702 0.552,-2.325 -0.396,-0.42 -0.611,-0.996 -0.611,-1.681 0,-1.463 1.211,-2.444 2.688,-2.444 0.395,-10e-4 0.778,0.07 1.114,0.213 z m -2.627,6.92 c -0.322,0.613 0.072,1.213 1.513,1.213 2.109,0 2.051,-1.465 0.946,-1.465 -0.646,0 -1.295,0.276 -2.146,0.276 -0.109,0.001 -0.216,-0.011 -0.313,-0.024 z m 1.512,-3.632 c 0.658,0 1.091,-0.373 1.091,-1.058 0,-0.694 -0.433,-1.09 -1.091,-1.09 -0.672,0 -1.104,0.406 -1.104,1.09 0.001,0.697 0.468,1.058 1.104,1.058 z"
               id="path10571"
               style="fill:#ffffff" />
            <path
               d="m 297.059,578.244 c 0.12,0.972 0.72,1.33 1.379,1.33 0.648,0 1.092,-0.299 1.38,-0.719 l 1.115,0.803 c -0.624,0.84 -1.259,1.271 -2.591,1.271 -1.715,0 -2.975,-1.26 -2.975,-3.06 0,-1.666 1.128,-3.045 2.927,-3.045 1.979,0 2.759,1.414 2.759,3.213 v 0.205 l -3.994,0.002 0,0 z m 0.047,-1.03 h 2.315 c -0.108,-0.673 -0.624,-1.021 -1.141,-1.021 -0.538,0 -1.006,0.336 -1.174,1.021 z"
               id="path10573"
               style="fill:#ffffff" />
            <path
               d="m 301.968,579.791 c 0,-0.541 0.456,-1.079 1.115,-1.079 0.814,0 1.224,0.637 1.224,1.438 0,0.947 -0.66,1.979 -1.644,2.303 -0.155,-0.274 -0.313,-0.551 -0.456,-0.828 0.553,-0.286 0.721,-0.646 0.815,-0.778 -0.623,-0.062 -1.054,-0.456 -1.054,-1.056 z"
               id="path10575"
               style="fill:#ffffff" />
            <path
               d="m 309.179,580.811 v -8.996 h 1.679 v 3.73 c 0.456,-0.48 1.057,-0.72 1.703,-0.72 1.619,0 2.543,1.476 2.543,3.033 0,1.584 -0.888,3.07 -2.531,3.07 -0.684,0 -1.317,-0.336 -1.773,-0.887 v 0.768 l -1.621,0.002 0,0 z m 4.258,-2.927 c 0,-0.863 -0.433,-1.56 -1.308,-1.56 -0.779,0 -1.295,0.648 -1.295,1.547 0,0.806 0.526,1.572 1.295,1.572 0.863,0 1.308,-0.709 1.308,-1.559 z"
               id="path10577"
               style="fill:#ffffff" />
            <path
               d="m 315.923,577.871 c 0,-1.737 1.343,-3.045 3.059,-3.045 1.715,0 3.059,1.308 3.059,3.045 0,1.74 -1.344,3.047 -3.059,3.047 -1.716,10e-4 -3.059,-1.307 -3.059,-3.047 z m 4.473,0 c 0,-0.887 -0.563,-1.547 -1.415,-1.547 -0.863,0 -1.427,0.66 -1.427,1.547 0,0.9 0.587,1.562 1.427,1.562 0.852,-10e-4 1.415,-0.662 1.415,-1.562 z"
               id="path10579"
               style="fill:#ffffff" />
            <path
               d="m 328.712,580.811 h -1.679 v -0.396 c 0,-0.096 0.012,-0.239 0.034,-0.407 -0.383,0.553 -0.982,0.946 -1.774,0.946 -1.211,0 -2.122,-0.946 -2.122,-2.518 v -3.479 h 1.689 v 3.384 c 0,0.813 0.517,1.233 1.08,1.233 0.504,0 1.056,-0.395 1.093,-1.188 v -3.431 h 1.679 v 5.856 z"
               id="path10581"
               style="fill:#ffffff" />
            <path
               d="m 331.93,580.811 h -1.679 v -5.854 h 1.679 v 0.396 c 0,0.096 -0.012,0.24 -0.035,0.408 0.383,-0.553 0.972,-0.949 1.774,-0.949 1.212,0 2.123,0.949 2.123,2.52 v 3.479 h -1.69 v -3.383 c 0,-0.814 -0.517,-1.234 -1.08,-1.234 -0.504,0 -1.066,0.406 -1.092,1.188 v 3.429 l 0,0 z"
               id="path10583"
               style="fill:#ffffff" />
            <path
               d="m 341.145,576.936 c -0.299,-0.322 -0.563,-0.551 -1.043,-0.551 -0.779,0 -1.331,0.623 -1.331,1.485 0,0.9 0.552,1.463 1.331,1.463 0.479,0 0.84,-0.264 1.092,-0.622 l 1.26,0.959 c -0.601,0.815 -1.319,1.247 -2.352,1.247 -1.764,0 -3.01,-1.344 -3.01,-3.047 0,-1.703 1.246,-3.045 2.998,-3.045 0.924,0 1.654,0.396 2.219,1.031 l -1.164,1.08 z"
               id="path10585"
               style="fill:#ffffff" />
            <path
               d="m 344.962,578.244 c 0.12,0.972 0.72,1.33 1.38,1.33 0.646,0 1.091,-0.299 1.379,-0.719 l 1.115,0.803 c -0.623,0.84 -1.26,1.271 -2.59,1.271 -1.717,0 -2.976,-1.26 -2.976,-3.06 0,-1.666 1.127,-3.045 2.926,-3.045 1.979,0 2.76,1.414 2.76,3.213 v 0.205 l -3.994,0.002 0,0 z m 0.048,-1.03 h 2.314 c -0.107,-0.673 -0.623,-1.021 -1.14,-1.021 -0.538,0 -1.006,0.336 -1.174,1.021 z"
               id="path10587"
               style="fill:#ffffff" />
          </g>
        </g>
      </g>
    </g>
    <g
       transform="matrix(2.5,0,0,2.5,-583.86471,477.40982)"
       id="g10715">
      <path
         d="m 345.39,60.959 h -1.089 -4.261 -68.643 l -2.056,2.545 c -0.19,0.235 -0.476,0.372 -0.778,0.372 h -7.757 c -0.303,0 -0.588,-0.137 -0.778,-0.372 l -2.056,-2.545 h -8.083 c -2.762,0 -5,2.238 -5,5 v 12.167 c 0,2.763 2.238,5 5,5 h 8.088 l 2.051,2.539 c 0.19,0.235 0.477,0.372 0.778,0.372 h 7.757 c 0.304,0 0.588,-0.137 0.778,-0.372 l 2.051,-2.539 h 68.646 4.261 1.089 c 2.762,0 5,-2.237 5,-5 V 65.959 c 0.002,-2.762 -2.237,-5 -4.998,-5 z"
         id="path10717"
         style="fill:#4b67af" />
      <path
         d="m 269.893,83.126 h 67.607 2.5 6.891 0.276 V 83.1 c 2.631,-0.146 4.724,-2.307 4.724,-4.974 V 65.959 c 0,-2.667 -2.093,-4.826 -4.724,-4.972 V 60.959 H 346.891 340 337.5 269.896 l -2.056,2.545 c -0.19,0.235 -0.477,0.372 -0.778,0.372 h -7.757 c -0.302,0 -0.588,-0.137 -0.778,-0.372 l -2.055,-2.545 h -8.084 c -2.761,0 -5,2.238 -5,5 v 12.167 c 0,2.763 2.239,5 5,5 h 8.088"
         id="path10719"
         style="fill:#4b67af;display:none" />
      <g
         id="g10721">
        <g
           id="g10723">
          <g
             id="g10725">
            <path
               d="m 253.332,76.729 v -5.854 h 1.679 v 0.301 c 0,0.106 -0.024,0.3 -0.048,0.479 0.348,-0.563 0.911,-0.924 1.606,-0.924 0.853,0 1.367,0.396 1.644,0.96 0.42,-0.563 1.066,-0.96 1.858,-0.96 1.199,0 1.932,0.815 1.932,2.219 v 3.778 h -1.679 V 73.07 c 0,-0.636 -0.456,-0.959 -0.912,-0.959 -0.456,0 -0.912,0.323 -0.912,1.007 v 3.61 h -1.679 v -3.694 c 0,-0.6 -0.421,-0.887 -0.864,-0.887 -0.456,0 -0.923,0.312 -0.947,0.911 v 3.67 l -1.678,0.001 0,0 z"
               id="path10727"
               style="fill:#ffffff" />
            <path
               d="m 263.184,73.791 c 0,-1.738 1.343,-3.046 3.06,-3.046 1.715,0 3.058,1.308 3.058,3.046 0,1.739 -1.343,3.047 -3.058,3.047 -1.717,0 -3.06,-1.308 -3.06,-3.047 z m 4.473,0 c 0,-0.888 -0.563,-1.547 -1.415,-1.547 -0.864,0 -1.428,0.659 -1.428,1.547 0,0.899 0.587,1.561 1.428,1.561 0.852,-0.001 1.415,-0.662 1.415,-1.561 z"
               id="path10729"
               style="fill:#ffffff" />
            <path
               d="m 271.967,76.729 -2.135,-5.854 h 1.822 l 1.067,3.046 c 0.12,0.336 0.192,0.757 0.204,0.841 0.012,-0.062 0.084,-0.492 0.204,-0.841 l 1.066,-3.046 h 1.823 l -2.135,5.854 h -1.916 z"
               id="path10731"
               style="fill:#ffffff" />
            <path
               d="m 278.243,74.163 c 0.119,0.973 0.72,1.331 1.379,1.331 0.646,0 1.091,-0.3 1.379,-0.72 l 1.115,0.804 c -0.624,0.84 -1.26,1.271 -2.591,1.271 -1.715,0 -2.975,-1.261 -2.975,-3.06 0,-1.667 1.127,-3.046 2.926,-3.046 1.979,0 2.759,1.415 2.759,3.214 v 0.204 l -3.992,0.002 0,0 z m 0.048,-1.031 h 2.313 c -0.107,-0.672 -0.624,-1.02 -1.139,-1.02 -0.538,0 -1.006,0.336 -1.174,1.02 z"
               id="path10733"
               style="fill:#ffffff" />
          </g>
        </g>
        <path
           d="m 288.362,72.498 c 0,4.245 3.44,7.686 7.686,7.686 h 3.15 c 4.243,0 7.686,-3.439 7.686,-7.686 0,-4.243 -3.441,-7.685 -7.686,-7.685 h -3.15 c -4.245,0 -7.686,3.442 -7.686,7.685 0,0 0,-4.243 0,0 z"
           id="path10735"
           style="fill:#ffffff" />
        <g
           id="g10737">
          <g
             id="g10739">
            <path
               d="m 315.045,74.763 c 0.407,0.468 1.055,0.658 1.618,0.658 0.359,0 0.624,-0.144 0.624,-0.358 0,-0.3 -0.301,-0.443 -0.791,-0.588 -0.912,-0.265 -2.039,-0.769 -2.039,-1.955 0,-1.127 1.091,-1.764 2.074,-1.764 0.888,0 1.512,0.301 2.038,0.853 l -0.936,1.008 c -0.252,-0.276 -0.72,-0.528 -1.067,-0.528 -0.312,0 -0.54,0.146 -0.54,0.372 0,0.288 0.336,0.433 0.863,0.588 0.889,0.265 2.027,0.815 2.027,1.932 0,1.104 -0.947,1.871 -2.268,1.871 -1.056,0 -1.919,-0.3 -2.555,-0.983 l 0.952,-1.106 z"
               id="path10741"
               style="fill:#ffffff" />
            <path
               d="M 320.552,70.877 V 68.79 h 1.679 v 2.087 h 0.828 v 1.56 h -0.828 v 4.294 h -1.679 v -4.294 h -0.815 v -1.56 h 0.815 z"
               id="path10743"
               style="fill:#ffffff" />
            <path
               d="m 325.566,74.163 c 0.121,0.973 0.722,1.331 1.38,1.331 0.647,0 1.092,-0.3 1.381,-0.72 l 1.114,0.804 c -0.624,0.84 -1.26,1.271 -2.591,1.271 -1.716,0 -2.975,-1.261 -2.975,-3.06 0,-1.667 1.128,-3.046 2.927,-3.046 1.979,0 2.758,1.415 2.758,3.214 v 0.204 l -3.994,0.002 0,0 z m 0.049,-1.031 h 2.314 c -0.107,-0.672 -0.623,-1.02 -1.139,-1.02 -0.539,0 -1.007,0.336 -1.175,1.02 z"
               id="path10745"
               style="fill:#ffffff" />
            <path
               d="m 330.74,79.728 v -8.852 h 1.68 v 0.588 c 0.456,-0.479 1.056,-0.72 1.703,-0.72 1.618,0 2.542,1.476 2.542,3.034 0,1.583 -0.888,3.07 -2.53,3.07 -0.684,0 -1.319,-0.336 -1.774,-0.889 v 3.767 l -1.621,0.002 0,0 z m 4.258,-5.925 c 0,-0.863 -0.434,-1.56 -1.31,-1.56 -0.778,0 -1.295,0.647 -1.295,1.547 0,0.805 0.527,1.571 1.295,1.571 0.866,10e-4 1.31,-0.707 1.31,-1.558 z"
               id="path10747"
               style="fill:#ffffff" />
            <path
               d="m 338.432,74.763 c 0.408,0.468 1.055,0.658 1.619,0.658 0.359,0 0.623,-0.144 0.623,-0.358 0,-0.3 -0.299,-0.443 -0.791,-0.588 -0.912,-0.265 -2.039,-0.769 -2.039,-1.955 0,-1.127 1.092,-1.764 2.074,-1.764 0.889,0 1.512,0.301 2.039,0.853 l -0.937,1.008 c -0.252,-0.276 -0.719,-0.528 -1.065,-0.528 -0.313,0 -0.54,0.146 -0.54,0.372 0,0.288 0.335,0.433 0.862,0.588 0.889,0.265 2.026,0.815 2.026,1.932 0,1.104 -0.947,1.871 -2.266,1.871 -1.058,0 -1.92,-0.3 -2.556,-0.983 l 0.951,-1.106 z"
               id="path10749"
               style="fill:#ffffff" />
          </g>
        </g>
      </g>
    </g>
    <g
       transform="matrix(2.5,0,0,2.5,-220.30805,-299.84048)"
       id="g10883">
      <path
         d="m 360.39,225.81 h -20 -40.722 -43.271 l -2.056,2.545 c -0.19,0.234 -0.476,0.372 -0.778,0.372 h -7.757 c -0.302,0 -0.588,-0.138 -0.778,-0.372 l -2.056,-2.545 h -8.083 c -2.761,0 -5,2.237 -5,5 v 12.167 c 0,2.762 2.239,4.999 5,4.999 h 8.088 l 2.051,2.539 c 0.19,0.235 0.477,0.373 0.778,0.373 h 7.757 c 0.303,0 0.588,-0.138 0.778,-0.373 l 2.051,-2.539 h 43.274 40.722 20 c 2.762,0 5,-2.237 5,-4.999 V 230.81 c 0.002,-2.762 -2.237,-5 -4.998,-5 z"
         id="path10885"
         style="fill:#4b67af" />
      <g
         id="g10887">
        <g
           id="g10889">
          <g
             id="g10891">
            <path
               d="m 238.249,243.579 v -8.851 h 1.679 v 0.588 c 0.456,-0.48 1.055,-0.72 1.703,-0.72 1.619,0 2.542,1.475 2.542,3.033 0,1.583 -0.888,3.07 -2.531,3.07 -0.684,0 -1.319,-0.336 -1.774,-0.888 v 3.766 l -1.619,0.002 0,0 z m 4.257,-5.925 c 0,-0.863 -0.432,-1.559 -1.309,-1.559 -0.778,0 -1.295,0.646 -1.295,1.547 0,0.804 0.527,1.57 1.295,1.57 0.866,0.002 1.309,-0.706 1.309,-1.558 z"
               id="path10893"
               style="fill:#ffffff" />
            <path
               d="m 244.993,237.643 c 0,-1.739 1.343,-3.046 3.059,-3.046 1.715,0 3.058,1.307 3.058,3.046 0,1.738 -1.343,3.047 -3.058,3.047 -1.716,-0.001 -3.059,-1.308 -3.059,-3.047 z m 4.473,0 c 0,-0.889 -0.564,-1.547 -1.415,-1.547 -0.864,0 -1.427,0.658 -1.427,1.547 0,0.898 0.587,1.56 1.427,1.56 0.851,-0.001 1.415,-0.661 1.415,-1.56 z"
               id="path10895"
               style="fill:#ffffff" />
            <path
               d="m 253.224,231.813 c 0.601,0 1.104,0.504 1.104,1.104 0,0.601 -0.504,1.104 -1.104,1.104 -0.6,0 -1.104,-0.504 -1.104,-1.104 0,-0.6 0.505,-1.104 1.104,-1.104 z m -0.875,8.768 v -5.853 h 1.715 v 5.853 h -1.715 z"
               id="path10897"
               style="fill:#ffffff" />
            <path
               d="m 257.375,240.581 h -1.68 v -5.853 h 1.68 v 0.396 c 0,0.097 -0.013,0.24 -0.036,0.408 0.384,-0.552 0.972,-0.948 1.774,-0.948 1.212,0 2.123,0.948 2.123,2.52 v 3.479 h -1.69 V 237.2 c 0,-0.814 -0.517,-1.235 -1.08,-1.235 -0.504,0 -1.067,0.407 -1.091,1.188 v 3.428 l 0,0 z"
               id="path10899"
               style="fill:#ffffff" />
            <path
               d="m 263.232,234.729 v -2.087 h 1.68 v 2.087 h 0.827 v 1.559 h -0.827 v 4.294 h -1.68 v -4.294 h -0.814 v -1.559 h 0.814 z"
               id="path10901"
               style="fill:#ffffff" />
            <path
               d="m 271.451,231.813 c 0.6,0 1.104,0.504 1.104,1.104 0,0.601 -0.504,1.104 -1.104,1.104 -0.601,0 -1.104,-0.504 -1.104,-1.104 0,-0.6 0.505,-1.104 1.104,-1.104 z m -0.875,8.768 v -5.853 h 1.715 v 5.853 h -1.715 z"
               id="path10903"
               style="fill:#ffffff" />
            <path
               d="m 275.603,240.581 h -1.679 v -5.853 h 1.679 v 0.396 c 0,0.097 -0.012,0.24 -0.036,0.408 0.385,-0.552 0.973,-0.948 1.775,-0.948 1.211,0 2.123,0.948 2.123,2.52 v 3.479 h -1.691 V 237.2 c 0,-0.814 -0.516,-1.235 -1.08,-1.235 -0.504,0 -1.066,0.407 -1.091,1.188 v 3.428 l 0,0 z"
               id="path10905"
               style="fill:#ffffff" />
            <path
               d="m 288.562,240.581 v -0.768 c -0.468,0.552 -1.092,0.888 -1.774,0.888 -1.644,0 -2.53,-1.487 -2.53,-3.07 0,-1.56 0.923,-3.033 2.542,-3.033 0.646,0 1.247,0.238 1.703,0.72 v -3.73 h 1.679 v 8.995 l -1.62,-0.002 0,0 z m -0.037,-2.938 c 0,-0.899 -0.516,-1.547 -1.295,-1.547 -0.875,0 -1.307,0.694 -1.307,1.559 0,0.852 0.444,1.56 1.307,1.56 0.768,-0.001 1.295,-0.769 1.295,-1.572 z"
               id="path10907"
               style="fill:#ffffff" />
            <path
               d="m 292.655,231.813 c 0.601,0 1.104,0.504 1.104,1.104 0,0.601 -0.504,1.104 -1.104,1.104 -0.6,0 -1.104,-0.504 -1.104,-1.104 0,-0.6 0.504,-1.104 1.104,-1.104 z m -0.876,8.768 v -5.853 h 1.716 v 5.853 h -1.716 z"
               id="path10909"
               style="fill:#ffffff" />
            <path
               d="m 296.806,240.581 h -1.679 v -5.853 h 1.679 v 0.396 c 0,0.132 -0.023,0.349 -0.06,0.576 0.336,-0.636 0.862,-1.116 1.631,-1.116 v 1.645 c -0.875,0 -1.571,0.504 -1.571,1.463 v 2.889 z"
               id="path10911"
               style="fill:#ffffff" />
            <path
               d="m 300.91,238.015 c 0.118,0.972 0.719,1.331 1.379,1.331 0.646,0 1.092,-0.301 1.379,-0.721 l 1.115,0.805 c -0.623,0.84 -1.26,1.271 -2.591,1.271 -1.715,0 -2.975,-1.26 -2.975,-3.059 0,-1.667 1.127,-3.046 2.926,-3.046 1.979,0 2.76,1.415 2.76,3.214 v 0.204 l -3.993,10e-4 0,0 z m 0.048,-1.032 h 2.313 c -0.107,-0.672 -0.624,-1.021 -1.14,-1.021 -0.537,0.002 -1.005,0.338 -1.173,1.021 z"
               id="path10913"
               style="fill:#ffffff" />
            <path
               d="m 309.896,236.707 c -0.3,-0.323 -0.563,-0.552 -1.043,-0.552 -0.78,0 -1.332,0.624 -1.332,1.487 0,0.898 0.552,1.463 1.332,1.463 0.479,0 0.839,-0.265 1.091,-0.623 l 1.26,0.959 c -0.601,0.814 -1.318,1.248 -2.351,1.248 -1.764,0 -3.011,-1.344 -3.011,-3.047 0,-1.703 1.247,-3.046 2.998,-3.046 0.924,0 1.655,0.396 2.219,1.03 l -1.163,1.081 z"
               id="path10915"
               style="fill:#ffffff" />
            <path
               d="m 312.838,234.729 v -2.087 h 1.68 v 2.087 h 0.827 v 1.559 h -0.827 v 4.294 h -1.68 v -4.294 h -0.815 v -1.559 h 0.815 z"
               id="path10917"
               style="fill:#ffffff" />
            <path
               d="m 317.457,231.813 c 0.6,0 1.104,0.504 1.104,1.104 0,0.601 -0.504,1.104 -1.104,1.104 -0.601,0 -1.104,-0.504 -1.104,-1.104 0,-0.6 0.504,-1.104 1.104,-1.104 z m -0.875,8.768 v -5.853 h 1.715 v 5.853 h -1.715 z"
               id="path10919"
               style="fill:#ffffff" />
            <path
               d="m 319.57,237.643 c 0,-1.739 1.344,-3.046 3.06,-3.046 1.715,0 3.058,1.307 3.058,3.046 0,1.738 -1.343,3.047 -3.058,3.047 -1.717,-0.001 -3.06,-1.308 -3.06,-3.047 z m 4.473,0 c 0,-0.889 -0.563,-1.547 -1.414,-1.547 -0.864,0 -1.428,0.658 -1.428,1.547 0,0.898 0.588,1.56 1.428,1.56 0.85,-0.001 1.414,-0.661 1.414,-1.56 z"
               id="path10921"
               style="fill:#ffffff" />
            <path
               d="m 328.545,240.581 h -1.68 v -5.853 h 1.68 v 0.396 c 0,0.097 -0.012,0.24 -0.036,0.408 0.384,-0.552 0.972,-0.948 1.774,-0.948 1.212,0 2.122,0.948 2.122,2.52 v 3.479 h -1.689 V 237.2 c 0,-0.814 -0.518,-1.235 -1.079,-1.235 -0.504,0 -1.068,0.407 -1.092,1.188 v 3.428 l 0,0 z"
               id="path10923"
               style="fill:#ffffff" />
          </g>
        </g>
        <path
           d="m 339.279,237.349 c 0,4.244 3.44,7.684 7.686,7.684 h 3.15 c 4.243,0 7.686,-3.438 7.686,-7.684 0,-4.242 -3.441,-7.685 -7.686,-7.685 h -3.15 c -4.245,0.001 -7.686,3.442 -7.686,7.685 0,0 0,-4.243 0,0 z"
           id="path10925"
           style="fill:#ffffff" />
      </g>
    </g>
    <g
       transform="matrix(2.5,0,0,2.5,-235.51555,-291.06478)"
       id="g11055">
      <path
         d="m 366.473,258.812 h -0.173 -1.41 -3 -3.056 -2.944 -9.417 -4.791 -5.792 -14.722 -8.334 -17.666 -43.271 l -2.056,2.545 c -0.19,0.236 -0.476,0.373 -0.778,0.373 h -7.757 c -0.302,0 -0.588,-0.137 -0.778,-0.373 l -2.056,-2.545 h -8.083 c -2.761,0 -5,2.237 -5,5 v 12.168 c 0,2.762 2.239,5 5,5 h 8.088 l 2.051,2.539 c 0.19,0.235 0.477,0.373 0.778,0.373 h 7.757 c 0.303,0 0.588,-0.138 0.778,-0.373 l 2.051,-2.539 h 43.274 17.666 8.334 14.722 20 2.944 3.056 3 1.41 v -0.001 h 0.173 c 2.762,0 5,-2.237 5,-4.999 v -12.168 c 0.002,-2.762 -2.237,-5 -4.998,-5 z"
         id="path11057"
         style="fill:#4b67af" />
      <g
         id="g11059">
        <g
           id="g11061">
          <g
             id="g11063">
            <path
               d="m 232.378,276.581 v -8.851 h 1.679 v 0.588 c 0.456,-0.48 1.055,-0.72 1.703,-0.72 1.619,0 2.542,1.475 2.542,3.033 0,1.583 -0.888,3.07 -2.531,3.07 -0.684,0 -1.318,-0.336 -1.774,-0.888 v 3.766 l -1.619,0.002 0,0 z m 4.258,-5.925 c 0,-0.863 -0.432,-1.559 -1.308,-1.559 -0.779,0 -1.295,0.646 -1.295,1.547 0,0.804 0.526,1.57 1.295,1.57 0.864,0.002 1.308,-0.706 1.308,-1.558 z"
               id="path11065"
               style="fill:#ffffff" />
            <path
               d="m 239.123,270.645 c 0,-1.739 1.343,-3.046 3.059,-3.046 1.715,0 3.059,1.307 3.059,3.046 0,1.738 -1.344,3.047 -3.059,3.047 -1.716,-0.001 -3.059,-1.308 -3.059,-3.047 z m 4.473,0 c 0,-0.889 -0.563,-1.547 -1.415,-1.547 -0.864,0 -1.427,0.658 -1.427,1.547 0,0.898 0.587,1.56 1.427,1.56 0.851,-10e-4 1.415,-0.661 1.415,-1.56 z"
               id="path11067"
               style="fill:#ffffff" />
            <path
               d="m 247.354,264.815 c 0.601,0 1.104,0.504 1.104,1.104 0,0.601 -0.504,1.104 -1.104,1.104 -0.6,0 -1.104,-0.504 -1.104,-1.104 0,-0.6 0.504,-1.104 1.104,-1.104 z m -0.875,8.768 v -5.853 h 1.715 v 5.853 h -1.715 z"
               id="path11069"
               style="fill:#ffffff" />
            <path
               d="m 251.505,273.583 h -1.679 v -5.853 h 1.679 v 0.396 c 0,0.097 -0.012,0.24 -0.036,0.408 0.384,-0.552 0.972,-0.948 1.775,-0.948 1.211,0 2.123,0.948 2.123,2.52 v 3.479 h -1.691 v -3.382 c 0,-0.814 -0.516,-1.234 -1.08,-1.234 -0.504,0 -1.067,0.406 -1.091,1.188 v 3.426 z"
               id="path11071"
               style="fill:#ffffff" />
            <path
               d="m 257.362,267.73 v -2.087 h 1.68 v 2.087 h 0.828 v 1.559 h -0.828 v 4.294 h -1.68 v -4.294 h -0.814 v -1.559 h 0.814 z"
               id="path11073"
               style="fill:#ffffff" />
            <path
               d="m 265.101,267.73 v -2.087 h 1.679 v 2.087 h 0.828 v 1.559 h -0.828 v 4.294 h -1.679 v -4.294 h -0.814 v -1.559 h 0.814 z"
               id="path11075"
               style="fill:#ffffff" />
            <path
               d="m 268.425,270.645 c 0,-1.739 1.343,-3.046 3.059,-3.046 1.715,0 3.059,1.307 3.059,3.046 0,1.738 -1.343,3.047 -3.059,3.047 -1.715,-0.001 -3.059,-1.308 -3.059,-3.047 z m 4.474,0 c 0,-0.889 -0.563,-1.547 -1.415,-1.547 -0.863,0 -1.427,0.658 -1.427,1.547 0,0.898 0.587,1.56 1.427,1.56 0.851,-10e-4 1.415,-0.661 1.415,-1.56 z"
               id="path11077"
               style="fill:#ffffff" />
            <path
               d="m 284.92,267.73 -2.016,5.853 h -1.906 l -0.875,-2.733 c -0.061,-0.168 -0.12,-0.479 -0.132,-0.54 l -0.145,0.54 -0.899,2.733 h -1.906 c -0.66,-1.942 -1.319,-3.896 -1.968,-5.853 h 1.812 l 0.911,3.226 c 0.084,0.324 0.168,0.708 0.191,0.78 0.013,-0.062 0.097,-0.432 0.204,-0.78 l 0.947,-3.226 h 1.703 l 0.923,3.226 c 0.096,0.35 0.168,0.744 0.18,0.792 0.013,-0.048 0.108,-0.432 0.217,-0.792 l 0.936,-3.226 h 1.823 z"
               id="path11079"
               style="fill:#ffffff" />
            <path
               d="m 290.574,273.583 c -0.721,0 -1.212,-0.384 -1.476,-0.995 -0.336,0.563 -1.043,1.115 -2.087,1.115 -1.295,0 -1.955,-0.84 -1.955,-1.715 0,-0.972 0.792,-1.919 2.423,-1.919 0.492,0 0.972,0.06 1.415,0.144 v -0.191 c 0,-0.575 -0.396,-0.959 -1.043,-0.959 -0.456,0 -0.828,0.204 -1.066,0.588 l -1.176,-0.876 c 0,0 0.672,-1.199 2.327,-1.199 1.631,0 2.626,0.972 2.626,2.375 v 1.763 c 0,0.217 0.145,0.349 0.36,0.349 h 0.24 v 1.522 l -0.588,-0.002 0,0 z m -1.679,-2.327 c -0.312,-0.06 -0.696,-0.118 -0.923,-0.118 -0.684,0 -1.211,0.228 -1.211,0.707 0,0.323 0.24,0.54 0.684,0.54 0.706,-10e-4 1.234,-0.493 1.45,-1.129 z"
               id="path11081"
               style="fill:#ffffff" />
            <path
               d="m 293.852,273.583 h -1.679 v -5.853 h 1.679 v 0.396 c 0,0.132 -0.023,0.349 -0.06,0.576 0.336,-0.636 0.862,-1.116 1.631,-1.116 v 1.645 c -0.875,0 -1.571,0.504 -1.571,1.463 v 2.889 z"
               id="path11083"
               style="fill:#ffffff" />
            <path
               d="m 300.582,273.583 v -0.768 c -0.468,0.552 -1.093,0.888 -1.775,0.888 -1.643,0 -2.53,-1.487 -2.53,-3.07 0,-1.56 0.924,-3.033 2.542,-3.033 0.647,0 1.247,0.238 1.703,0.72 v -3.73 h 1.68 v 8.995 l -1.62,-0.002 0,0 z m -0.035,-2.938 c 0,-0.899 -0.517,-1.547 -1.296,-1.547 -0.875,0 -1.308,0.694 -1.308,1.559 0,0.852 0.444,1.56 1.308,1.56 0.768,-10e-4 1.296,-0.769 1.296,-1.572 z"
               id="path11085"
               style="fill:#ffffff" />
            <path
               d="m 304.328,271.616 c 0.407,0.468 1.055,0.659 1.618,0.659 0.359,0 0.623,-0.145 0.623,-0.359 0,-0.3 -0.299,-0.442 -0.791,-0.588 -0.911,-0.264 -2.039,-0.768 -2.039,-1.955 0,-1.127 1.093,-1.763 2.074,-1.763 0.89,0 1.513,0.3 2.039,0.852 l -0.936,1.009 c -0.252,-0.276 -0.72,-0.528 -1.066,-0.528 -0.313,0 -0.54,0.145 -0.54,0.372 0,0.288 0.335,0.432 0.863,0.588 0.888,0.264 2.026,0.814 2.026,1.931 0,1.104 -0.947,1.871 -2.267,1.871 -1.057,0 -1.92,-0.3 -2.555,-0.982 l 0.951,-1.107 z"
               id="path11087"
               style="fill:#ffffff" />
          </g>
        </g>
        <rect
           width="50"
           height="14.779"
           x="313.66901"
           y="262.37799"
           id="rect11089"
           style="fill:#ffffff" />
      </g>
    </g>
    <g
       transform="matrix(2.5,0,0,2.5,-252.80805,-1421.3143)"
       id="g11223">
      <path
         d="m 373.39,601.372 h -20 -6 -20 -14.722 -8.334 -17.666 -43.271 l -2.056,2.546 c -0.19,0.234 -0.476,0.371 -0.778,0.371 h -7.757 c -0.302,0 -0.588,-0.137 -0.778,-0.371 l -2.056,-2.546 h -8.083 c -2.761,0 -5,2.238 -5,5 v 12.167 c 0,2.763 2.239,5 5,5 h 8.088 l 2.051,2.539 c 0.19,0.236 0.477,0.373 0.778,0.373 h 7.757 c 0.303,0 0.588,-0.137 0.778,-0.373 l 2.051,-2.539 h 43.274 17.666 8.334 14.722 20 6 20 c 2.762,0 5,-2.237 5,-5 v -12.167 c 0.002,-2.762 -2.237,-5 -4.998,-5 z"
         id="path11225"
         style="fill:#4b67af" />
      <g
         id="g11227">
        <g
           id="g11229">
          <g
             id="g11231">
            <path
               d="m 224.966,614.177 c 0.408,0.469 1.055,0.66 1.619,0.66 0.359,0 0.624,-0.146 0.624,-0.359 0,-0.301 -0.3,-0.443 -0.792,-0.588 -0.912,-0.265 -2.039,-0.769 -2.039,-1.955 0,-1.127 1.091,-1.764 2.075,-1.764 0.888,0 1.511,0.301 2.039,0.852 l -0.937,1.008 c -0.252,-0.274 -0.72,-0.526 -1.067,-0.526 -0.312,0 -0.539,0.145 -0.539,0.37 0,0.289 0.335,0.433 0.862,0.589 0.889,0.264 2.027,0.815 2.027,1.932 0,1.104 -0.947,1.871 -2.268,1.871 -1.056,0 -1.919,-0.301 -2.555,-0.984 l 0.951,-1.106 z"
               id="path11233"
               style="fill:#ffffff" />
            <path
               d="m 231.349,613.576 c 0.12,0.974 0.72,1.332 1.379,1.332 0.647,0 1.091,-0.301 1.379,-0.721 l 1.115,0.805 c -0.624,0.84 -1.259,1.271 -2.59,1.271 -1.715,0 -2.975,-1.26 -2.975,-3.06 0,-1.668 1.127,-3.047 2.926,-3.047 1.979,0 2.759,1.416 2.759,3.215 v 0.203 l -3.993,0.002 0,0 z m 0.048,-1.03 h 2.314 c -0.108,-0.673 -0.624,-1.021 -1.14,-1.021 -0.538,0 -1.006,0.336 -1.174,1.021 z"
               id="path11235"
               style="fill:#ffffff" />
            <path
               d="m 236.978,610.291 v -2.088 h 1.68 v 2.088 h 0.827 v 1.56 h -0.827 v 4.293 h -1.68 v -4.293 h -0.814 v -1.56 h 0.814 z"
               id="path11237"
               style="fill:#ffffff" />
            <path
               d="m 245.941,616.143 h -1.679 v -5.853 h 1.679 v 0.396 c 0,0.133 -0.023,0.348 -0.06,0.576 0.336,-0.635 0.863,-1.115 1.631,-1.115 v 1.644 c -0.875,0 -1.571,0.504 -1.571,1.463 v 2.889 z"
               id="path11239"
               style="fill:#ffffff" />
            <path
               d="m 248.354,613.205 c 0,-1.739 1.343,-3.047 3.06,-3.047 1.715,0 3.058,1.308 3.058,3.047 0,1.738 -1.343,3.048 -3.058,3.048 -1.717,0 -3.06,-1.31 -3.06,-3.048 z m 4.473,0 c 0,-0.889 -0.563,-1.547 -1.415,-1.547 -0.864,0 -1.428,0.658 -1.428,1.547 0,0.898 0.587,1.56 1.428,1.56 0.852,-10e-4 1.415,-0.661 1.415,-1.56 z"
               id="path11241"
               style="fill:#ffffff" />
            <path
               d="m 256.105,610.291 v -2.088 h 1.68 v 2.088 h 0.827 v 1.56 h -0.827 v 4.293 h -1.68 v -4.293 h -0.814 v -1.56 h 0.814 z"
               id="path11243"
               style="fill:#ffffff" />
            <path
               d="m 265.138,616.143 c -0.72,0 -1.211,-0.383 -1.475,-0.994 -0.336,0.563 -1.043,1.115 -2.087,1.115 -1.296,0 -1.955,-0.84 -1.955,-1.715 0,-0.974 0.792,-1.92 2.423,-1.92 0.492,0 0.971,0.061 1.415,0.145 v -0.193 c 0,-0.573 -0.396,-0.959 -1.043,-0.959 -0.456,0 -0.828,0.205 -1.067,0.589 l -1.175,-0.875 c 0,0 0.672,-1.199 2.327,-1.199 1.631,0 2.626,0.971 2.626,2.375 v 1.762 c 0,0.217 0.144,0.348 0.359,0.348 h 0.24 v 1.523 l -0.588,-0.002 0,0 z m -1.679,-2.327 c -0.313,-0.061 -0.695,-0.119 -0.923,-0.119 -0.685,0 -1.211,0.228 -1.211,0.707 0,0.324 0.239,0.539 0.684,0.539 0.706,0 1.234,-0.492 1.45,-1.127 z"
               id="path11245"
               style="fill:#ffffff" />
            <path
               d="m 267.192,610.291 v -2.088 h 1.68 v 2.088 h 0.827 v 1.56 h -0.827 v 4.293 h -1.68 v -4.293 h -0.814 v -1.56 h 0.814 z"
               id="path11247"
               style="fill:#ffffff" />
            <path
               d="m 271.812,607.375 c 0.601,0 1.104,0.505 1.104,1.104 0,0.599 -0.504,1.104 -1.104,1.104 -0.6,0 -1.104,-0.505 -1.104,-1.104 0,-0.599 0.504,-1.104 1.104,-1.104 z m -0.875,8.768 v -5.853 h 1.715 v 5.853 h -1.715 z"
               id="path11249"
               style="fill:#ffffff" />
            <path
               d="m 273.924,613.205 c 0,-1.739 1.343,-3.047 3.059,-3.047 1.715,0 3.059,1.308 3.059,3.047 0,1.738 -1.343,3.048 -3.059,3.048 -1.715,0 -3.059,-1.31 -3.059,-3.048 z m 4.474,0 c 0,-0.889 -0.563,-1.547 -1.415,-1.547 -0.863,0 -1.427,0.658 -1.427,1.547 0,0.898 0.587,1.56 1.427,1.56 0.851,-10e-4 1.415,-0.661 1.415,-1.56 z"
               id="path11251"
               style="fill:#ffffff" />
            <path
               d="m 282.899,616.143 h -1.679 v -5.853 h 1.679 v 0.396 c 0,0.096 -0.012,0.24 -0.036,0.408 0.385,-0.551 0.973,-0.947 1.775,-0.947 1.211,0 2.123,0.947 2.123,2.519 v 3.479 h -1.691 v -3.381 c 0,-0.816 -0.516,-1.236 -1.08,-1.236 -0.504,0 -1.066,0.408 -1.091,1.188 v 3.427 l 0,0 z"
               id="path11253"
               style="fill:#ffffff" />
            <path
               d="m 292.488,614.177 c 0.408,0.469 1.056,0.66 1.619,0.66 0.359,0 0.624,-0.146 0.624,-0.359 0,-0.301 -0.3,-0.443 -0.792,-0.588 -0.912,-0.265 -2.039,-0.769 -2.039,-1.955 0,-1.127 1.092,-1.764 2.075,-1.764 0.888,0 1.511,0.301 2.039,0.852 l -0.936,1.008 c -0.252,-0.274 -0.721,-0.526 -1.067,-0.526 -0.312,0 -0.54,0.145 -0.54,0.37 0,0.289 0.335,0.433 0.863,0.589 0.888,0.264 2.026,0.815 2.026,1.932 0,1.104 -0.946,1.871 -2.267,1.871 -1.056,0 -1.919,-0.301 -2.555,-0.984 l 0.95,-1.106 z"
               id="path11255"
               style="fill:#ffffff" />
            <path
               d="m 297.996,610.291 v -2.088 h 1.679 v 2.088 h 0.827 v 1.56 h -0.827 v 4.293 h -1.679 v -4.293 h -0.815 v -1.56 h 0.815 z"
               id="path11257"
               style="fill:#ffffff" />
            <path
               d="m 303.215,615.496 -2.184,-5.205 h 1.764 l 1.127,2.734 c 0.097,0.24 0.181,0.563 0.191,0.6 0,-0.024 0.108,-0.348 0.217,-0.6 l 1.176,-2.734 h 1.774 l -4.043,9.127 h -1.75 l 1.728,-3.922 z"
               id="path11259"
               style="fill:#ffffff" />
            <path
               d="m 308.076,616.143 v -8.994 h 1.702 v 8.994 h -1.702 z"
               id="path11261"
               style="fill:#ffffff" />
            <path
               d="m 312.646,613.576 c 0.12,0.974 0.721,1.332 1.379,1.332 0.648,0 1.093,-0.301 1.38,-0.721 l 1.115,0.805 c -0.624,0.84 -1.259,1.271 -2.591,1.271 -1.715,0 -2.975,-1.26 -2.975,-3.06 0,-1.668 1.128,-3.047 2.927,-3.047 1.979,0 2.759,1.416 2.759,3.215 v 0.203 l -3.994,0.002 0,0 z m 0.049,-1.03 h 2.314 c -0.108,-0.673 -0.624,-1.021 -1.14,-1.021 -0.539,0 -1.006,0.336 -1.174,1.021 z"
               id="path11263"
               style="fill:#ffffff" />
          </g>
        </g>
        <rect
           width="50"
           height="14.779"
           x="321.66901"
           y="604.93799"
           id="rect11265"
           style="fill:#ffffff" />
      </g>
    </g>
    <g
       transform="matrix(2.5,0,0,2.5,-617.64854,-912.96939)"
       id="g11383">
      <path
         d="m 332.177,398.063 v -0.029 h -0.296 -0.589 -1.396 -4.737 -6.293 -19.356 -14.603 l -2.057,2.545 c -0.189,0.234 -0.476,0.371 -0.778,0.371 h -7.757 c -0.302,0 -0.588,-0.137 -0.777,-0.371 l -2.057,-2.545 h -8.083 c -2.761,0 -5,2.238 -5,5 V 415.2 c 0,2.763 2.239,5 5,5 h 8.088 l 2.052,2.54 c 0.189,0.236 0.476,0.373 0.777,0.373 h 7.757 c 0.303,0 0.589,-0.137 0.778,-0.373 l 2.051,-2.54 h 14.607 30.388 2.279 v -0.029 c 2.621,-0.156 4.704,-2.311 4.704,-4.971 v -12.166 c 0.002,-2.66 -2.081,-4.814 -4.702,-4.971 z"
         id="path11385"
         style="fill:#4b67af" />
      <g
         id="g11387">
        <g
           id="g11389">
          <g
             id="g11391">
            <path
               d="m 266.633,411.839 c 0.407,0.468 1.055,0.658 1.618,0.658 0.359,0 0.624,-0.144 0.624,-0.358 0,-0.3 -0.3,-0.443 -0.791,-0.588 -0.912,-0.265 -2.039,-0.769 -2.039,-1.955 0,-1.127 1.091,-1.764 2.074,-1.764 0.888,0 1.512,0.301 2.039,0.853 l -0.937,1.008 c -0.252,-0.276 -0.72,-0.528 -1.067,-0.528 -0.312,0 -0.538,0.146 -0.538,0.372 0,0.288 0.335,0.433 0.862,0.588 0.889,0.265 2.026,0.815 2.026,1.932 0,1.104 -0.947,1.871 -2.268,1.871 -1.056,0 -1.919,-0.3 -2.555,-0.983 l 0.952,-1.106 z"
               id="path11393"
               style="fill:#ffffff" />
            <path
               d="m 273.016,411.238 c 0.12,0.973 0.72,1.331 1.379,1.331 0.647,0 1.092,-0.3 1.38,-0.72 l 1.115,0.804 c -0.624,0.84 -1.26,1.271 -2.591,1.271 -1.715,0 -2.976,-1.261 -2.976,-3.06 0,-1.667 1.129,-3.046 2.928,-3.046 1.979,0 2.759,1.415 2.759,3.214 v 0.204 l -3.994,0.002 0,0 z m 0.047,-1.031 h 2.314 c -0.107,-0.672 -0.623,-1.02 -1.14,-1.02 -0.538,10e-4 -1.006,0.336 -1.174,1.02 z"
               id="path11395"
               style="fill:#ffffff" />
            <path
               d="m 278.644,407.952 v -2.087 h 1.681 v 2.087 h 0.826 v 1.56 h -0.826 v 4.294 h -1.681 v -4.294 h -0.814 v -1.56 h 0.814 z"
               id="path11397"
               style="fill:#ffffff" />
            <path
               d="m 287.295,410.83 -1.932,-2.878 h 1.884 l 0.828,1.247 c 0.144,0.229 0.286,0.54 0.286,0.54 0,0 0.133,-0.324 0.276,-0.54 l 0.839,-1.247 h 1.884 l -1.942,2.878 2.026,2.976 h -1.87 l -0.925,-1.393 c -0.155,-0.216 -0.274,-0.454 -0.288,-0.49 -0.012,0.022 -0.106,0.252 -0.264,0.49 l -0.947,1.393 h -1.871 l 2.016,-2.976 z"
               id="path11399"
               style="fill:#ffffff" />
            <path
               d="m 296.392,407.952 v -2.087 h 1.679 v 2.087 h 0.828 v 1.56 h -0.828 v 4.294 h -1.679 v -4.294 h -0.814 v -1.56 h 0.814 z"
               id="path11401"
               style="fill:#ffffff" />
            <path
               d="m 299.716,410.866 c 0,-1.738 1.343,-3.046 3.059,-3.046 1.715,0 3.059,1.308 3.059,3.046 0,1.739 -1.343,3.047 -3.059,3.047 -1.716,0 -3.059,-1.308 -3.059,-3.047 z m 4.473,0 c 0,-0.888 -0.563,-1.547 -1.415,-1.547 -0.863,0 -1.427,0.659 -1.427,1.547 0,0.899 0.587,1.561 1.427,1.561 0.851,0 1.415,-0.661 1.415,-1.561 z"
               id="path11403"
               style="fill:#ffffff" />
          </g>
        </g>
        <path
           d="m 311.076,409.573 c 0,4.244 3.438,7.685 7.684,7.685 h 3.152 c 4.241,0 7.684,-3.439 7.684,-7.685 0,-4.242 -3.441,-7.684 -7.684,-7.684 h -3.152 c -4.244,10e-4 -7.684,3.442 -7.684,7.684 0,0 0,-4.242 0,0 z"
           id="path11405"
           style="fill:#ffffff" />
      </g>
    </g>
    <g
       transform="matrix(2.5,0,0,2.5,-617.64854,-993.85368)"
       id="g11643">
      <path
         d="m 332.177,466.931 v -0.03 h -0.296 -0.589 -1.396 -4.737 -6.293 -19.356 -14.603 l -2.057,2.545 c -0.189,0.236 -0.476,0.373 -0.778,0.373 h -7.757 c -0.302,0 -0.588,-0.137 -0.777,-0.373 l -2.057,-2.545 h -8.083 c -2.761,0 -5,2.238 -5,5 v 12.168 c 0,2.762 2.239,5 5,5 h 8.088 l 2.052,2.539 c 0.189,0.236 0.476,0.373 0.777,0.373 h 7.757 c 0.303,0 0.589,-0.137 0.778,-0.373 l 2.051,-2.539 h 14.607 30.388 2.279 v -0.031 c 2.621,-0.155 4.704,-2.309 4.704,-4.969 V 471.9 c 0.002,-2.66 -2.081,-4.812 -4.702,-4.969 z"
         id="path11645"
         style="fill:#4b67af" />
      <g
         id="g11647">
        <g
           id="g11649">
          <g
             id="g11651">
            <path
               d="m 266.633,480.705 c 0.407,0.468 1.055,0.658 1.618,0.658 0.359,0 0.624,-0.143 0.624,-0.358 0,-0.3 -0.3,-0.443 -0.791,-0.589 -0.912,-0.264 -2.039,-0.768 -2.039,-1.954 0,-1.128 1.091,-1.763 2.074,-1.763 0.888,0 1.512,0.299 2.039,0.853 l -0.937,1.008 c -0.252,-0.277 -0.72,-0.529 -1.067,-0.529 -0.312,0 -0.538,0.146 -0.538,0.373 0,0.287 0.335,0.433 0.862,0.588 0.889,0.265 2.026,0.814 2.026,1.931 0,1.104 -0.947,1.87 -2.268,1.87 -1.056,0 -1.919,-0.299 -2.555,-0.981 l 0.952,-1.107 z"
               id="path11653"
               style="fill:#ffffff" />
            <path
               d="m 273.016,480.105 c 0.12,0.971 0.72,1.33 1.379,1.33 0.647,0 1.092,-0.299 1.38,-0.719 l 1.115,0.803 c -0.624,0.84 -1.26,1.271 -2.591,1.271 -1.715,0 -2.976,-1.26 -2.976,-3.059 0,-1.666 1.129,-3.045 2.928,-3.045 1.979,0 2.759,1.414 2.759,3.213 v 0.205 l -3.994,0.001 0,0 z m 0.047,-1.031 h 2.314 c -0.107,-0.672 -0.623,-1.02 -1.14,-1.02 -0.538,0.001 -1.006,0.337 -1.174,1.02 z"
               id="path11655"
               style="fill:#ffffff" />
            <path
               d="m 278.644,476.818 v -2.086 h 1.681 v 2.086 h 0.826 v 1.56 h -0.826 v 4.295 h -1.681 v -4.295 h -0.814 v -1.56 h 0.814 z"
               id="path11657"
               style="fill:#ffffff" />
            <path
               d="m 287.463,482.023 -2.184,-5.205 h 1.764 l 1.128,2.734 c 0.096,0.24 0.18,0.563 0.19,0.6 0,-0.022 0.108,-0.348 0.217,-0.6 l 1.176,-2.734 h 1.774 l -4.042,9.127 h -1.751 l 1.728,-3.922 z"
               id="path11659"
               style="fill:#ffffff" />
            <path
               d="m 296.38,476.818 v -2.086 h 1.679 v 2.086 h 0.828 v 1.56 h -0.828 v 4.295 h -1.679 v -4.295 h -0.815 v -1.56 h 0.815 z"
               id="path11661"
               style="fill:#ffffff" />
            <path
               d="m 299.704,479.732 c 0,-1.738 1.343,-3.045 3.059,-3.045 1.715,0 3.058,1.307 3.058,3.045 0,1.74 -1.343,3.047 -3.058,3.047 -1.716,0 -3.059,-1.306 -3.059,-3.047 z m 4.474,0 c 0,-0.887 -0.564,-1.547 -1.415,-1.547 -0.864,0 -1.427,0.66 -1.427,1.547 0,0.9 0.587,1.562 1.427,1.562 0.85,0 1.415,-0.66 1.415,-1.562 z"
               id="path11663"
               style="fill:#ffffff" />
          </g>
        </g>
        <path
           d="m 311.076,478.439 c 0,4.244 3.438,7.684 7.684,7.684 h 3.152 c 4.241,0 7.684,-3.438 7.684,-7.684 0,-4.242 -3.441,-7.684 -7.684,-7.684 h -3.152 c -4.244,0.002 -7.684,3.442 -7.684,7.684 0,0 0,-4.242 0,0 z"
           id="path11665"
           style="fill:#ffffff" />
      </g>
    </g>
    <g
       transform="matrix(2.5,0,0,2.5,-220.30805,264.0016)"
       id="g11789">
      <path
         d="m 360.39,109.81 h -20 -40.722 -43.271 l -2.056,2.545 c -0.19,0.234 -0.476,0.372 -0.778,0.372 h -7.757 c -0.302,0 -0.588,-0.138 -0.778,-0.372 l -2.056,-2.545 h -8.083 c -2.761,0 -5,2.237 -5,5 v 12.167 c 0,2.762 2.239,4.999 5,4.999 h 8.088 l 2.051,2.539 c 0.19,0.235 0.477,0.373 0.778,0.373 h 7.757 c 0.303,0 0.588,-0.138 0.778,-0.373 l 2.051,-2.539 h 43.274 40.722 20 c 2.762,0 5,-2.237 5,-4.999 V 114.81 c 0.002,-2.762 -2.237,-5 -4.998,-5 z"
         id="path11791"
         style="fill:#4b67af" />
      <g
         id="g11793">
        <g
           id="g11795">
          <g
             id="g11797">
            <path
               d="m 238.222,118.729 v -2.087 h 1.679 v 2.087 h 0.828 v 1.559 h -0.828 v 4.294 h -1.679 v -4.294 h -0.814 v -1.559 h 0.814 z"
               id="path11799"
               style="fill:#ffffff" />
            <path
               d="m 247.399,124.581 h -1.679 v -0.396 c 0,-0.098 0.012,-0.24 0.036,-0.408 -0.384,0.552 -0.984,0.947 -1.775,0.947 -1.211,0 -2.123,-0.947 -2.123,-2.52 v -3.478 h 1.691 v 3.382 c 0,0.814 0.516,1.235 1.08,1.235 0.503,0 1.055,-0.396 1.091,-1.188 v -3.43 h 1.679 v 5.856 z"
               id="path11801"
               style="fill:#ffffff" />
            <path
               d="m 250.617,124.581 h -1.68 v -5.853 h 1.68 v 0.396 c 0,0.132 -0.024,0.349 -0.061,0.576 0.336,-0.636 0.863,-1.116 1.631,-1.116 v 1.645 c -0.875,0 -1.57,0.504 -1.57,1.463 v 2.889 z"
               id="path11803"
               style="fill:#ffffff" />
            <path
               d="m 255.068,124.581 h -1.679 v -5.853 h 1.679 v 0.396 c 0,0.097 -0.012,0.24 -0.035,0.408 0.384,-0.552 0.972,-0.948 1.774,-0.948 1.211,0 2.123,0.948 2.123,2.52 v 3.479 h -1.691 V 121.2 c 0,-0.814 -0.516,-1.235 -1.079,-1.235 -0.505,0 -1.067,0.407 -1.092,1.188 v 3.428 z"
               id="path11805"
               style="fill:#ffffff" />
          </g>
        </g>
        <g
           id="g11807">
          <g
             id="g11809">
            <path
               d="m 319.725,124.581 v -0.768 c -0.469,0.552 -1.092,0.888 -1.774,0.888 -1.645,0 -2.531,-1.487 -2.531,-3.07 0,-1.56 0.924,-3.033 2.543,-3.033 0.646,0 1.247,0.238 1.703,0.72 v -3.73 h 1.68 v 8.995 l -1.621,-0.002 0,0 z m -0.037,-2.938 c 0,-0.899 -0.516,-1.547 -1.295,-1.547 -0.875,0 -1.307,0.694 -1.307,1.559 0,0.852 0.442,1.56 1.307,1.56 0.767,-0.001 1.295,-0.769 1.295,-1.572 z"
               id="path11811"
               style="fill:#ffffff" />
            <path
               d="m 324.213,122.015 c 0.12,0.972 0.72,1.331 1.379,1.331 0.648,0 1.092,-0.301 1.38,-0.721 l 1.115,0.805 c -0.624,0.84 -1.259,1.271 -2.591,1.271 -1.716,0 -2.976,-1.26 -2.976,-3.059 0,-1.667 1.128,-3.046 2.927,-3.046 1.979,0 2.76,1.415 2.76,3.214 v 0.204 l -3.994,0.001 0,0 z m 0.049,-1.032 h 2.314 c -0.108,-0.672 -0.624,-1.021 -1.141,-1.021 -0.539,0.002 -1.005,0.338 -1.173,1.021 z"
               id="path11813"
               style="fill:#ffffff" />
            <path
               d="m 333.044,118.824 0.743,-0.852 0.983,0.924 -0.695,0.694 c 0.336,0.408 0.527,0.911 0.527,1.464 0,1.464 -1.2,2.435 -2.676,2.435 -0.348,0 -0.646,-0.035 -0.936,-0.107 -0.517,0.433 -0.563,0.959 0.229,0.959 0.552,0 0.912,-0.228 1.715,-0.228 3.06,0 3.035,4.27 -1.008,4.27 -3.033,0 -3.657,-1.967 -2.626,-3.321 -0.432,-0.672 -0.252,-1.703 0.552,-2.326 -0.396,-0.42 -0.61,-0.996 -0.61,-1.68 0,-1.464 1.211,-2.446 2.686,-2.446 0.396,-0.002 0.78,0.071 1.116,0.214 z m -2.627,6.92 c -0.323,0.612 0.071,1.212 1.511,1.212 2.111,0 2.051,-1.464 0.948,-1.464 -0.647,0 -1.296,0.276 -2.147,0.276 -0.108,0.001 -0.215,-0.011 -0.312,-0.024 z m 1.511,-3.634 c 0.66,0 1.092,-0.372 1.092,-1.056 0,-0.695 -0.432,-1.092 -1.092,-1.092 -0.671,0 -1.103,0.407 -1.103,1.092 0,0.697 0.468,1.056 1.103,1.056 z"
               id="path11815"
               style="fill:#ffffff" />
            <path
               d="m 337.629,124.581 h -1.68 v -5.853 h 1.68 v 0.396 c 0,0.132 -0.023,0.349 -0.062,0.576 0.336,-0.636 0.863,-1.116 1.632,-1.116 v 1.645 c -0.875,0 -1.57,0.504 -1.57,1.463 v 2.889 z"
               id="path11817"
               style="fill:#ffffff" />
            <path
               d="m 341.732,122.015 c 0.12,0.972 0.721,1.331 1.379,1.331 0.648,0 1.093,-0.301 1.381,-0.721 l 1.114,0.805 c -0.624,0.84 -1.259,1.271 -2.591,1.271 -1.715,0 -2.975,-1.26 -2.975,-3.059 0,-1.667 1.128,-3.046 2.927,-3.046 1.979,0 2.759,1.415 2.759,3.214 v 0.204 l -3.994,0.001 0,0 z m 0.049,-1.032 h 2.314 c -0.108,-0.672 -0.624,-1.021 -1.14,-1.021 -0.539,0.002 -1.006,0.338 -1.174,1.021 z"
               id="path11819"
               style="fill:#ffffff" />
            <path
               d="m 348.236,122.015 c 0.12,0.972 0.721,1.331 1.379,1.331 0.648,0 1.093,-0.301 1.381,-0.721 l 1.114,0.805 c -0.624,0.84 -1.259,1.271 -2.591,1.271 -1.715,0 -2.975,-1.26 -2.975,-3.059 0,-1.667 1.128,-3.046 2.927,-3.046 1.979,0 2.759,1.415 2.759,3.214 v 0.204 l -3.994,0.001 0,0 z m 0.049,-1.032 h 2.313 c -0.107,-0.672 -0.624,-1.021 -1.14,-1.021 -0.538,0.002 -1.005,0.338 -1.173,1.021 z"
               id="path11821"
               style="fill:#ffffff" />
            <path
               d="m 353.997,122.614 c 0.406,0.468 1.056,0.659 1.619,0.659 0.358,0 0.623,-0.145 0.623,-0.359 0,-0.3 -0.301,-0.442 -0.792,-0.588 -0.91,-0.264 -2.038,-0.768 -2.038,-1.955 0,-1.127 1.091,-1.763 2.074,-1.763 0.888,0 1.512,0.3 2.039,0.852 l -0.936,1.008 c -0.252,-0.275 -0.721,-0.527 -1.068,-0.527 -0.312,0 -0.539,0.145 -0.539,0.372 0,0.288 0.336,0.432 0.863,0.588 0.888,0.264 2.027,0.814 2.027,1.931 0,1.104 -0.947,1.871 -2.269,1.871 -1.055,0 -1.918,-0.3 -2.555,-0.982 l 0.952,-1.107 z"
               id="path11823"
               style="fill:#ffffff" />
          </g>
        </g>
        <path
           d="m 274.912,112.173 c -4.34,0 -7.959,3.127 -8.733,7.244 l -1.194,-0.164 c -0.095,-0.012 -0.188,0.025 -0.25,0.099 -0.061,0.072 -0.08,0.174 -0.049,0.264 l 1.318,3.955 c 0.033,0.1 0.12,0.172 0.225,0.186 0.014,0.002 0.025,0.003 0.037,0.003 0.092,0 0.178,-0.044 0.229,-0.121 l 2.337,-3.451 c 0.055,-0.079 0.063,-0.181 0.023,-0.269 -0.04,-0.088 -0.12,-0.147 -0.215,-0.162 L 267,119.532 c 0.717,-3.714 3.99,-6.528 7.911,-6.528 4.443,0 8.059,3.615 8.059,8.061 0,4.442 -3.614,8.059 -8.059,8.059 -0.229,0 -0.414,0.187 -0.414,0.414 0,0.229 0.186,0.414 0.414,0.414 4.899,0 8.888,-3.986 8.888,-8.887 0.001,-4.903 -3.986,-8.892 -8.887,-8.892 z"
           id="path11825"
           style="fill:#ffffff" />
        <path
           d="m 290.797,121.349 c 0,4.244 3.439,7.684 7.685,7.684 h 3.151 c 4.243,0 7.685,-3.438 7.685,-7.684 0,-4.242 -3.44,-7.685 -7.685,-7.685 h -3.151 c -4.245,0.001 -7.685,3.442 -7.685,7.685 0,0 0,-4.243 0,0 z"
           id="path11827"
           style="fill:#ffffff" />
      </g>
    </g>
    <g
       transform="matrix(2.5,0,0,2.5,-220.30805,101.1584)"
       id="g11959">
      <path
         d="m 360.39,138.435 h -20 -40.722 -43.271 l -2.056,2.545 c -0.19,0.234 -0.476,0.372 -0.778,0.372 h -7.757 c -0.302,0 -0.588,-0.138 -0.778,-0.372 l -2.056,-2.545 h -8.083 c -2.761,0 -5,2.237 -5,5 v 12.167 c 0,2.762 2.239,4.999 5,4.999 h 8.088 l 2.051,2.539 c 0.19,0.235 0.477,0.373 0.778,0.373 h 7.757 c 0.303,0 0.588,-0.138 0.778,-0.373 l 2.051,-2.539 h 43.274 40.722 20 c 2.762,0 5,-2.237 5,-4.999 v -12.167 c 0.002,-2.762 -2.237,-5 -4.998,-5 z"
         id="path11961"
         style="fill:#4b67af" />
      <g
         id="g11963">
        <g
           id="g11965">
          <g
             id="g11967">
            <path
               d="m 238.222,147.354 v -2.087 h 1.679 v 2.087 h 0.828 v 1.559 h -0.828 v 4.294 h -1.679 v -4.294 h -0.814 v -1.559 h 0.814 z"
               id="path11969"
               style="fill:#ffffff" />
            <path
               d="m 247.399,153.206 h -1.679 v -0.396 c 0,-0.098 0.012,-0.24 0.036,-0.408 -0.384,0.552 -0.984,0.947 -1.775,0.947 -1.211,0 -2.123,-0.947 -2.123,-2.52 v -3.478 h 1.691 v 3.382 c 0,0.814 0.516,1.235 1.08,1.235 0.503,0 1.055,-0.396 1.091,-1.188 v -3.43 h 1.679 v 5.856 z"
               id="path11971"
               style="fill:#ffffff" />
            <path
               d="m 250.617,153.206 h -1.68 v -5.853 h 1.68 v 0.396 c 0,0.132 -0.024,0.349 -0.061,0.576 0.336,-0.636 0.863,-1.116 1.631,-1.116 v 1.645 c -0.875,0 -1.57,0.504 -1.57,1.463 v 2.889 z"
               id="path11973"
               style="fill:#ffffff" />
            <path
               d="m 255.068,153.206 h -1.679 v -5.853 h 1.679 v 0.396 c 0,0.097 -0.012,0.24 -0.035,0.408 0.384,-0.552 0.972,-0.948 1.774,-0.948 1.211,0 2.123,0.948 2.123,2.52 v 3.479 h -1.691 v -3.382 c 0,-0.814 -0.516,-1.235 -1.079,-1.235 -0.505,0 -1.067,0.407 -1.092,1.188 v 3.427 z"
               id="path11975"
               style="fill:#ffffff" />
          </g>
        </g>
        <g
           id="g11977">
          <g
             id="g11979">
            <path
               d="m 319.725,153.206 v -0.768 c -0.469,0.552 -1.092,0.888 -1.774,0.888 -1.645,0 -2.531,-1.487 -2.531,-3.07 0,-1.56 0.924,-3.033 2.543,-3.033 0.646,0 1.247,0.238 1.703,0.72 v -3.73 h 1.68 v 8.995 l -1.621,-0.002 0,0 z m -0.037,-2.938 c 0,-0.899 -0.516,-1.547 -1.295,-1.547 -0.875,0 -1.307,0.694 -1.307,1.559 0,0.852 0.442,1.56 1.307,1.56 0.767,-0.001 1.295,-0.769 1.295,-1.572 z"
               id="path11981"
               style="fill:#ffffff" />
            <path
               d="m 324.213,150.64 c 0.12,0.972 0.72,1.331 1.379,1.331 0.648,0 1.092,-0.301 1.38,-0.721 l 1.115,0.805 c -0.624,0.84 -1.259,1.271 -2.591,1.271 -1.716,0 -2.976,-1.26 -2.976,-3.059 0,-1.667 1.128,-3.046 2.927,-3.046 1.979,0 2.76,1.415 2.76,3.214 v 0.204 l -3.994,10e-4 0,0 z m 0.049,-1.032 h 2.314 c -0.108,-0.672 -0.624,-1.021 -1.141,-1.021 -0.539,0.002 -1.005,0.338 -1.173,1.021 z"
               id="path11983"
               style="fill:#ffffff" />
            <path
               d="m 333.044,147.449 0.743,-0.852 0.983,0.924 -0.695,0.694 c 0.336,0.408 0.527,0.911 0.527,1.464 0,1.464 -1.2,2.435 -2.676,2.435 -0.348,0 -0.646,-0.035 -0.936,-0.107 -0.517,0.433 -0.563,0.959 0.229,0.959 0.552,0 0.912,-0.228 1.715,-0.228 3.06,0 3.035,4.27 -1.008,4.27 -3.033,0 -3.657,-1.967 -2.626,-3.321 -0.432,-0.672 -0.252,-1.703 0.552,-2.326 -0.396,-0.42 -0.61,-0.996 -0.61,-1.68 0,-1.464 1.211,-2.446 2.686,-2.446 0.396,-0.002 0.78,0.071 1.116,0.214 z m -2.627,6.92 c -0.323,0.612 0.071,1.212 1.511,1.212 2.111,0 2.051,-1.464 0.948,-1.464 -0.647,0 -1.296,0.276 -2.147,0.276 -0.108,0.001 -0.215,-0.011 -0.312,-0.024 z m 1.511,-3.634 c 0.66,0 1.092,-0.372 1.092,-1.056 0,-0.695 -0.432,-1.092 -1.092,-1.092 -0.671,0 -1.103,0.407 -1.103,1.092 0,0.697 0.468,1.056 1.103,1.056 z"
               id="path11985"
               style="fill:#ffffff" />
            <path
               d="m 337.629,153.206 h -1.68 v -5.853 h 1.68 v 0.396 c 0,0.132 -0.023,0.349 -0.062,0.576 0.336,-0.636 0.863,-1.116 1.632,-1.116 v 1.645 c -0.875,0 -1.57,0.504 -1.57,1.463 v 2.889 z"
               id="path11987"
               style="fill:#ffffff" />
            <path
               d="m 341.732,150.64 c 0.12,0.972 0.721,1.331 1.379,1.331 0.648,0 1.093,-0.301 1.381,-0.721 l 1.114,0.805 c -0.624,0.84 -1.259,1.271 -2.591,1.271 -1.715,0 -2.975,-1.26 -2.975,-3.059 0,-1.667 1.128,-3.046 2.927,-3.046 1.979,0 2.759,1.415 2.759,3.214 v 0.204 l -3.994,10e-4 0,0 z m 0.049,-1.032 h 2.314 c -0.108,-0.672 -0.624,-1.021 -1.14,-1.021 -0.539,0.002 -1.006,0.338 -1.174,1.021 z"
               id="path11989"
               style="fill:#ffffff" />
            <path
               d="m 348.236,150.64 c 0.12,0.972 0.721,1.331 1.379,1.331 0.648,0 1.093,-0.301 1.381,-0.721 l 1.114,0.805 c -0.624,0.84 -1.259,1.271 -2.591,1.271 -1.715,0 -2.975,-1.26 -2.975,-3.059 0,-1.667 1.128,-3.046 2.927,-3.046 1.979,0 2.759,1.415 2.759,3.214 v 0.204 l -3.994,10e-4 0,0 z m 0.049,-1.032 h 2.313 c -0.107,-0.672 -0.624,-1.021 -1.14,-1.021 -0.538,0.002 -1.005,0.338 -1.173,1.021 z"
               id="path11991"
               style="fill:#ffffff" />
            <path
               d="m 353.997,151.239 c 0.406,0.468 1.056,0.659 1.619,0.659 0.358,0 0.623,-0.145 0.623,-0.359 0,-0.3 -0.301,-0.442 -0.792,-0.588 -0.91,-0.264 -2.038,-0.768 -2.038,-1.955 0,-1.127 1.091,-1.763 2.074,-1.763 0.888,0 1.512,0.3 2.039,0.852 l -0.936,1.009 c -0.252,-0.276 -0.721,-0.528 -1.068,-0.528 -0.312,0 -0.539,0.145 -0.539,0.372 0,0.288 0.336,0.432 0.863,0.588 0.888,0.264 2.027,0.814 2.027,1.931 0,1.104 -0.947,1.871 -2.269,1.871 -1.055,0 -1.918,-0.3 -2.555,-0.982 l 0.952,-1.107 z"
               id="path11993"
               style="fill:#ffffff" />
          </g>
        </g>
        <path
           d="m 273.559,140.798 c 4.339,0 7.959,3.127 8.733,7.244 l 1.193,-0.164 c 0.096,-0.012 0.188,0.025 0.25,0.099 0.062,0.072 0.08,0.174 0.05,0.264 l -1.318,3.955 c -0.033,0.1 -0.12,0.172 -0.225,0.186 -0.014,0.002 -0.025,0.004 -0.037,0.004 -0.093,0 -0.179,-0.045 -0.229,-0.122 l -2.337,-3.451 c -0.055,-0.079 -0.063,-0.181 -0.023,-0.269 0.038,-0.088 0.119,-0.147 0.215,-0.162 l 1.64,-0.225 c -0.717,-3.714 -3.991,-6.528 -7.911,-6.528 -4.443,0 -8.059,3.615 -8.059,8.061 0,4.442 3.614,8.059 8.059,8.059 0.229,0 0.414,0.187 0.414,0.414 0,0.229 -0.186,0.414 -0.414,0.414 -4.899,0 -8.888,-3.986 -8.888,-8.887 -0.001,-4.903 3.986,-8.892 8.887,-8.892 z"
           id="path11995"
           style="fill:#ffffff" />
        <path
           d="m 290.797,149.974 c 0,4.244 3.439,7.684 7.685,7.684 h 3.151 c 4.243,0 7.685,-3.438 7.685,-7.684 0,-4.242 -3.44,-7.685 -7.685,-7.685 h -3.151 c -4.245,0.001 -7.685,3.442 -7.685,7.685 0,0 0,-4.243 0,0 z"
           id="path11997"
           style="fill:#ffffff" />
      </g>
    </g>
  </g>
</svg>
