<?xml version="1.0" encoding="UTF-8" standalone="no"?>
<!-- Created with Inkscape (http://www.inkscape.org/) -->

<svg
   xmlns:dc="http://purl.org/dc/elements/1.1/"
   xmlns:cc="http://creativecommons.org/ns#"
   xmlns:rdf="http://www.w3.org/1999/02/22-rdf-syntax-ns#"
   xmlns:svg="http://www.w3.org/2000/svg"
   xmlns="http://www.w3.org/2000/svg"
   version="1.1"
   width="210mm"
   height="297mm"
   id="svg6611">
  <defs
     id="defs3" />
  <metadata
     id="metadata4">
    <rdf:RDF>
      <cc:Work
         rdf:about="">
        <dc:format>image/svg+xml</dc:format>
        <dc:type
           rdf:resource="http://purl.org/dc/dcmitype/StillImage" />
        <dc:title></dc:title>
      </cc:Work>
    </rdf:RDF>
  </metadata>
  <g
     id="layer1">
    <text
       x="30.609764"
       y="41.766277"
       id="text2985"
       xml:space="preserve"
       style="font-size:40px;font-style:normal;font-variant:normal;font-weight:normal;font-stretch:normal;line-height:125%;letter-spacing:0px;word-spacing:0px;fill:#000000;fill-opacity:1;stroke:none;font-family:ScratchFont;-inkscape-font-specification:ScratchFont"><tspan
         x="30.609764"
         y="41.766277"
         id="tspan2987">Scratch pen blocks</tspan></text>
    <g
       transform="matrix(2.5,0,0,2.5,-226.3379,-137.95636)"
       id="g4879">
      <g
         id="g4881">
        <path
           d="m 372.39,226.173 h -0.589 -6.133 -0.278 -0.589 -0.411 -0.589 -5.133 -1 -0.278 -0.589 -4.998 -1.135 -1.418 -1.582 -4.873 -7.795 -11.61 -0.589 -6.133 -0.278 -0.589 -0.006 -6.127 H 297 244.397 l -2.056,2.546 c -0.19,0.233 -0.476,0.37 -0.778,0.37 h -7.757 c -0.303,0 -0.588,-0.137 -0.778,-0.37 l -2.056,-2.546 h -8.083 c -2.762,0 -5,2.238 -5,5 v 12.166 c 0,2.763 2.238,5 5,5 h 8.088 l 2.051,2.539 c 0.19,0.236 0.477,0.373 0.778,0.373 h 7.757 c 0.304,0 0.588,-0.137 0.778,-0.373 l 2.051,-2.539 H 297 h 12.668 6.127 0.006 0.589 0.278 6.133 0.589 11.61 7.795 4.873 1.582 1.418 1.135 4.998 0.589 0.278 1 5.133 0.589 0.411 0.589 0.278 6.133 0.589 c 2.762,0 5,-2.237 5,-5 v -12.166 c 0,-2.762 -2.239,-5 -5,-5 z"
           id="path4883"
           style="fill:#007d5b" />
        <g
           id="g4885">
          <g
             id="g4887">
            <path
               d="m 231.369,237.069 c -0.301,-0.323 -0.564,-0.552 -1.043,-0.552 -0.78,0 -1.332,0.624 -1.332,1.486 0,0.899 0.552,1.463 1.332,1.463 0.479,0 0.839,-0.264 1.091,-0.622 l 1.259,0.959 c -0.6,0.814 -1.319,1.247 -2.351,1.247 -1.764,0 -3.011,-1.344 -3.011,-3.047 0,-1.703 1.247,-3.046 2.998,-3.046 0.924,0 1.655,0.396 2.22,1.031 l -1.163,1.081 z"
               id="path4889"
               style="fill:#ffffff" />
            <path
               d="m 233.855,240.943 v -8.995 h 1.68 v 3.538 c 0,0.096 -0.013,0.252 -0.036,0.408 0.384,-0.553 0.972,-0.948 1.774,-0.948 1.211,0 2.123,0.948 2.123,2.519 v 3.479 h -1.69 v -3.382 c 0,-0.815 -0.517,-1.235 -1.08,-1.235 -0.517,0 -1.021,0.407 -1.091,1.247 v 3.37 l -1.68,-10e-4 0,0 z"
               id="path4891"
               style="fill:#ffffff" />
            <path
               d="m 246.284,240.943 c -0.721,0 -1.212,-0.384 -1.476,-0.995 -0.336,0.563 -1.043,1.115 -2.087,1.115 -1.295,0 -1.955,-0.84 -1.955,-1.715 0,-0.973 0.792,-1.919 2.423,-1.919 0.492,0 0.972,0.06 1.415,0.144 v -0.192 c 0,-0.574 -0.396,-0.959 -1.043,-0.959 -0.456,0 -0.828,0.204 -1.066,0.589 l -1.176,-0.877 c 0,0 0.672,-1.198 2.327,-1.198 1.631,0 2.626,0.972 2.626,2.375 v 1.763 c 0,0.216 0.145,0.348 0.36,0.348 h 0.24 v 1.523 l -0.588,-0.002 0,0 z m -1.679,-2.327 c -0.312,-0.06 -0.695,-0.119 -0.923,-0.119 -0.684,0 -1.211,0.229 -1.211,0.707 0,0.324 0.24,0.54 0.684,0.54 0.706,0 1.234,-0.492 1.45,-1.128 z"
               id="path4893"
               style="fill:#ffffff" />
            <path
               d="m 249.562,240.943 h -1.679 v -5.854 h 1.679 v 0.396 c 0,0.096 -0.012,0.24 -0.036,0.408 0.385,-0.553 0.973,-0.948 1.775,-0.948 1.211,0 2.123,0.948 2.123,2.519 v 3.479 h -1.691 v -3.382 c 0,-0.815 -0.516,-1.235 -1.08,-1.235 -0.504,0 -1.066,0.407 -1.091,1.188 v 3.429 z"
               id="path4895"
               style="fill:#ffffff" />
            <path
               d="m 258.621,235.187 0.742,-0.853 0.984,0.924 -0.696,0.695 c 0.336,0.408 0.528,0.911 0.528,1.463 0,1.464 -1.2,2.436 -2.675,2.436 -0.348,0 -0.647,-0.035 -0.937,-0.107 -0.516,0.433 -0.563,0.959 0.229,0.959 0.552,0 0.912,-0.228 1.715,-0.228 3.059,0 3.035,4.27 -1.007,4.27 -3.034,0 -3.658,-1.967 -2.626,-3.322 -0.433,-0.672 -0.252,-1.702 0.552,-2.325 -0.396,-0.42 -0.612,-0.996 -0.612,-1.681 0,-1.463 1.211,-2.445 2.688,-2.445 0.395,-0.002 0.779,0.07 1.115,0.214 z m -2.627,6.919 c -0.324,0.612 0.071,1.212 1.511,1.212 2.111,0 2.051,-1.464 0.948,-1.464 -0.648,0 -1.295,0.275 -2.147,0.275 -0.108,0.002 -0.216,-0.01 -0.312,-0.023 z m 1.511,-3.633 c 0.66,0 1.091,-0.372 1.091,-1.057 0,-0.694 -0.432,-1.091 -1.091,-1.091 -0.671,0 -1.104,0.407 -1.104,1.091 10e-4,0.697 0.469,1.057 1.104,1.057 z"
               id="path4897"
               style="fill:#ffffff" />
            <path
               d="m 262.858,238.377 c 0.12,0.973 0.721,1.331 1.379,1.331 0.647,0 1.092,-0.3 1.38,-0.72 l 1.114,0.804 c -0.624,0.84 -1.259,1.271 -2.59,1.271 -1.715,0 -2.975,-1.26 -2.975,-3.06 0,-1.667 1.127,-3.046 2.926,-3.046 1.979,0 2.759,1.415 2.759,3.214 v 0.204 l -3.993,0.002 0,0 z m 0.048,-1.031 h 2.314 c -0.108,-0.673 -0.624,-1.021 -1.139,-1.021 -0.539,0.001 -1.007,0.337 -1.175,1.021 z"
               id="path4899"
               style="fill:#ffffff" />
            <path
               d="m 271.631,243.941 v -8.852 h 1.679 v 0.589 c 0.456,-0.48 1.055,-0.721 1.703,-0.721 1.619,0 2.542,1.476 2.542,3.034 0,1.583 -0.888,3.07 -2.531,3.07 -0.684,0 -1.318,-0.336 -1.774,-0.889 v 3.767 l -1.619,0.002 0,0 z m 4.258,-5.924 c 0,-0.863 -0.432,-1.56 -1.308,-1.56 -0.779,0 -1.295,0.647 -1.295,1.547 0,0.805 0.526,1.571 1.295,1.571 0.864,0.001 1.308,-0.707 1.308,-1.558 z"
               id="path4901"
               style="fill:#ffffff" />
            <path
               d="m 280.066,238.377 c 0.12,0.973 0.721,1.331 1.379,1.331 0.647,0 1.092,-0.3 1.38,-0.72 l 1.114,0.804 c -0.624,0.84 -1.259,1.271 -2.59,1.271 -1.715,0 -2.975,-1.26 -2.975,-3.06 0,-1.667 1.127,-3.046 2.926,-3.046 1.979,0 2.759,1.415 2.759,3.214 v 0.204 l -3.993,0.002 0,0 z m 0.048,-1.031 h 2.314 c -0.108,-0.673 -0.624,-1.021 -1.139,-1.021 -0.539,0.001 -1.007,0.337 -1.175,1.021 z"
               id="path4903"
               style="fill:#ffffff" />
            <path
               d="m 286.918,240.943 h -1.68 v -5.854 h 1.68 v 0.396 c 0,0.096 -0.013,0.24 -0.036,0.408 0.384,-0.553 0.972,-0.948 1.774,-0.948 1.212,0 2.123,0.948 2.123,2.519 v 3.479 h -1.69 v -3.382 c 0,-0.815 -0.517,-1.235 -1.08,-1.235 -0.504,0 -1.067,0.407 -1.091,1.188 v 3.429 l 0,0 z"
               id="path4905"
               style="fill:#ffffff" />
            <path
               d="m 299.732,237.069 c -0.299,-0.323 -0.563,-0.552 -1.043,-0.552 -0.779,0 -1.331,0.624 -1.331,1.486 0,0.899 0.552,1.463 1.331,1.463 0.479,0 0.84,-0.264 1.092,-0.622 l 1.26,0.959 c -0.601,0.814 -1.319,1.247 -2.352,1.247 -1.763,0 -3.01,-1.344 -3.01,-3.047 0,-1.703 1.247,-3.046 2.998,-3.046 0.924,0 1.655,0.396 2.219,1.031 l -1.164,1.081 z"
               id="path4907"
               style="fill:#ffffff" />
            <path
               d="m 301.859,238.005 c 0,-1.738 1.344,-3.046 3.06,-3.046 1.715,0 3.058,1.308 3.058,3.046 0,1.739 -1.343,3.048 -3.058,3.048 -1.717,-0.001 -3.06,-1.309 -3.06,-3.048 z m 4.473,0 c 0,-0.888 -0.563,-1.547 -1.414,-1.547 -0.864,0 -1.429,0.659 -1.429,1.547 0,0.899 0.589,1.561 1.429,1.561 0.851,-0.002 1.414,-0.662 1.414,-1.561 z"
               id="path4909"
               style="fill:#ffffff" />
            <path
               d="m 309.154,240.943 v -8.995 h 1.703 v 8.995 h -1.703 z"
               id="path4911"
               style="fill:#ffffff" />
            <path
               d="m 312.035,238.005 c 0,-1.738 1.343,-3.046 3.059,-3.046 1.715,0 3.058,1.308 3.058,3.046 0,1.739 -1.343,3.048 -3.058,3.048 -1.716,-0.001 -3.059,-1.309 -3.059,-3.048 z m 4.473,0 c 0,-0.888 -0.563,-1.547 -1.414,-1.547 -0.864,0 -1.428,0.659 -1.428,1.547 0,0.899 0.588,1.561 1.428,1.561 0.85,-0.002 1.414,-0.662 1.414,-1.561 z"
               id="path4913"
               style="fill:#ffffff" />
            <path
               d="m 324.824,240.943 h -1.681 v -0.396 c 0,-0.097 0.012,-0.239 0.036,-0.407 -0.384,0.552 -0.983,0.946 -1.775,0.946 -1.211,0 -2.121,-0.946 -2.121,-2.519 v -3.479 h 1.689 v 3.383 c 0,0.814 0.516,1.234 1.079,1.234 0.504,0 1.056,-0.396 1.092,-1.188 v -3.431 h 1.681 v 5.857 l 0,0 z"
               id="path4915"
               style="fill:#ffffff" />
            <path
               d="m 328.041,240.943 h -1.68 v -5.854 h 1.68 v 0.396 c 0,0.132 -0.023,0.348 -0.061,0.576 0.336,-0.637 0.863,-1.116 1.631,-1.116 v 1.644 c -0.876,0 -1.57,0.505 -1.57,1.464 v 2.89 z"
               id="path4917"
               style="fill:#ffffff" />
            <path
               d="m 334.414,240.943 v -8.995 h 1.68 v 3.73 c 0.455,-0.48 1.055,-0.721 1.703,-0.721 1.619,0 2.542,1.476 2.542,3.034 0,1.583 -0.888,3.07 -2.53,3.07 -0.684,0 -1.32,-0.336 -1.774,-0.889 v 0.769 l -1.621,0.002 0,0 z m 4.258,-2.926 c 0,-0.863 -0.433,-1.56 -1.309,-1.56 -0.778,0 -1.295,0.647 -1.295,1.547 0,0.805 0.527,1.571 1.295,1.571 0.866,0.001 1.309,-0.707 1.309,-1.558 z"
               id="path4919"
               style="fill:#ffffff" />
            <path
               d="m 342.885,240.296 -2.182,-5.205 h 1.762 l 1.128,2.734 c 0.097,0.24 0.181,0.563 0.192,0.6 0,-0.023 0.106,-0.348 0.215,-0.6 l 1.176,-2.734 h 1.775 l -4.042,9.128 h -1.752 l 1.728,-3.923 z"
               id="path4921"
               style="fill:#ffffff" />
          </g>
        </g>
        <path
           d="m 351.803,237.48 c 0,4.245 3.439,7.685 7.684,7.685 h 3.152 c 4.242,0 7.684,-3.438 7.684,-7.685 0,-4.243 -3.44,-7.686 -7.684,-7.686 h -3.152 c -4.245,0.002 -7.684,3.443 -7.684,7.686 0,0 0,-4.243 0,0 z"
           id="path4923"
           style="fill:#ffffff" />
      </g>
    </g>
    <g
       transform="matrix(2.5,0,0,2.5,-202.5879,-568.8153)"
       id="g5076">
      <g
         id="g5078">
        <path
           d="m 362.89,327.424 h -0.589 -6.133 -0.278 -0.589 -0.411 -0.589 -3.411 -0.589 -1.133 -1 -0.278 -0.589 -3.133 -0.278 -0.589 -0.411 -0.587 -0.002 -0.551 -0.582 -1.418 -1.582 -0.278 -0.589 -0.006 -0.127 -1 -0.278 -0.589 -2.006 -2.127 -0.865 -0.553 -0.582 -1.418 -1.582 -0.278 -0.39 -0.199 -0.006 -1.045 -2.955 -2.127 -0.668 -5 -1.25 -4.75 -1 -52.603 l -2.056,2.545 c -0.19,0.233 -0.476,0.371 -0.778,0.371 h -7.757 c -0.303,0 -0.588,-0.138 -0.778,-0.371 l -2.056,-2.545 h -8.083 c -2.762,0 -5,2.237 -5,5 v 12.166 c 0,2.762 2.238,5 5,5 h 8.088 l 2.051,2.539 c 0.19,0.235 0.477,0.373 0.778,0.373 h 7.757 c 0.304,0 0.588,-0.138 0.778,-0.373 l 2.051,-2.539 h 52.608 1 4.75 1.25 5 0.668 2.127 2.955 1.045 0.006 0.199 0.39 0.278 1.582 1.418 0.582 0.553 0.865 2.127 2.006 0.589 0.278 1 0.127 0.006 0.589 0.278 1.582 1.418 0.582 0.551 0.002 0.587 0.411 0.589 0.278 3.133 0.589 0.278 1 1.133 0.589 3.411 0.589 0.411 0.589 0.278 6.133 0.589 c 2.763,0 5,-2.238 5,-5 v -12.166 c 0,-2.763 -2.239,-5 -5,-5 z"
           id="path5080"
           style="fill:#007d5b" />
        <g
           id="g5082">
          <g
             id="g5084">
            <path
               d="m 237.869,338.319 c -0.301,-0.323 -0.564,-0.552 -1.043,-0.552 -0.78,0 -1.332,0.624 -1.332,1.487 0,0.898 0.552,1.463 1.332,1.463 0.479,0 0.839,-0.265 1.091,-0.623 l 1.259,0.959 c -0.6,0.814 -1.319,1.248 -2.351,1.248 -1.764,0 -3.011,-1.345 -3.011,-3.047 0,-1.703 1.247,-3.046 2.998,-3.046 0.924,0 1.655,0.396 2.22,1.03 l -1.163,1.081 z"
               id="path5086"
               style="fill:#ffffff" />
            <path
               d="m 240.355,342.193 v -8.995 h 1.68 v 3.538 c 0,0.096 -0.013,0.252 -0.036,0.408 0.384,-0.552 0.972,-0.948 1.774,-0.948 1.211,0 2.123,0.948 2.123,2.52 v 3.479 h -1.69 v -3.382 c 0,-0.815 -0.517,-1.235 -1.08,-1.235 -0.517,0 -1.021,0.407 -1.091,1.247 v 3.37 l -1.68,-0.002 0,0 z"
               id="path5088"
               style="fill:#ffffff" />
            <path
               d="m 252.784,342.193 c -0.721,0 -1.212,-0.384 -1.476,-0.995 -0.336,0.563 -1.043,1.115 -2.087,1.115 -1.295,0 -1.955,-0.84 -1.955,-1.715 0,-0.972 0.792,-1.919 2.423,-1.919 0.492,0 0.972,0.06 1.415,0.144 v -0.191 c 0,-0.575 -0.396,-0.959 -1.043,-0.959 -0.456,0 -0.828,0.204 -1.066,0.588 l -1.176,-0.876 c 0,0 0.672,-1.199 2.327,-1.199 1.631,0 2.626,0.972 2.626,2.375 v 1.763 c 0,0.216 0.145,0.349 0.36,0.349 h 0.24 v 1.522 l -0.588,-0.002 0,0 z m -1.679,-2.327 c -0.312,-0.06 -0.695,-0.119 -0.923,-0.119 -0.684,0 -1.211,0.229 -1.211,0.707 0,0.324 0.24,0.54 0.684,0.54 0.706,0 1.234,-0.491 1.45,-1.128 z"
               id="path5090"
               style="fill:#ffffff" />
            <path
               d="m 256.062,342.193 h -1.679 v -5.853 h 1.679 v 0.396 c 0,0.096 -0.012,0.24 -0.036,0.408 0.385,-0.552 0.973,-0.948 1.775,-0.948 1.211,0 2.123,0.948 2.123,2.52 v 3.479 h -1.691 v -3.382 c 0,-0.815 -0.516,-1.235 -1.08,-1.235 -0.504,0 -1.066,0.407 -1.091,1.188 v 3.427 l 0,0 z"
               id="path5092"
               style="fill:#ffffff" />
            <path
               d="m 265.121,336.437 0.742,-0.852 0.984,0.924 -0.696,0.694 c 0.336,0.408 0.528,0.911 0.528,1.464 0,1.464 -1.2,2.435 -2.675,2.435 -0.348,0 -0.647,-0.035 -0.937,-0.107 -0.516,0.433 -0.563,0.959 0.229,0.959 0.552,0 0.912,-0.228 1.715,-0.228 3.059,0 3.035,4.27 -1.007,4.27 -3.034,0 -3.658,-1.967 -2.626,-3.321 -0.433,-0.672 -0.252,-1.703 0.552,-2.326 -0.396,-0.42 -0.612,-0.996 -0.612,-1.68 0,-1.464 1.211,-2.446 2.688,-2.446 0.395,-0.002 0.779,0.071 1.115,0.214 z m -2.627,6.919 c -0.324,0.612 0.071,1.212 1.511,1.212 2.11,0 2.051,-1.464 0.948,-1.464 -0.648,0 -1.296,0.276 -2.147,0.276 -0.108,0.002 -0.216,-0.011 -0.312,-0.024 z m 1.511,-3.633 c 0.66,0 1.091,-0.372 1.091,-1.056 0,-0.695 -0.432,-1.092 -1.091,-1.092 -0.671,0 -1.104,0.407 -1.104,1.092 10e-4,0.696 0.469,1.056 1.104,1.056 z"
               id="path5094"
               style="fill:#ffffff" />
            <path
               d="m 269.358,339.628 c 0.12,0.972 0.721,1.331 1.379,1.331 0.647,0 1.092,-0.301 1.38,-0.721 l 1.114,0.805 c -0.624,0.84 -1.259,1.271 -2.59,1.271 -1.715,0 -2.975,-1.26 -2.975,-3.059 0,-1.667 1.127,-3.046 2.926,-3.046 1.979,0 2.759,1.414 2.759,3.214 v 0.204 l -3.993,10e-4 0,0 z m 0.048,-1.032 h 2.314 c -0.108,-0.672 -0.624,-1.021 -1.139,-1.021 -0.539,0.001 -1.007,0.337 -1.175,1.021 z"
               id="path5096"
               style="fill:#ffffff" />
            <path
               d="m 278.131,345.191 v -8.851 h 1.679 v 0.588 c 0.456,-0.48 1.055,-0.72 1.703,-0.72 1.619,0 2.542,1.475 2.542,3.033 0,1.583 -0.888,3.07 -2.531,3.07 -0.684,0 -1.318,-0.336 -1.774,-0.888 v 3.766 l -1.619,0.002 0,0 z m 4.258,-5.924 c 0,-0.863 -0.432,-1.559 -1.308,-1.559 -0.779,0 -1.295,0.646 -1.295,1.547 0,0.804 0.526,1.57 1.295,1.57 0.864,0.001 1.308,-0.707 1.308,-1.558 z"
               id="path5098"
               style="fill:#ffffff" />
            <path
               d="m 286.566,339.628 c 0.12,0.972 0.721,1.331 1.379,1.331 0.647,0 1.092,-0.301 1.38,-0.721 l 1.114,0.805 c -0.624,0.84 -1.259,1.271 -2.59,1.271 -1.715,0 -2.975,-1.26 -2.975,-3.059 0,-1.667 1.127,-3.046 2.926,-3.046 1.979,0 2.759,1.414 2.759,3.214 v 0.204 l -3.993,10e-4 0,0 z m 0.048,-1.032 h 2.314 c -0.108,-0.672 -0.624,-1.021 -1.139,-1.021 -0.539,0.001 -1.007,0.337 -1.175,1.021 z"
               id="path5100"
               style="fill:#ffffff" />
            <path
               d="m 293.418,342.193 h -1.68 v -5.853 h 1.68 v 0.396 c 0,0.096 -0.013,0.24 -0.036,0.408 0.384,-0.552 0.972,-0.948 1.774,-0.948 1.212,0 2.123,0.948 2.123,2.52 v 3.479 h -1.69 v -3.382 c 0,-0.815 -0.517,-1.235 -1.08,-1.235 -0.504,0 -1.067,0.407 -1.091,1.188 v 3.427 l 0,0 z"
               id="path5102"
               style="fill:#ffffff" />
            <path
               d="m 303.007,340.227 c 0.407,0.468 1.056,0.659 1.619,0.659 0.358,0 0.624,-0.145 0.624,-0.359 0,-0.3 -0.302,-0.443 -0.792,-0.588 -0.911,-0.264 -2.039,-0.768 -2.039,-1.955 0,-1.127 1.091,-1.763 2.075,-1.763 0.887,0 1.511,0.3 2.039,0.852 l -0.937,1.008 c -0.252,-0.275 -0.721,-0.527 -1.068,-0.527 -0.312,0 -0.539,0.145 -0.539,0.372 0,0.288 0.337,0.432 0.863,0.588 0.889,0.264 2.027,0.814 2.027,1.931 0,1.104 -0.947,1.871 -2.269,1.871 -1.055,0 -1.918,-0.3 -2.555,-0.983 l 0.952,-1.106 z"
               id="path5104"
               style="fill:#ffffff" />
            <path
               d="m 308.994,333.427 c 0.6,0 1.104,0.504 1.104,1.104 0,0.601 -0.504,1.104 -1.104,1.104 -0.601,0 -1.104,-0.504 -1.104,-1.104 0,-0.601 0.505,-1.104 1.104,-1.104 z m -0.875,8.766 v -5.853 h 1.715 v 5.853 h -1.715 z"
               id="path5106"
               style="fill:#ffffff" />
            <path
               d="m 313.817,338.115 c 0.145,-0.168 0.336,-0.322 0.385,-0.358 -0.035,0 -0.301,0.048 -0.517,0.048 h -2.397 v -1.463 h 5.072 v 1.066 l -2.711,2.986 c -0.191,0.216 -0.396,0.372 -0.432,0.396 0.023,0 0.288,-0.06 0.612,-0.06 h 2.529 v 1.463 h -5.253 v -1.056 l 2.712,-3.022 z"
               id="path5108"
               style="fill:#ffffff" />
            <path
               d="m 318.869,339.628 c 0.12,0.972 0.721,1.331 1.38,1.331 0.646,0 1.091,-0.301 1.38,-0.721 l 1.115,0.805 c -0.624,0.84 -1.261,1.271 -2.592,1.271 -1.716,0 -2.975,-1.26 -2.975,-3.059 0,-1.667 1.128,-3.046 2.927,-3.046 1.979,0 2.758,1.414 2.758,3.214 v 0.204 l -3.993,10e-4 0,0 z m 0.049,-1.032 h 2.313 c -0.106,-0.672 -0.623,-1.021 -1.139,-1.021 -0.538,0.001 -1.006,0.337 -1.174,1.021 z"
               id="path5110"
               style="fill:#ffffff" />
            <path
               d="m 327.643,342.193 v -8.995 h 1.68 v 3.73 c 0.455,-0.48 1.056,-0.72 1.703,-0.72 1.619,0 2.542,1.475 2.542,3.033 0,1.583 -0.888,3.07 -2.529,3.07 -0.685,0 -1.32,-0.336 -1.775,-0.888 v 0.768 l -1.621,0.002 0,0 z m 4.257,-2.926 c 0,-0.863 -0.432,-1.559 -1.308,-1.559 -0.779,0 -1.295,0.646 -1.295,1.547 0,0.804 0.526,1.57 1.295,1.57 0.865,0.001 1.308,-0.707 1.308,-1.558 z"
               id="path5112"
               style="fill:#ffffff" />
            <path
               d="m 336.113,341.547 -2.182,-5.205 h 1.762 l 1.128,2.733 c 0.098,0.24 0.182,0.563 0.192,0.601 0,-0.024 0.107,-0.349 0.215,-0.601 l 1.176,-2.733 h 1.775 l -4.042,9.127 h -1.751 l 1.727,-3.922 z"
               id="path5114"
               style="fill:#ffffff" />
          </g>
        </g>
        <path
           d="m 343.303,338.73 c 0,4.245 3.439,7.685 7.684,7.685 h 3.152 c 4.242,0 7.684,-3.438 7.684,-7.685 0,-4.243 -3.44,-7.685 -7.684,-7.685 h -3.152 c -4.245,0.002 -7.684,3.442 -7.684,7.685 0,0 0,-4.243 0,0 z"
           id="path5116"
           style="fill:#ffffff" />
      </g>
    </g>
    <g
       transform="matrix(2.5,0,0,2.5,-226.33789,-491.42853)"
       id="g5269">
      <g
         id="g5271">
        <path
           d="m 372.39,260.923 h -0.589 -6.133 -0.278 -0.589 -0.411 -0.589 -5.133 -1 -0.278 -0.589 -4.998 -1.135 -1.418 -1.582 -4.873 -7.795 -11.61 -0.589 -6.133 -0.278 -0.589 -0.006 -6.127 H 297 244.397 l -2.056,2.546 c -0.19,0.233 -0.476,0.37 -0.778,0.37 h -7.757 c -0.303,0 -0.588,-0.137 -0.778,-0.37 l -2.056,-2.546 h -8.083 c -2.762,0 -5,2.238 -5,5 v 12.166 c 0,2.763 2.238,5 5,5 h 8.088 l 2.051,2.539 c 0.19,0.236 0.477,0.373 0.778,0.373 h 7.757 c 0.304,0 0.588,-0.137 0.778,-0.373 l 2.051,-2.539 H 297 h 12.668 6.127 0.006 0.589 0.278 6.133 0.589 11.61 7.795 4.873 1.582 1.418 1.135 4.998 0.589 0.278 1 5.133 0.589 0.411 0.589 0.278 6.133 0.589 c 2.762,0 5,-2.237 5,-5 v -12.166 c 0,-2.762 -2.239,-5 -5,-5 z"
           id="path5273"
           style="fill:#007d5b" />
        <g
           id="g5275">
          <g
             id="g5277">
            <path
               d="m 231.369,271.819 c -0.301,-0.323 -0.564,-0.552 -1.043,-0.552 -0.78,0 -1.332,0.624 -1.332,1.486 0,0.899 0.552,1.463 1.332,1.463 0.479,0 0.839,-0.264 1.091,-0.622 l 1.259,0.959 c -0.6,0.814 -1.319,1.248 -2.351,1.248 -1.764,0 -3.011,-1.345 -3.011,-3.048 0,-1.702 1.247,-3.046 2.998,-3.046 0.924,0 1.655,0.396 2.22,1.031 l -1.163,1.081 z"
               id="path5279"
               style="fill:#ffffff" />
            <path
               d="m 233.855,275.693 v -8.995 h 1.68 v 3.538 c 0,0.096 -0.013,0.252 -0.036,0.408 0.384,-0.553 0.972,-0.948 1.774,-0.948 1.211,0 2.123,0.948 2.123,2.519 v 3.479 h -1.69 v -3.382 c 0,-0.815 -0.517,-1.235 -1.08,-1.235 -0.517,0 -1.021,0.407 -1.091,1.247 v 3.37 l -1.68,-0.001 0,0 z"
               id="path5281"
               style="fill:#ffffff" />
            <path
               d="m 246.284,275.693 c -0.721,0 -1.212,-0.384 -1.476,-0.995 -0.336,0.563 -1.043,1.115 -2.087,1.115 -1.295,0 -1.955,-0.84 -1.955,-1.715 0,-0.973 0.792,-1.919 2.423,-1.919 0.492,0 0.972,0.06 1.415,0.144 v -0.192 c 0,-0.574 -0.396,-0.959 -1.043,-0.959 -0.456,0 -0.828,0.204 -1.066,0.589 l -1.176,-0.877 c 0,0 0.672,-1.198 2.327,-1.198 1.631,0 2.626,0.972 2.626,2.375 v 1.763 c 0,0.216 0.145,0.348 0.36,0.348 h 0.24 v 1.523 l -0.588,-0.002 0,0 z m -1.679,-2.327 c -0.312,-0.06 -0.695,-0.119 -0.923,-0.119 -0.684,0 -1.211,0.229 -1.211,0.707 0,0.324 0.24,0.54 0.684,0.54 0.706,0 1.234,-0.492 1.45,-1.128 z"
               id="path5283"
               style="fill:#ffffff" />
            <path
               d="m 249.562,275.693 h -1.679 v -5.854 h 1.679 v 0.396 c 0,0.096 -0.012,0.24 -0.036,0.408 0.385,-0.553 0.973,-0.948 1.775,-0.948 1.211,0 2.123,0.948 2.123,2.519 v 3.479 h -1.691 v -3.382 c 0,-0.815 -0.516,-1.235 -1.08,-1.235 -0.504,0 -1.066,0.407 -1.091,1.188 v 3.429 z"
               id="path5285"
               style="fill:#ffffff" />
            <path
               d="m 258.621,269.937 0.742,-0.853 0.984,0.925 -0.696,0.694 c 0.336,0.408 0.528,0.911 0.528,1.463 0,1.464 -1.2,2.436 -2.675,2.436 -0.348,0 -0.647,-0.035 -0.937,-0.107 -0.516,0.433 -0.563,0.959 0.229,0.959 0.552,0 0.912,-0.228 1.715,-0.228 3.059,0 3.035,4.27 -1.007,4.27 -3.034,0 -3.658,-1.967 -2.626,-3.321 -0.433,-0.673 -0.252,-1.703 0.552,-2.326 -0.396,-0.42 -0.612,-0.996 -0.612,-1.681 0,-1.463 1.211,-2.445 2.688,-2.445 0.395,-0.002 0.779,0.07 1.115,0.214 z m -2.627,6.919 c -0.324,0.611 0.071,1.212 1.511,1.212 2.111,0 2.051,-1.464 0.948,-1.464 -0.648,0 -1.295,0.275 -2.147,0.275 -0.108,0.002 -0.216,-0.01 -0.312,-0.023 z m 1.511,-3.633 c 0.66,0 1.091,-0.372 1.091,-1.057 0,-0.694 -0.432,-1.091 -1.091,-1.091 -0.671,0 -1.104,0.407 -1.104,1.091 10e-4,0.697 0.469,1.057 1.104,1.057 z"
               id="path5287"
               style="fill:#ffffff" />
            <path
               d="m 262.858,273.127 c 0.12,0.973 0.721,1.331 1.379,1.331 0.647,0 1.092,-0.3 1.38,-0.72 l 1.114,0.804 c -0.624,0.84 -1.259,1.271 -2.59,1.271 -1.715,0 -2.975,-1.26 -2.975,-3.06 0,-1.667 1.127,-3.046 2.926,-3.046 1.979,0 2.759,1.415 2.759,3.214 v 0.204 l -3.993,0.002 0,0 z m 0.048,-1.031 h 2.314 c -0.108,-0.673 -0.624,-1.021 -1.139,-1.021 -0.539,0.001 -1.007,0.337 -1.175,1.021 z"
               id="path5289"
               style="fill:#ffffff" />
            <path
               d="m 271.631,278.691 v -8.852 h 1.679 v 0.589 c 0.456,-0.48 1.055,-0.721 1.703,-0.721 1.619,0 2.542,1.476 2.542,3.034 0,1.583 -0.888,3.07 -2.531,3.07 -0.684,0 -1.318,-0.336 -1.774,-0.889 v 3.767 l -1.619,0.002 0,0 z m 4.258,-5.924 c 0,-0.863 -0.432,-1.56 -1.308,-1.56 -0.779,0 -1.295,0.647 -1.295,1.547 0,0.805 0.526,1.571 1.295,1.571 0.864,0.001 1.308,-0.707 1.308,-1.558 z"
               id="path5291"
               style="fill:#ffffff" />
            <path
               d="m 280.066,273.127 c 0.12,0.973 0.721,1.331 1.379,1.331 0.647,0 1.092,-0.3 1.38,-0.72 l 1.114,0.804 c -0.624,0.84 -1.259,1.271 -2.59,1.271 -1.715,0 -2.975,-1.26 -2.975,-3.06 0,-1.667 1.127,-3.046 2.926,-3.046 1.979,0 2.759,1.415 2.759,3.214 v 0.204 l -3.993,0.002 0,0 z m 0.048,-1.031 h 2.314 c -0.108,-0.673 -0.624,-1.021 -1.139,-1.021 -0.539,0.001 -1.007,0.337 -1.175,1.021 z"
               id="path5293"
               style="fill:#ffffff" />
            <path
               d="m 286.918,275.693 h -1.68 v -5.854 h 1.68 v 0.396 c 0,0.096 -0.013,0.24 -0.036,0.408 0.384,-0.553 0.972,-0.948 1.774,-0.948 1.212,0 2.123,0.948 2.123,2.519 v 3.479 h -1.69 v -3.382 c 0,-0.815 -0.517,-1.235 -1.08,-1.235 -0.504,0 -1.067,0.407 -1.091,1.188 v 3.429 l 0,0 z"
               id="path5295"
               style="fill:#ffffff" />
            <path
               d="m 296.507,273.727 c 0.408,0.468 1.055,0.659 1.619,0.659 0.358,0 0.624,-0.145 0.624,-0.359 0,-0.3 -0.3,-0.443 -0.792,-0.588 -0.912,-0.265 -2.039,-0.769 -2.039,-1.955 0,-1.127 1.091,-1.763 2.075,-1.763 0.888,0 1.511,0.3 2.04,0.852 l -0.937,1.008 c -0.252,-0.275 -0.72,-0.528 -1.068,-0.528 -0.312,0 -0.54,0.146 -0.54,0.372 0,0.288 0.336,0.433 0.863,0.589 0.889,0.264 2.027,0.814 2.027,1.931 0,1.104 -0.947,1.871 -2.268,1.871 -1.056,0 -1.919,-0.3 -2.555,-0.983 l 0.951,-1.106 z"
               id="path5297"
               style="fill:#ffffff" />
            <path
               d="m 301.559,275.693 v -8.995 h 1.68 v 3.538 c 0,0.096 -0.013,0.252 -0.036,0.408 0.385,-0.553 0.973,-0.948 1.774,-0.948 1.211,0 2.123,0.948 2.123,2.519 v 3.479 h -1.69 v -3.382 c 0,-0.815 -0.517,-1.235 -1.079,-1.235 -0.517,0 -1.021,0.407 -1.092,1.247 v 3.37 l -1.68,-0.001 0,0 z"
               id="path5299"
               style="fill:#ffffff" />
            <path
               d="m 313.988,275.693 c -0.721,0 -1.212,-0.384 -1.476,-0.995 -0.336,0.563 -1.044,1.115 -2.087,1.115 -1.295,0 -1.955,-0.84 -1.955,-1.715 0,-0.973 0.791,-1.919 2.423,-1.919 0.491,0 0.972,0.06 1.415,0.144 v -0.192 c 0,-0.574 -0.396,-0.959 -1.043,-0.959 -0.456,0 -0.828,0.204 -1.068,0.589 l -1.175,-0.877 c 0,0 0.672,-1.198 2.327,-1.198 1.631,0 2.626,0.972 2.626,2.375 v 1.763 c 0,0.216 0.145,0.348 0.36,0.348 h 0.239 v 1.523 l -0.586,-0.002 0,0 z m -1.679,-2.327 c -0.312,-0.06 -0.695,-0.119 -0.924,-0.119 -0.684,0 -1.211,0.229 -1.211,0.707 0,0.324 0.24,0.54 0.684,0.54 0.706,0 1.235,-0.492 1.451,-1.128 z"
               id="path5301"
               style="fill:#ffffff" />
            <path
               d="m 319.545,275.693 v -0.769 c -0.469,0.553 -1.092,0.889 -1.775,0.889 -1.644,0 -2.531,-1.487 -2.531,-3.07 0,-1.56 0.925,-3.034 2.544,-3.034 0.646,0 1.246,0.239 1.702,0.721 v -3.73 h 1.681 v 8.995 l -1.621,-0.002 0,0 z m -0.037,-2.938 c 0,-0.898 -0.516,-1.547 -1.295,-1.547 -0.875,0 -1.308,0.695 -1.308,1.56 0,0.852 0.443,1.56 1.308,1.56 0.767,-0.002 1.295,-0.769 1.295,-1.573 z"
               id="path5303"
               style="fill:#ffffff" />
            <path
               d="m 324.033,273.127 c 0.119,0.973 0.72,1.331 1.379,1.331 0.647,0 1.092,-0.3 1.38,-0.72 l 1.114,0.804 c -0.623,0.84 -1.259,1.271 -2.591,1.271 -1.715,0 -2.975,-1.26 -2.975,-3.06 0,-1.667 1.128,-3.046 2.927,-3.046 1.979,0 2.759,1.415 2.759,3.214 v 0.204 l -3.993,0.002 0,0 z m 0.049,-1.031 h 2.313 c -0.107,-0.673 -0.624,-1.021 -1.14,-1.021 -0.538,0.001 -1.005,0.337 -1.173,1.021 z"
               id="path5305"
               style="fill:#ffffff" />
            <path
               d="m 332.806,275.693 v -8.995 h 1.679 v 3.73 c 0.456,-0.48 1.057,-0.721 1.703,-0.721 1.619,0 2.543,1.476 2.543,3.034 0,1.583 -0.888,3.07 -2.53,3.07 -0.685,0 -1.318,-0.336 -1.774,-0.889 v 0.769 l -1.621,0.002 0,0 z m 4.257,-2.926 c 0,-0.863 -0.433,-1.56 -1.308,-1.56 -0.779,0 -1.295,0.647 -1.295,1.547 0,0.805 0.526,1.571 1.295,1.571 0.864,0.001 1.308,-0.707 1.308,-1.558 z"
               id="path5307"
               style="fill:#ffffff" />
            <path
               d="m 341.277,275.046 -2.184,-5.205 h 1.764 l 1.127,2.734 c 0.097,0.24 0.181,0.563 0.191,0.6 0,-0.023 0.108,-0.348 0.217,-0.6 l 1.175,-2.734 h 1.775 l -4.042,9.128 h -1.751 l 1.728,-3.923 z"
               id="path5309"
               style="fill:#ffffff" />
          </g>
        </g>
        <path
           d="m 351.803,272.23 c 0,4.245 3.439,7.685 7.684,7.685 h 3.152 c 4.242,0 7.684,-3.438 7.684,-7.685 0,-4.243 -3.44,-7.686 -7.684,-7.686 h -3.152 c -4.245,0.002 -7.684,3.443 -7.684,7.686 0,0 0,-4.243 0,0 z"
           id="path5311"
           style="fill:#ffffff" />
      </g>
    </g>
    <g
       transform="matrix(2.5,0,0,2.5,-660.12854,98.52397)"
       id="g5441">
      <path
         d="m 315.001,24.954 v -0.012 h -0.112 -0.588 -3.3 -9.103 l -2.057,2.545 c -0.189,0.236 -0.475,0.373 -0.777,0.373 h -7.758 c -0.303,0 -0.588,-0.137 -0.777,-0.373 l -2.057,-2.545 h -8.082 c -2.762,0 -5,2.238 -5,5 V 42.11 c 0,2.762 2.238,4.998 5,4.998 h 8.088 l 2.051,2.539 c 0.189,0.235 0.476,0.373 0.777,0.373 h 7.758 c 0.304,0 0.588,-0.138 0.777,-0.373 l 2.051,-2.539 h 9.108 3.3 0.588 0.112 v -0.011 c 2.709,-0.063 4.888,-2.266 4.888,-4.987 V 29.942 c 0.001,-2.722 -2.178,-4.926 -4.887,-4.988 z"
         id="path5443"
         style="fill:#007d5b" />
      <g
         id="g5445">
        <g
           id="g5447">
          <g
             id="g5449">
            <path
               d="m 288.5,36.838 c -0.3,-0.322 -0.564,-0.552 -1.043,-0.552 -0.78,0 -1.332,0.624 -1.332,1.487 0,0.898 0.552,1.463 1.332,1.463 0.479,0 0.839,-0.264 1.091,-0.623 l 1.259,0.959 c -0.6,0.815 -1.319,1.248 -2.351,1.248 -1.764,0 -3.011,-1.344 -3.011,-3.047 0,-1.703 1.247,-3.046 2.998,-3.046 0.925,0 1.655,0.396 2.22,1.03 l -1.163,1.081 z"
               id="path5451"
               style="fill:#ffffff" />
            <path
               d="m 290.986,40.712 v -8.995 h 1.703 v 8.995 h -1.703 z"
               id="path5453"
               style="fill:#ffffff" />
            <path
               d="m 295.557,38.146 c 0.12,0.972 0.72,1.331 1.379,1.331 0.648,0 1.091,-0.3 1.379,-0.721 l 1.115,0.805 c -0.624,0.84 -1.259,1.271 -2.59,1.271 -1.715,0 -2.976,-1.26 -2.976,-3.059 0,-1.667 1.128,-3.046 2.927,-3.046 1.979,0 2.759,1.415 2.759,3.214 v 0.204 l -3.993,10e-4 0,0 z m 0.048,-1.032 h 2.314 c -0.108,-0.672 -0.624,-1.02 -1.14,-1.02 -0.539,10e-4 -1.006,0.337 -1.174,1.02 z"
               id="path5455"
               style="fill:#ffffff" />
            <path
               d="m 306.078,40.712 c -0.72,0 -1.211,-0.384 -1.476,-0.995 -0.336,0.563 -1.043,1.115 -2.087,1.115 -1.296,0 -1.955,-0.84 -1.955,-1.715 0,-0.972 0.792,-1.919 2.423,-1.919 0.492,0 0.972,0.06 1.415,0.144 V 37.15 c 0,-0.575 -0.396,-0.959 -1.044,-0.959 -0.455,0 -0.827,0.204 -1.065,0.588 l -1.177,-0.876 c 0,0 0.673,-1.199 2.326,-1.199 1.632,0 2.627,0.973 2.627,2.375 v 1.763 c 0,0.217 0.146,0.349 0.359,0.349 h 0.24 v 1.522 l -0.586,-10e-4 0,0 z m -1.679,-2.327 c -0.312,-0.061 -0.694,-0.119 -0.923,-0.119 -0.684,0 -1.212,0.228 -1.212,0.707 0,0.323 0.239,0.54 0.684,0.54 0.708,0 1.236,-0.492 1.451,-1.128 z"
               id="path5457"
               style="fill:#ffffff" />
            <path
               d="m 309.356,40.712 h -1.679 v -5.853 h 1.679 v 0.396 c 0,0.133 -0.023,0.349 -0.06,0.576 0.336,-0.636 0.863,-1.116 1.631,-1.116 v 1.645 c -0.876,0 -1.571,0.504 -1.571,1.463 v 2.889 z"
               id="path5459"
               style="fill:#ffffff" />
          </g>
        </g>
      </g>
    </g>
    <g
       transform="matrix(2.5,0,0,2.5,-465.11071,-145.76175)"
       id="g5682">
      <path
         d="m 326.001,87.12 v -0.011 h -0.112 -0.588 -3.3 -18 -0.112 -0.588 -3.3 -3.167 -5.936 l -2.057,2.545 c -0.189,0.235 -0.475,0.372 -0.777,0.372 h -7.758 c -0.303,0 -0.588,-0.137 -0.777,-0.372 l -2.057,-2.545 h -8.082 c -2.762,0 -5,2.238 -5,5 v 12.167 c 0,2.762 2.238,4.999 5,4.999 h 8.088 l 2.051,2.539 c 0.189,0.235 0.476,0.373 0.777,0.373 h 7.758 c 0.304,0 0.588,-0.138 0.777,-0.373 l 2.051,-2.539 h 5.94 3.168 3.3 0.588 0.112 18 3.3 0.588 0.112 v -0.011 c 2.709,-0.063 4.888,-2.267 4.888,-4.988 V 92.109 c 0.001,-2.723 -2.178,-4.926 -4.887,-4.989 z"
         id="path5684"
         style="fill:#007d5b" />
      <g
         id="g5686">
        <g
           id="g5688">
          <g
             id="g5690">
            <path
               d="m 270.652,104.877 v -8.851 h 1.68 v 0.588 c 0.456,-0.48 1.055,-0.72 1.703,-0.72 1.618,0 2.542,1.475 2.542,3.034 0,1.583 -0.889,3.069 -2.531,3.069 -0.685,0 -1.319,-0.336 -1.775,-0.888 v 3.766 l -1.619,0.002 0,0 z m 4.258,-5.925 c 0,-0.863 -0.433,-1.559 -1.309,-1.559 -0.779,0 -1.295,0.646 -1.295,1.547 0,0.804 0.527,1.571 1.295,1.571 0.865,0.001 1.309,-0.707 1.309,-1.559 z"
               id="path5692"
               style="fill:#ffffff" />
            <path
               d="m 279.087,99.313 c 0.12,0.972 0.72,1.331 1.379,1.331 0.647,0 1.091,-0.3 1.379,-0.721 l 1.115,0.805 c -0.624,0.84 -1.259,1.271 -2.59,1.271 -1.716,0 -2.976,-1.26 -2.976,-3.059 0,-1.667 1.127,-3.046 2.926,-3.046 1.979,0 2.76,1.415 2.76,3.214 v 0.204 l -3.993,0.001 0,0 z m 0.048,-1.032 h 2.314 c -0.108,-0.672 -0.624,-1.02 -1.14,-1.02 -0.538,0.001 -1.006,0.337 -1.174,1.02 z"
               id="path5694"
               style="fill:#ffffff" />
            <path
               d="m 285.939,101.879 h -1.679 v -5.853 h 1.679 v 0.396 c 0,0.097 -0.012,0.24 -0.036,0.408 0.385,-0.552 0.973,-0.948 1.775,-0.948 1.211,0 2.123,0.948 2.123,2.52 v 3.479 h -1.691 v -3.382 c 0,-0.814 -0.516,-1.234 -1.08,-1.234 -0.504,0 -1.066,0.406 -1.091,1.188 v 3.426 l 0,0 z"
               id="path5696"
               style="fill:#ffffff" />
            <path
               d="m 298.897,101.879 v -0.768 c -0.468,0.552 -1.092,0.888 -1.774,0.888 -1.644,0 -2.53,-1.486 -2.53,-3.069 0,-1.561 0.923,-3.034 2.542,-3.034 0.646,0 1.247,0.238 1.703,0.72 v -3.729 h 1.679 v 8.994 l -1.62,-0.002 0,0 z m -0.036,-2.939 c 0,-0.899 -0.516,-1.547 -1.295,-1.547 -0.875,0 -1.307,0.694 -1.307,1.559 0,0.853 0.444,1.561 1.307,1.561 0.767,-0.001 1.295,-0.769 1.295,-1.573 z"
               id="path5698"
               style="fill:#ffffff" />
            <path
               d="m 301.695,98.94 c 0,-1.739 1.345,-3.046 3.06,-3.046 1.715,0 3.059,1.307 3.059,3.046 0,1.739 -1.344,3.047 -3.059,3.047 -1.715,0 -3.06,-1.307 -3.06,-3.047 z m 4.474,0 c 0,-0.888 -0.563,-1.547 -1.415,-1.547 -0.863,0 -1.428,0.659 -1.428,1.547 0,0.898 0.588,1.56 1.428,1.56 0.851,0 1.415,-0.66 1.415,-1.56 z"
               id="path5700"
               style="fill:#ffffff" />
            <path
               d="m 318.189,96.026 -2.014,5.853 h -1.907 l -0.876,-2.733 c -0.06,-0.168 -0.119,-0.479 -0.132,-0.54 l -0.145,0.54 -0.899,2.733 h -1.906 c -0.66,-1.942 -1.319,-3.896 -1.967,-5.853 h 1.811 l 0.912,3.226 c 0.084,0.324 0.168,0.708 0.191,0.78 0.012,-0.061 0.096,-0.432 0.204,-0.78 l 0.946,-3.226 h 1.703 l 0.925,3.226 c 0.096,0.35 0.167,0.744 0.18,0.792 0.012,-0.048 0.107,-0.432 0.216,-0.792 l 0.937,-3.226 h 1.821 z"
               id="path5702"
               style="fill:#ffffff" />
            <path
               d="m 320.762,101.879 h -1.679 v -5.853 h 1.679 v 0.396 c 0,0.097 -0.012,0.24 -0.035,0.408 0.383,-0.552 0.971,-0.948 1.774,-0.948 1.212,0 2.123,0.948 2.123,2.52 v 3.479 h -1.69 v -3.382 c 0,-0.814 -0.517,-1.234 -1.08,-1.234 -0.504,0 -1.066,0.406 -1.092,1.188 v 3.426 l 0,0 z"
               id="path5704"
               style="fill:#ffffff" />
          </g>
        </g>
      </g>
    </g>
    <g
       transform="matrix(2.5,0,0,2.5,-648.87854,-223.03425)"
       id="g5824">
      <path
         d="m 319.501,118.03 v -0.012 h -0.112 -0.588 -3.3 -0.112 -0.588 -0.3 -0.112 -0.588 -2.3 -1 -0.112 -0.556 -0.032 -3.3 -0.668 -2.166 -6.269 l -2.057,2.545 c -0.189,0.234 -0.475,0.372 -0.777,0.372 h -7.758 c -0.303,0 -0.588,-0.138 -0.777,-0.372 l -2.057,-2.545 h -8.082 c -2.762,0 -5,2.237 -5,5 v 12.167 c 0,2.762 2.238,4.999 5,4.999 h 8.088 l 2.051,2.539 c 0.189,0.235 0.476,0.373 0.777,0.373 h 7.758 c 0.304,0 0.588,-0.138 0.777,-0.373 l 2.051,-2.539 h 6.273 2.166 0.668 3.3 0.032 0.556 0.112 1 2.3 0.588 0.112 0.3 0.588 0.112 3.3 0.588 0.112 v -0.013 c 2.709,-0.061 4.888,-2.264 4.888,-4.986 v -12.167 c 0.002,-2.722 -2.177,-4.927 -4.886,-4.988 z"
         id="path5826"
         style="fill:#007d5b" />
      <g
         id="g5828">
        <g
           id="g5830">
          <g
             id="g5832">
            <path
               d="m 279.196,135.788 v -8.851 h 1.68 v 0.588 c 0.456,-0.48 1.055,-0.72 1.703,-0.72 1.618,0 2.542,1.475 2.542,3.033 0,1.583 -0.889,3.07 -2.531,3.07 -0.685,0 -1.319,-0.336 -1.775,-0.888 v 3.766 l -1.619,0.002 0,0 z m 4.258,-5.925 c 0,-0.863 -0.433,-1.559 -1.309,-1.559 -0.778,0 -1.295,0.646 -1.295,1.547 0,0.804 0.527,1.57 1.295,1.57 0.865,0.002 1.309,-0.706 1.309,-1.558 z"
               id="path5834"
               style="fill:#ffffff" />
            <path
               d="m 287.631,130.224 c 0.12,0.972 0.72,1.331 1.379,1.331 0.648,0 1.091,-0.301 1.379,-0.721 l 1.115,0.805 c -0.624,0.84 -1.259,1.271 -2.59,1.271 -1.715,0 -2.976,-1.26 -2.976,-3.059 0,-1.667 1.127,-3.046 2.926,-3.046 1.979,0 2.76,1.415 2.76,3.214 v 0.204 l -3.993,10e-4 0,0 z m 0.049,-1.032 h 2.314 c -0.108,-0.672 -0.624,-1.021 -1.14,-1.021 -0.539,0.002 -1.006,0.338 -1.174,1.021 z"
               id="path5836"
               style="fill:#ffffff" />
            <path
               d="m 294.483,132.79 h -1.679 v -5.853 h 1.679 v 0.396 c 0,0.097 -0.012,0.24 -0.036,0.408 0.385,-0.552 0.973,-0.948 1.775,-0.948 1.211,0 2.123,0.948 2.123,2.52 v 3.479 h -1.691 v -3.382 c 0,-0.814 -0.516,-1.235 -1.08,-1.235 -0.504,0 -1.066,0.407 -1.091,1.188 v 3.427 l 0,0 z"
               id="path5838"
               style="fill:#ffffff" />
            <path
               d="m 308.977,132.79 h -1.679 v -0.396 c 0,-0.098 0.012,-0.24 0.036,-0.408 -0.384,0.552 -0.984,0.947 -1.775,0.947 -1.211,0 -2.123,-0.947 -2.123,-2.52 v -3.478 h 1.691 v 3.382 c 0,0.814 0.516,1.235 1.08,1.235 0.503,0 1.055,-0.396 1.091,-1.188 v -3.43 h 1.679 v 5.856 l 0,0 z"
               id="path5840"
               style="fill:#ffffff" />
            <path
               d="m 310.516,135.788 v -8.851 h 1.68 v 0.588 c 0.455,-0.48 1.056,-0.72 1.703,-0.72 1.619,0 2.543,1.475 2.543,3.033 0,1.583 -0.889,3.07 -2.53,3.07 -0.685,0 -1.319,-0.336 -1.775,-0.888 v 3.766 l -1.621,0.002 0,0 z m 4.257,-5.925 c 0,-0.863 -0.432,-1.559 -1.307,-1.559 -0.779,0 -1.295,0.646 -1.295,1.547 0,0.804 0.526,1.57 1.295,1.57 0.864,0.002 1.307,-0.706 1.307,-1.558 z"
               id="path5842"
               style="fill:#ffffff" />
          </g>
        </g>
      </g>
    </g>
    <g
       transform="matrix(2.5,0,0,2.5,-256.3379,-107.38708)"
       id="g5980">
      <path
         d="m 384.39,178.399 h -0.589 -6.133 -0.278 -0.589 -0.411 -0.589 -5.133 -1 -0.278 -0.589 -6.133 -4.668 -0.61 -0.589 -1.456 -5.345 -0.61 -0.589 -6.133 -0.278 -0.589 -6.133 -4.873 -7.795 -11.61 -0.589 -6.133 -0.278 -0.589 -0.006 -6.127 H 285 232.397 l -2.056,2.545 c -0.19,0.234 -0.476,0.371 -0.778,0.371 h -7.757 c -0.303,0 -0.588,-0.137 -0.778,-0.371 l -2.056,-2.545 h -8.083 c -2.762,0 -5,2.238 -5,5 v 12.166 c 0,2.762 2.238,5 5,5 h 8.088 l 2.051,2.539 c 0.19,0.235 0.477,0.373 0.778,0.373 h 7.757 c 0.304,0 0.588,-0.138 0.778,-0.373 l 2.051,-2.539 H 285 h 12.668 6.127 0.006 0.589 0.278 6.133 0.589 11.61 7.795 4.873 6.133 0.589 0.278 6.133 0.589 0.61 5.345 1.456 0.589 0.61 4.668 6.133 0.589 0.278 1 5.133 0.589 0.411 0.589 0.278 6.133 0.589 c 2.762,0 5,-2.238 5,-5 v -12.166 c 0,-2.761 -2.239,-5 -5,-5 z"
         id="path5982"
         style="fill:#007d5b" />
      <g
         id="g5984">
        <g
           id="g5986">
          <g
             id="g5988">
            <path
               d="m 216.143,191.203 c 0.408,0.468 1.055,0.659 1.619,0.659 0.36,0 0.624,-0.144 0.624,-0.359 0,-0.3 -0.3,-0.442 -0.792,-0.588 -0.912,-0.264 -2.039,-0.768 -2.039,-1.955 0,-1.127 1.091,-1.763 2.075,-1.763 0.888,0 1.511,0.3 2.039,0.852 l -0.937,1.009 c -0.252,-0.276 -0.72,-0.528 -1.066,-0.528 -0.313,0 -0.54,0.145 -0.54,0.372 0,0.288 0.335,0.432 0.862,0.588 0.889,0.264 2.027,0.815 2.027,1.931 0,1.104 -0.947,1.871 -2.267,1.871 -1.057,0 -1.919,-0.3 -2.556,-0.982 l 0.951,-1.107 z"
               id="path5990"
               style="fill:#ffffff" />
            <path
               d="m 222.526,190.604 c 0.12,0.972 0.721,1.331 1.379,1.331 0.647,0 1.092,-0.3 1.38,-0.721 l 1.114,0.805 c -0.624,0.84 -1.259,1.271 -2.59,1.271 -1.715,0 -2.975,-1.26 -2.975,-3.059 0,-1.667 1.127,-3.046 2.926,-3.046 1.979,0 2.759,1.415 2.759,3.214 v 0.204 l -3.993,0.001 0,0 z m 0.048,-1.032 h 2.313 c -0.108,-0.672 -0.624,-1.02 -1.139,-1.02 -0.538,0.001 -1.006,0.337 -1.174,1.02 z"
               id="path5992"
               style="fill:#ffffff" />
            <path
               d="m 228.154,187.317 v -2.087 h 1.68 v 2.087 h 0.828 v 1.559 h -0.828 v 4.294 h -1.68 v -4.294 h -0.814 v -1.559 h 0.814 z"
               id="path5994"
               style="fill:#ffffff" />
            <path
               d="m 235.438,196.168 v -8.851 h 1.68 v 0.588 c 0.455,-0.48 1.055,-0.72 1.702,-0.72 1.619,0 2.542,1.475 2.542,3.034 0,1.583 -0.888,3.069 -2.53,3.069 -0.685,0 -1.319,-0.336 -1.775,-0.888 v 3.766 l -1.619,0.002 0,0 z m 4.258,-5.925 c 0,-0.863 -0.432,-1.559 -1.308,-1.559 -0.779,0 -1.295,0.646 -1.295,1.547 0,0.804 0.527,1.571 1.295,1.571 0.864,0.001 1.308,-0.707 1.308,-1.559 z"
               id="path5996"
               style="fill:#ffffff" />
            <path
               d="m 243.874,190.604 c 0.12,0.972 0.72,1.331 1.379,1.331 0.646,0 1.091,-0.3 1.379,-0.721 l 1.115,0.805 c -0.624,0.84 -1.26,1.271 -2.59,1.271 -1.716,0 -2.976,-1.26 -2.976,-3.059 0,-1.667 1.127,-3.046 2.926,-3.046 1.979,0 2.76,1.415 2.76,3.214 v 0.204 l -3.993,0.001 0,0 z m 0.048,-1.032 h 2.313 c -0.107,-0.672 -0.624,-1.02 -1.139,-1.02 -0.538,0.001 -1.006,0.337 -1.174,1.02 z"
               id="path5998"
               style="fill:#ffffff" />
            <path
               d="m 250.726,193.17 h -1.679 v -5.853 h 1.679 v 0.396 c 0,0.097 -0.012,0.24 -0.036,0.408 0.385,-0.552 0.973,-0.948 1.775,-0.948 1.211,0 2.123,0.948 2.123,2.52 v 3.479 h -1.691 v -3.382 c 0,-0.814 -0.516,-1.234 -1.08,-1.234 -0.504,0 -1.066,0.406 -1.091,1.188 v 3.426 z"
               id="path6000"
               style="fill:#ffffff" />
            <path
               d="m 263.541,189.296 c -0.3,-0.322 -0.564,-0.552 -1.043,-0.552 -0.78,0 -1.331,0.624 -1.331,1.487 0,0.898 0.551,1.463 1.331,1.463 0.479,0 0.839,-0.264 1.091,-0.623 l 1.259,0.959 c -0.6,0.815 -1.319,1.248 -2.351,1.248 -1.764,0 -3.011,-1.344 -3.011,-3.047 0,-1.703 1.247,-3.046 2.998,-3.046 0.925,0 1.655,0.396 2.22,1.03 l -1.163,1.081 z"
               id="path6002"
               style="fill:#ffffff" />
            <path
               d="m 265.667,190.231 c 0,-1.739 1.343,-3.046 3.059,-3.046 1.715,0 3.059,1.307 3.059,3.046 0,1.739 -1.344,3.047 -3.059,3.047 -1.716,0 -3.059,-1.307 -3.059,-3.047 z m 4.473,0 c 0,-0.888 -0.563,-1.547 -1.415,-1.547 -0.864,0 -1.427,0.659 -1.427,1.547 0,0.898 0.587,1.56 1.427,1.56 0.851,0 1.415,-0.66 1.415,-1.56 z"
               id="path6004"
               style="fill:#ffffff" />
            <path
               d="m 272.962,193.17 v -8.995 h 1.703 v 8.995 h -1.703 z"
               id="path6006"
               style="fill:#ffffff" />
            <path
               d="m 275.842,190.231 c 0,-1.739 1.343,-3.046 3.059,-3.046 1.716,0 3.059,1.307 3.059,3.046 0,1.739 -1.343,3.047 -3.059,3.047 -1.715,0 -3.059,-1.307 -3.059,-3.047 z m 4.474,0 c 0,-0.888 -0.563,-1.547 -1.415,-1.547 -0.863,0 -1.427,0.659 -1.427,1.547 0,0.898 0.587,1.56 1.427,1.56 0.851,0 1.415,-0.66 1.415,-1.56 z"
               id="path6008"
               style="fill:#ffffff" />
            <path
               d="m 288.631,193.17 h -1.679 v -0.396 c 0,-0.097 0.012,-0.24 0.035,-0.408 -0.384,0.552 -0.983,0.947 -1.774,0.947 -1.211,0 -2.123,-0.947 -2.123,-2.52 v -3.478 h 1.691 v 3.382 c 0,0.815 0.516,1.235 1.079,1.235 0.504,0 1.056,-0.396 1.092,-1.188 v -3.43 h 1.679 v 5.856 l 0,0 z"
               id="path6010"
               style="fill:#ffffff" />
            <path
               d="m 291.849,193.17 h -1.679 v -5.853 h 1.679 v 0.396 c 0,0.133 -0.023,0.349 -0.06,0.576 0.336,-0.636 0.862,-1.116 1.631,-1.116 v 1.645 c -0.875,0 -1.571,0.504 -1.571,1.463 v 2.889 z"
               id="path6012"
               style="fill:#ffffff" />
            <path
               d="m 298.677,187.317 v -2.087 h 1.679 v 2.087 h 0.827 v 1.559 h -0.827 v 4.294 h -1.679 v -4.294 h -0.815 v -1.559 h 0.815 z"
               id="path6014"
               style="fill:#ffffff" />
            <path
               d="m 302.002,190.231 c 0,-1.739 1.343,-3.046 3.059,-3.046 1.715,0 3.059,1.307 3.059,3.046 0,1.739 -1.344,3.047 -3.059,3.047 -1.716,0 -3.059,-1.307 -3.059,-3.047 z m 4.473,0 c 0,-0.888 -0.563,-1.547 -1.414,-1.547 -0.864,0 -1.428,0.659 -1.428,1.547 0,0.898 0.588,1.56 1.428,1.56 0.85,0 1.414,-0.66 1.414,-1.56 z"
               id="path6016"
               style="fill:#ffffff" />
          </g>
        </g>
        <rect
           width="64.862"
           height="14.779"
           x="315.63101"
           y="182.298"
           id="rect6018"
           style="fill:#ffffff" />
      </g>
    </g>
    <g
       transform="matrix(2.5,0,0,2.5,-187.58789,-662.79675)"
       id="g6164">
      <g
         id="g6166">
        <path
           d="m 356.89,293.923 h -0.589 -6.133 -0.278 -0.589 -0.411 -0.589 -5.133 -1 -0.278 -0.589 -4.998 -0.553 -0.582 -1.418 -1.582 -0.278 -0.589 -0.006 -4 -2.127 -5.668 -1.25 -5.75 -52.603 l -2.056,2.546 c -0.19,0.233 -0.476,0.37 -0.778,0.37 h -7.757 c -0.303,0 -0.588,-0.137 -0.778,-0.37 l -2.056,-2.546 h -8.083 c -2.762,0 -5,2.238 -5,5.001 v 12.166 c 0,2.762 2.238,5 5,5 h 8.088 l 2.051,2.539 c 0.19,0.235 0.477,0.373 0.778,0.373 h 7.757 c 0.304,0 0.588,-0.138 0.778,-0.373 l 2.051,-2.539 h 52.608 5.75 1.25 5.668 2.127 4 0.006 0.589 0.278 1.582 1.418 0.582 0.553 4.998 0.589 0.278 1 5.133 0.589 0.411 0.589 0.278 6.133 0.589 c 2.762,0 5,-2.238 5,-5 v -12.166 c 0,-2.763 -2.239,-5.001 -5,-5.001 z"
           id="path6168"
           style="fill:#007d5b" />
        <g
           id="g6170">
          <g
             id="g6172">
            <path
               d="m 243.643,306.727 c 0.408,0.468 1.055,0.659 1.619,0.659 0.36,0 0.624,-0.145 0.624,-0.359 0,-0.3 -0.3,-0.443 -0.792,-0.588 -0.912,-0.264 -2.039,-0.768 -2.039,-1.955 0,-1.127 1.091,-1.763 2.075,-1.763 0.888,0 1.511,0.3 2.039,0.852 l -0.937,1.008 c -0.252,-0.275 -0.72,-0.527 -1.066,-0.527 -0.313,0 -0.54,0.145 -0.54,0.372 0,0.288 0.335,0.432 0.862,0.588 0.889,0.264 2.027,0.814 2.027,1.931 0,1.104 -0.947,1.871 -2.267,1.871 -1.057,0 -1.919,-0.3 -2.556,-0.983 l 0.951,-1.106 z"
               id="path6174"
               style="fill:#ffffff" />
            <path
               d="m 250.026,306.128 c 0.12,0.972 0.721,1.331 1.379,1.331 0.647,0 1.092,-0.301 1.38,-0.721 l 1.114,0.805 c -0.624,0.84 -1.259,1.271 -2.59,1.271 -1.715,0 -2.975,-1.26 -2.975,-3.059 0,-1.667 1.127,-3.046 2.926,-3.046 1.979,0 2.759,1.414 2.759,3.214 v 0.204 l -3.993,10e-4 0,0 z m 0.048,-1.032 h 2.313 c -0.108,-0.672 -0.624,-1.021 -1.139,-1.021 -0.538,0.001 -1.006,0.337 -1.174,1.021 z"
               id="path6176"
               style="fill:#ffffff" />
            <path
               d="m 255.654,302.842 v -2.087 h 1.68 v 2.087 h 0.828 v 1.559 h -0.828 v 4.294 h -1.68 V 304.4 h -0.814 v -1.559 h 0.814 z"
               id="path6178"
               style="fill:#ffffff" />
            <path
               d="m 262.938,311.691 v -8.851 h 1.68 v 0.588 c 0.455,-0.48 1.055,-0.72 1.702,-0.72 1.619,0 2.542,1.475 2.542,3.033 0,1.583 -0.888,3.07 -2.53,3.07 -0.685,0 -1.319,-0.336 -1.775,-0.888 v 3.766 l -1.619,0.002 0,0 z m 4.258,-5.924 c 0,-0.863 -0.432,-1.559 -1.308,-1.559 -0.779,0 -1.295,0.646 -1.295,1.547 0,0.804 0.527,1.57 1.295,1.57 0.864,0.001 1.308,-0.707 1.308,-1.558 z"
               id="path6180"
               style="fill:#ffffff" />
            <path
               d="m 271.374,306.128 c 0.12,0.972 0.72,1.331 1.379,1.331 0.646,0 1.091,-0.301 1.379,-0.721 l 1.115,0.805 c -0.624,0.84 -1.26,1.271 -2.591,1.271 -1.715,0 -2.975,-1.26 -2.975,-3.059 0,-1.667 1.127,-3.046 2.926,-3.046 1.979,0 2.76,1.414 2.76,3.214 v 0.204 l -3.993,10e-4 0,0 z m 0.048,-1.032 h 2.313 c -0.107,-0.672 -0.624,-1.021 -1.139,-1.021 -0.538,0.001 -1.006,0.337 -1.174,1.021 z"
               id="path6182"
               style="fill:#ffffff" />
            <path
               d="m 278.226,308.693 h -1.679 v -5.853 h 1.679 v 0.396 c 0,0.096 -0.012,0.24 -0.036,0.408 0.385,-0.552 0.973,-0.948 1.775,-0.948 1.211,0 2.123,0.948 2.123,2.52 v 3.479 h -1.691 v -3.382 c 0,-0.815 -0.516,-1.235 -1.08,-1.235 -0.504,0 -1.066,0.407 -1.091,1.188 v 3.427 l 0,0 z"
               id="path6184"
               style="fill:#ffffff" />
            <path
               d="m 287.814,306.727 c 0.408,0.468 1.056,0.659 1.619,0.659 0.359,0 0.624,-0.145 0.624,-0.359 0,-0.3 -0.3,-0.443 -0.792,-0.588 -0.912,-0.264 -2.039,-0.768 -2.039,-1.955 0,-1.127 1.091,-1.763 2.075,-1.763 0.888,0 1.511,0.3 2.039,0.852 l -0.937,1.008 c -0.252,-0.275 -0.72,-0.527 -1.066,-0.527 -0.313,0 -0.54,0.145 -0.54,0.372 0,0.288 0.335,0.432 0.863,0.588 0.888,0.264 2.026,0.814 2.026,1.931 0,1.104 -0.946,1.871 -2.267,1.871 -1.057,0 -1.919,-0.3 -2.555,-0.983 l 0.95,-1.106 z"
               id="path6186"
               style="fill:#ffffff" />
            <path
               d="m 292.866,308.693 v -8.995 h 1.679 v 3.538 c 0,0.096 -0.012,0.252 -0.036,0.408 0.384,-0.552 0.972,-0.948 1.775,-0.948 1.211,0 2.122,0.948 2.122,2.52 v 3.479 h -1.69 v -3.382 c 0,-0.815 -0.517,-1.235 -1.08,-1.235 -0.516,0 -1.021,0.407 -1.091,1.247 v 3.37 l -1.679,-0.002 0,0 z"
               id="path6188"
               style="fill:#ffffff" />
            <path
               d="m 305.295,308.693 c -0.719,0 -1.211,-0.384 -1.476,-0.995 -0.336,0.563 -1.043,1.115 -2.087,1.115 -1.296,0 -1.955,-0.84 -1.955,-1.715 0,-0.972 0.792,-1.919 2.424,-1.919 0.491,0 0.971,0.06 1.415,0.144 v -0.191 c 0,-0.575 -0.396,-0.959 -1.045,-0.959 -0.454,0 -0.826,0.204 -1.065,0.588 l -1.176,-0.876 c 0,0 0.672,-1.199 2.325,-1.199 1.633,0 2.628,0.972 2.628,2.375 v 1.763 c 0,0.216 0.145,0.349 0.358,0.349 h 0.24 v 1.522 l -0.586,-0.002 0,0 z m -1.679,-2.327 c -0.313,-0.06 -0.695,-0.119 -0.924,-0.119 -0.684,0 -1.212,0.229 -1.212,0.707 0,0.324 0.239,0.54 0.685,0.54 0.708,0 1.235,-0.491 1.451,-1.128 z"
               id="path6190"
               style="fill:#ffffff" />
            <path
               d="m 310.852,308.693 v -0.768 c -0.467,0.552 -1.092,0.888 -1.774,0.888 -1.644,0 -2.529,-1.487 -2.529,-3.07 0,-1.56 0.923,-3.034 2.542,-3.034 0.646,0 1.247,0.239 1.703,0.721 v -3.73 h 1.679 v 8.995 l -1.621,-0.002 0,0 z m -0.036,-2.937 c 0,-0.899 -0.516,-1.547 -1.296,-1.547 -0.876,0 -1.308,0.694 -1.308,1.559 0,0.852 0.443,1.56 1.308,1.56 0.768,-0.002 1.296,-0.769 1.296,-1.572 z"
               id="path6192"
               style="fill:#ffffff" />
            <path
               d="m 315.341,306.128 c 0.12,0.972 0.72,1.331 1.38,1.331 0.647,0 1.091,-0.301 1.379,-0.721 l 1.115,0.805 c -0.623,0.84 -1.26,1.271 -2.59,1.271 -1.716,0 -2.976,-1.26 -2.976,-3.059 0,-1.667 1.127,-3.046 2.927,-3.046 1.979,0 2.759,1.414 2.759,3.214 v 0.204 l -3.994,10e-4 0,0 z m 0.048,-1.032 h 2.314 c -0.107,-0.672 -0.623,-1.021 -1.14,-1.021 -0.539,0.001 -1.006,0.337 -1.174,1.021 z"
               id="path6194"
               style="fill:#ffffff" />
            <path
               d="m 324.568,302.842 v -2.087 h 1.681 v 2.087 h 0.828 v 1.559 h -0.828 v 4.294 h -1.681 V 304.4 h -0.813 v -1.559 h 0.813 z"
               id="path6196"
               style="fill:#ffffff" />
            <path
               d="m 327.893,305.756 c 0,-1.739 1.344,-3.046 3.06,-3.046 1.715,0 3.059,1.307 3.059,3.046 0,1.738 -1.344,3.047 -3.059,3.047 -1.716,-10e-4 -3.06,-1.309 -3.06,-3.047 z m 4.474,0 c 0,-0.889 -0.564,-1.547 -1.416,-1.547 -0.863,0 -1.428,0.658 -1.428,1.547 0,0.898 0.587,1.56 1.428,1.56 0.852,-0.002 1.416,-0.662 1.416,-1.56 z"
               id="path6198"
               style="fill:#ffffff" />
          </g>
        </g>
        <path
           d="m 337.303,305.23 c 0,4.245 3.439,7.685 7.684,7.685 h 3.152 c 4.242,0 7.684,-3.438 7.684,-7.685 0,-4.243 -3.44,-7.686 -7.684,-7.686 h -3.152 c -4.245,0.002 -7.684,3.443 -7.684,7.686 0,0 0,-4.243 0,0 z"
           id="path6200"
           style="fill:#ffffff" />
      </g>
    </g>
    <g
       transform="matrix(2.5,0,0,2.5,-571.37604,-659.4403)"
       id="g6343">
      <g
         id="g6345">
        <path
           d="m 350.39,363.674 h -0.589 -6.133 -0.278 -0.589 -0.411 -0.589 -4.301 -0.832 -1 -0.278 -0.589 -1.006 -2.127 -0.865 H 326 324.75 319 266.397 l -2.056,2.545 c -0.19,0.233 -0.476,0.371 -0.778,0.371 h -7.757 c -0.303,0 -0.588,-0.138 -0.778,-0.371 l -2.056,-2.545 h -8.083 c -2.762,0 -5,2.237 -5,5 v 12.166 c 0,2.762 2.238,5 5,5 h 8.088 l 2.051,2.539 c 0.19,0.235 0.477,0.373 0.778,0.373 h 7.757 c 0.304,0 0.588,-0.138 0.778,-0.373 l 2.051,-2.539 H 319 h 5.75 1.25 4.803 0.865 2.127 1.006 0.589 0.278 1 0.832 4.301 0.589 0.411 0.589 0.278 6.133 0.589 c 2.762,0 5,-2.238 5,-5 v -12.166 c 0,-2.763 -2.239,-5 -5,-5 z"
           id="path6347"
           style="fill:#007d5b" />
        <g
           id="g6349">
          <g
             id="g6351">
            <path
               d="m 250.143,376.477 c 0.408,0.468 1.055,0.659 1.619,0.659 0.36,0 0.624,-0.145 0.624,-0.359 0,-0.3 -0.3,-0.443 -0.792,-0.588 -0.912,-0.264 -2.039,-0.768 -2.039,-1.955 0,-1.127 1.091,-1.763 2.075,-1.763 0.888,0 1.511,0.3 2.039,0.852 l -0.937,1.008 c -0.252,-0.275 -0.72,-0.527 -1.066,-0.527 -0.313,0 -0.54,0.145 -0.54,0.372 0,0.288 0.335,0.432 0.862,0.588 0.889,0.264 2.027,0.814 2.027,1.931 0,1.104 -0.947,1.871 -2.267,1.871 -1.057,0 -1.919,-0.3 -2.556,-0.983 l 0.951,-1.106 z"
               id="path6353"
               style="fill:#ffffff" />
            <path
               d="m 256.526,375.878 c 0.12,0.972 0.721,1.331 1.379,1.331 0.647,0 1.092,-0.301 1.38,-0.721 l 1.114,0.805 c -0.624,0.84 -1.259,1.271 -2.59,1.271 -1.715,0 -2.975,-1.26 -2.975,-3.059 0,-1.667 1.127,-3.046 2.926,-3.046 1.979,0 2.759,1.414 2.759,3.214 v 0.204 l -3.993,10e-4 0,0 z m 0.048,-1.032 h 2.313 c -0.108,-0.672 -0.624,-1.021 -1.139,-1.021 -0.538,0.001 -1.006,0.337 -1.174,1.021 z"
               id="path6355"
               style="fill:#ffffff" />
            <path
               d="m 262.154,372.592 v -2.087 h 1.68 v 2.087 h 0.828 v 1.559 h -0.828 v 4.294 h -1.68 v -4.294 h -0.814 v -1.559 h 0.814 z"
               id="path6357"
               style="fill:#ffffff" />
            <path
               d="m 269.438,381.441 v -8.851 h 1.68 v 0.588 c 0.455,-0.48 1.055,-0.72 1.702,-0.72 1.619,0 2.542,1.475 2.542,3.033 0,1.583 -0.888,3.07 -2.53,3.07 -0.685,0 -1.319,-0.336 -1.775,-0.888 v 3.766 l -1.619,0.002 0,0 z m 4.258,-5.924 c 0,-0.863 -0.432,-1.559 -1.308,-1.559 -0.779,0 -1.295,0.646 -1.295,1.547 0,0.804 0.527,1.57 1.295,1.57 0.864,0.001 1.308,-0.707 1.308,-1.558 z"
               id="path6359"
               style="fill:#ffffff" />
            <path
               d="m 277.874,375.878 c 0.12,0.972 0.72,1.331 1.379,1.331 0.646,0 1.091,-0.301 1.379,-0.721 l 1.115,0.805 c -0.624,0.84 -1.26,1.271 -2.591,1.271 -1.715,0 -2.975,-1.26 -2.975,-3.059 0,-1.667 1.127,-3.046 2.926,-3.046 1.979,0 2.76,1.414 2.76,3.214 v 0.204 l -3.993,10e-4 0,0 z m 0.048,-1.032 h 2.313 c -0.107,-0.672 -0.624,-1.021 -1.139,-1.021 -0.538,0.001 -1.006,0.337 -1.174,1.021 z"
               id="path6361"
               style="fill:#ffffff" />
            <path
               d="m 284.726,378.443 h -1.679 v -5.853 h 1.679 v 0.396 c 0,0.096 -0.012,0.24 -0.036,0.408 0.385,-0.552 0.973,-0.948 1.775,-0.948 1.211,0 2.123,0.948 2.123,2.52 v 3.479 h -1.691 v -3.382 c 0,-0.815 -0.516,-1.235 -1.08,-1.235 -0.504,0 -1.066,0.407 -1.091,1.188 v 3.427 l 0,0 z"
               id="path6363"
               style="fill:#ffffff" />
            <path
               d="m 294.314,376.477 c 0.408,0.468 1.056,0.659 1.619,0.659 0.359,0 0.624,-0.145 0.624,-0.359 0,-0.3 -0.3,-0.443 -0.792,-0.588 -0.912,-0.264 -2.039,-0.768 -2.039,-1.955 0,-1.127 1.091,-1.763 2.075,-1.763 0.888,0 1.511,0.3 2.039,0.852 l -0.937,1.008 c -0.252,-0.275 -0.72,-0.527 -1.066,-0.527 -0.313,0 -0.54,0.145 -0.54,0.372 0,0.288 0.335,0.432 0.863,0.588 0.888,0.264 2.026,0.814 2.026,1.931 0,1.104 -0.946,1.871 -2.267,1.871 -1.057,0 -1.919,-0.3 -2.555,-0.983 l 0.95,-1.106 z"
               id="path6365"
               style="fill:#ffffff" />
            <path
               d="m 300.302,369.677 c 0.6,0 1.104,0.504 1.104,1.104 0,0.601 -0.504,1.104 -1.104,1.104 -0.6,0 -1.104,-0.504 -1.104,-1.104 0,-0.601 0.504,-1.104 1.104,-1.104 z m -0.876,8.766 v -5.853 h 1.715 v 5.853 h -1.715 z"
               id="path6367"
               style="fill:#ffffff" />
            <path
               d="m 305.125,374.365 c 0.145,-0.168 0.336,-0.322 0.384,-0.358 -0.036,0 -0.3,0.048 -0.516,0.048 h -2.398 v -1.463 h 5.073 v 1.066 l -2.711,2.986 c -0.191,0.216 -0.396,0.372 -0.433,0.396 0.023,0 0.288,-0.06 0.611,-0.06 h 2.531 v 1.463 h -5.254 v -1.056 l 2.713,-3.022 z"
               id="path6369"
               style="fill:#ffffff" />
            <path
               d="m 310.178,375.878 c 0.119,0.972 0.719,1.331 1.379,1.331 0.647,0 1.092,-0.301 1.379,-0.721 l 1.115,0.805 c -0.623,0.84 -1.259,1.271 -2.59,1.271 -1.715,0 -2.976,-1.26 -2.976,-3.059 0,-1.667 1.127,-3.046 2.927,-3.046 1.979,0 2.76,1.414 2.76,3.214 v 0.204 l -3.994,10e-4 0,0 z m 0.048,-1.032 h 2.314 c -0.108,-0.672 -0.624,-1.021 -1.141,-1.021 -0.538,0.001 -1.005,0.337 -1.173,1.021 z"
               id="path6371"
               style="fill:#ffffff" />
            <path
               d="m 319.406,372.592 v -2.087 h 1.68 v 2.087 h 0.827 v 1.559 h -0.827 v 4.294 h -1.68 v -4.294 h -0.815 v -1.559 h 0.815 z"
               id="path6373"
               style="fill:#ffffff" />
            <path
               d="m 322.73,375.506 c 0,-1.739 1.343,-3.046 3.06,-3.046 1.715,0 3.058,1.307 3.058,3.046 0,1.738 -1.343,3.047 -3.058,3.047 -1.717,-10e-4 -3.06,-1.309 -3.06,-3.047 z m 4.473,0 c 0,-0.889 -0.563,-1.547 -1.414,-1.547 -0.864,0 -1.429,0.658 -1.429,1.547 0,0.898 0.589,1.56 1.429,1.56 0.851,-0.002 1.414,-0.662 1.414,-1.56 z"
               id="path6375"
               style="fill:#ffffff" />
          </g>
        </g>
        <path
           d="m 331.803,374.98 c 0,4.245 3.439,7.685 7.684,7.685 h 3.152 c 4.242,0 7.684,-3.438 7.684,-7.685 0,-4.243 -3.44,-7.685 -7.684,-7.685 h -3.152 c -4.245,0.002 -7.684,3.442 -7.684,7.685 0,0 0,-4.243 0,0 z"
           id="path6377"
           style="fill:#ffffff" />
      </g>
    </g>
    <g
       transform="matrix(2.5,0,0,2.5,-515.10821,21.24897)"
       id="g6503">
      <path
         d="m 317.501,55.863 v -0.011 h -0.112 -0.588 -3.3 -1 -0.112 -0.588 -3.3 -0.668 -8.435 l -2.057,2.545 c -0.189,0.233 -0.475,0.371 -0.777,0.371 h -7.758 c -0.303,0 -0.588,-0.138 -0.777,-0.371 l -2.057,-2.545 h -8.082 c -2.762,0 -5,2.237 -5,5 v 12.166 c 0,2.762 2.238,5 5,5 h 8.088 l 2.051,2.539 c 0.189,0.235 0.476,0.373 0.777,0.373 h 7.758 c 0.304,0 0.588,-0.138 0.777,-0.373 l 2.051,-2.539 h 8.439 0.668 3.3 0.588 0.112 1 3.3 0.588 0.112 v -0.013 c 2.709,-0.061 4.888,-2.265 4.888,-4.987 V 60.853 c 0.002,-2.724 -2.177,-4.928 -4.886,-4.99 z"
         id="path6505"
         style="fill:#007d5b" />
      <g
         id="g6507">
        <g
           id="g6509">
          <g
             id="g6511">
            <path
               d="m 281.974,69.656 c 0.408,0.468 1.055,0.659 1.619,0.659 0.36,0 0.624,-0.145 0.624,-0.359 0,-0.3 -0.3,-0.442 -0.792,-0.588 -0.912,-0.264 -2.039,-0.768 -2.039,-1.955 0,-1.127 1.091,-1.763 2.075,-1.763 0.888,0 1.511,0.3 2.039,0.852 l -0.937,1.009 c -0.252,-0.276 -0.72,-0.528 -1.066,-0.528 -0.313,0 -0.54,0.145 -0.54,0.372 0,0.288 0.335,0.432 0.862,0.588 0.889,0.264 2.027,0.814 2.027,1.931 0,1.104 -0.947,1.871 -2.267,1.871 -1.057,0 -1.919,-0.3 -2.556,-0.982 l 0.951,-1.107 z"
               id="path6513"
               style="fill:#ffffff" />
            <path
               d="m 287.481,65.771 v -2.087 h 1.68 v 2.087 h 0.827 v 1.559 h -0.827 v 4.294 h -1.68 V 67.33 h -0.814 v -1.559 h 0.814 z"
               id="path6515"
               style="fill:#ffffff" />
            <path
               d="m 296.514,71.623 c -0.72,0 -1.211,-0.384 -1.475,-0.995 -0.336,0.563 -1.043,1.115 -2.087,1.115 -1.296,0 -1.955,-0.84 -1.955,-1.715 0,-0.972 0.792,-1.919 2.423,-1.919 0.492,0 0.971,0.06 1.415,0.144 v -0.191 c 0,-0.575 -0.396,-0.959 -1.043,-0.959 -0.456,0 -0.828,0.204 -1.067,0.588 l -1.175,-0.876 c 0,0 0.671,-1.199 2.327,-1.199 1.631,0 2.626,0.972 2.626,2.375 v 1.763 c 0,0.217 0.144,0.349 0.359,0.349 h 0.24 v 1.522 l -0.588,-0.002 0,0 z m -1.679,-2.327 c -0.313,-0.06 -0.696,-0.118 -0.923,-0.118 -0.685,0 -1.211,0.228 -1.211,0.706 0,0.324 0.239,0.54 0.684,0.54 0.706,0 1.234,-0.492 1.45,-1.128 z"
               id="path6517"
               style="fill:#ffffff" />
            <path
               d="M 298.113,71.623 V 65.77 h 1.68 v 0.3 c 0,0.107 -0.024,0.3 -0.048,0.479 0.348,-0.563 0.91,-0.924 1.606,-0.924 0.853,0 1.367,0.396 1.644,0.96 0.42,-0.563 1.066,-0.96 1.858,-0.96 1.199,0 1.932,0.816 1.932,2.22 v 3.777 h -1.68 v -3.658 c 0,-0.636 -0.456,-0.959 -0.912,-0.959 -0.455,0 -0.911,0.323 -0.911,1.008 v 3.609 h -1.679 v -3.693 c 0,-0.601 -0.42,-0.888 -0.864,-0.888 -0.455,0 -0.923,0.313 -0.946,0.911 v 3.67 l -1.68,0.001 0,0 z"
               id="path6519"
               style="fill:#ffffff" />
            <path
               d="M 308.324,74.621 V 65.77 h 1.68 v 0.588 c 0.455,-0.48 1.055,-0.72 1.703,-0.72 1.619,0 2.543,1.475 2.543,3.033 0,1.583 -0.89,3.07 -2.531,3.07 -0.684,0 -1.319,-0.336 -1.775,-0.888 v 3.766 l -1.62,0.002 0,0 z m 4.258,-5.925 c 0,-0.863 -0.433,-1.559 -1.308,-1.559 -0.778,0 -1.295,0.646 -1.295,1.547 0,0.804 0.527,1.57 1.295,1.57 0.865,0.002 1.308,-0.706 1.308,-1.558 z"
               id="path6521"
               style="fill:#ffffff" />
          </g>
        </g>
      </g>
    </g>
  </g>
</svg>
